<svg xmlns="http://www.w3.org/2000/svg" xmlns:xlink="http://www.w3.org/1999/xlink" width="1024" zoomAndPan="magnify" viewBox="0 0 768 767.999994" height="1024" preserveAspectRatio="xMidYMid meet" version="1.0"><defs><clipPath id="3c9a0d5081"><path d="M 536 379 L 691.050781 379 L 691.050781 460 L 536 460 Z M 536 379 " clip-rule="nonzero"/></clipPath><clipPath id="711e3df58c"><path d="M 76.800781 379 L 232 379 L 232 460 L 76.800781 460 Z M 76.800781 379 " clip-rule="nonzero"/></clipPath><clipPath id="8ba0c94d47"><path d="M 95 578 L 673 578 L 673 658.804688 L 95 658.804688 Z M 95 578 " clip-rule="nonzero"/></clipPath><clipPath id="901eb8d125"><path d="M 158 109.054688 L 610 109.054688 L 610 556 L 158 556 Z M 158 109.054688 " clip-rule="nonzero"/></clipPath></defs><path fill="#a8a8a8" d="M 574.40625 273.65625 C 574.152344 268.847656 573.605469 264.046875 572.808594 259.292969 C 572.402344 256.925781 572.019531 254.539062 571.402344 252.210938 C 570.851562 249.863281 570.304688 247.515625 569.585938 245.21875 C 568.933594 242.902344 568.246094 240.597656 567.425781 238.339844 L 566.210938 234.945312 L 564.855469 231.613281 L 563.476562 228.292969 L 561.953125 225.027344 L 560.425781 221.78125 L 558.71875 218.628906 L 557.003906 215.480469 L 555.160156 212.417969 C 553.9375 210.375 552.707031 208.335938 551.328125 206.394531 C 549.988281 204.433594 548.640625 202.480469 547.179688 200.613281 C 545.75 198.71875 544.347656 196.816406 542.804688 195.015625 C 539.792969 191.371094 536.589844 187.917969 533.3125 184.558594 C 531.617188 182.929688 529.960938 181.273438 528.226562 179.691406 L 522.984375 175.046875 L 516.050781 168.90625 C 516.050781 168.90625 467.535156 236.816406 469.507812 234.839844 C 471.25 233.113281 519.050781 195.175781 520.066406 196.410156 C 522.710938 199.726562 525.265625 203.097656 527.613281 206.589844 C 528.867188 208.277344 529.980469 210.058594 531.132812 211.816406 C 532.304688 213.554688 533.363281 215.359375 534.410156 217.160156 L 536.015625 219.847656 L 537.515625 222.589844 L 539.007812 225.328125 L 540.375 228.125 C 541.316406 229.976562 542.191406 231.855469 543.023438 233.75 L 544.296875 236.570312 L 546.570312 242.335938 L 547.570312 245.257812 C 548.308594 247.183594 548.917969 249.148438 549.507812 251.121094 C 550.148438 253.078125 550.644531 255.070312 551.140625 257.058594 C 551.679688 259.042969 552.074219 261.0625 552.519531 263.0625 C 553.394531 267.082031 553.976562 271.148438 554.445312 275.234375 C 554.941406 279.320312 555.171875 283.429688 555.253906 287.5625 C 555.316406 289.625 555.246094 291.691406 555.253906 293.765625 L 554.921875 299.980469 L 554.339844 306.199219 L 553.421875 312.398438 C 553.027344 314.460938 552.710938 316.550781 552.261719 318.613281 C 551.753906 320.652344 551.339844 322.726562 550.800781 324.78125 C 549.738281 328.890625 548.484375 332.96875 547.089844 337.050781 C 545.648438 341.097656 544.097656 345.148438 542.339844 349.152344 C 540.601562 353.160156 538.679688 357.132812 536.667969 361.089844 L 533.546875 367.003906 C 532.425781 368.980469 531.285156 370.925781 530.214844 372.941406 C 531.992188 371.515625 533.691406 370.027344 535.421875 368.554688 C 537.121094 367.050781 538.730469 365.421875 540.394531 363.816406 C 542.019531 362.183594 543.507812 360.453125 545.082031 358.757812 C 546.613281 357.039062 547.996094 355.203125 549.472656 353.414062 C 552.28125 349.742188 554.953125 345.921875 557.355469 341.917969 C 558.597656 339.933594 559.671875 337.863281 560.8125 335.808594 C 561.933594 333.738281 562.867188 331.585938 563.914062 329.472656 C 564.933594 327.34375 565.738281 325.121094 566.640625 322.929688 C 567.496094 320.726562 568.214844 318.460938 569.003906 316.21875 C 569.71875 313.953125 570.304688 311.640625 570.949219 309.351562 L 572.515625 302.355469 C 572.878906 299.988281 573.28125 297.628906 573.605469 295.246094 C 573.835938 292.871094 574.148438 290.484375 574.316406 288.085938 C 574.578125 283.289062 574.636719 278.472656 574.40625 273.65625 Z M 574.40625 273.65625 " fill-opacity="1" fill-rule="nonzero"/><path fill="#a8a8a8" d="M 574.378906 373.855469 C 576.285156 373.777344 578.226562 373.734375 580.152344 373.558594 C 582.054688 373.296875 584.023438 373.15625 585.921875 372.773438 C 587.816406 372.355469 589.78125 372.070312 591.652344 371.523438 C 595.4375 370.503906 599.207031 369.277344 602.832031 367.699219 C 604.660156 366.921875 606.492188 366.15625 608.234375 365.199219 C 610.007812 364.304688 611.765625 363.371094 613.46875 362.332031 L 616.027344 360.789062 L 618.503906 359.109375 C 620.171875 358.003906 621.785156 356.832031 623.355469 355.59375 C 624.953125 354.382812 626.460938 353.078125 627.964844 351.75 C 629.5 350.460938 630.953125 349.085938 632.371094 347.671875 C 633.828125 346.285156 635.164062 344.789062 636.519531 343.3125 C 637.898438 341.851562 639.171875 340.308594 640.4375 338.742188 C 642.945312 335.617188 645.296875 332.355469 647.476562 328.984375 C 649.636719 325.597656 651.617188 322.097656 653.425781 318.511719 C 654.390625 316.742188 655.183594 314.902344 656 313.0625 C 656.851562 311.242188 657.574219 309.367188 658.285156 307.484375 C 659.035156 305.621094 659.664062 303.707031 660.28125 301.796875 C 660.929688 299.890625 661.460938 297.957031 661.976562 296.015625 C 662.542969 294.082031 662.964844 292.117188 663.375 290.15625 L 663.992188 287.203125 L 664.453125 284.222656 L 664.90625 281.246094 L 665.238281 278.253906 C 665.453125 276.253906 665.683594 274.265625 665.71875 272.253906 C 665.800781 270.25 665.90625 268.253906 665.859375 266.25 C 665.828125 264.238281 665.882812 262.242188 665.71875 260.242188 C 665.488281 256.246094 665.027344 252.269531 664.433594 248.335938 C 664.050781 246.371094 663.710938 244.414062 663.289062 242.472656 L 661.867188 236.683594 L 659.78125 228.210938 L 652.464844 230.367188 C 648.03125 231.6875 643.59375 232.964844 639.175781 234.382812 C 636.96875 235.066406 634.753906 235.765625 632.558594 236.511719 C 630.351562 237.238281 628.148438 237.949219 625.957031 238.730469 C 623.761719 239.5 621.558594 240.25 619.371094 241.066406 C 617.183594 241.859375 614.996094 242.660156 612.816406 243.515625 C 610.636719 244.335938 608.457031 245.21875 606.285156 246.105469 C 604.128906 247.046875 601.953125 247.914062 599.800781 248.921875 C 602.171875 249.042969 604.515625 249.011719 606.871094 249.058594 C 609.21875 249.058594 611.5625 249.046875 613.898438 248.980469 C 616.234375 248.9375 618.566406 248.855469 620.894531 248.753906 C 623.222656 248.679688 625.542969 248.535156 627.867188 248.410156 C 630.191406 248.296875 632.503906 248.117188 634.816406 247.957031 C 637.136719 247.808594 639.441406 247.617188 641.75 247.410156 C 643.394531 247.277344 645.035156 247.089844 646.675781 246.933594 C 646.714844 247.988281 646.753906 249.046875 646.796875 250.09375 C 646.890625 253.53125 646.890625 256.949219 646.671875 260.367188 C 646.652344 262.074219 646.464844 263.769531 646.34375 265.472656 C 646.25 267.171875 646.003906 268.859375 645.789062 270.542969 C 645.589844 272.234375 645.359375 273.917969 645.070312 275.59375 L 644.667969 278.109375 L 644.148438 280.601562 C 643.824219 282.273438 643.453125 283.921875 643.035156 285.5625 C 642.65625 287.21875 642.234375 288.863281 641.746094 290.484375 C 641.292969 292.117188 640.835938 293.75 640.273438 295.347656 C 639.746094 296.960938 639.253906 298.582031 638.625 300.15625 C 637.480469 303.34375 636.175781 306.476562 634.789062 309.570312 C 633.425781 312.675781 631.890625 315.707031 630.234375 318.671875 C 628.632812 321.664062 626.886719 324.59375 624.992188 327.414062 C 624.039062 328.824219 623.15625 330.292969 622.128906 331.644531 C 621.136719 333.03125 620.160156 334.441406 619.066406 335.75 C 618.003906 337.082031 616.988281 338.472656 615.855469 339.746094 C 614.753906 341.0625 613.640625 342.371094 612.441406 343.589844 L 610.703125 345.503906 L 608.882812 347.324219 L 607.046875 349.152344 L 605.128906 350.890625 C 603.878906 352.105469 602.558594 353.226562 601.207031 354.316406 C 599.878906 355.453125 598.5 356.507812 597.101562 357.570312 C 594.308594 359.683594 591.386719 361.667969 588.339844 363.515625 C 585.296875 365.386719 582.121094 367.066406 578.828125 368.671875 C 577.1875 369.472656 575.488281 370.144531 573.792969 370.941406 L 568.859375 372.894531 C 568.847656 372.828125 568.84375 372.75 568.835938 372.679688 C 568.824219 372.464844 568.769531 372.261719 568.902344 372.0625 C 568.695312 372.167969 568.605469 372.449219 568.53125 372.644531 C 568.449219 372.867188 568.390625 373.085938 568.304688 373.246094 L 568.128906 373.589844 L 568.648438 373.621094 C 570.535156 373.726562 572.449219 373.808594 574.378906 373.855469 Z M 574.378906 373.855469 " fill-opacity="1" fill-rule="nonzero"/><g clip-path="url(#3c9a0d5081)"><path fill="#a8a8a8" d="M 686.324219 433.667969 C 684.445312 430.617188 682.492188 427.578125 680.496094 424.5625 C 678.371094 421.632812 676.019531 418.871094 673.726562 416.035156 C 671.34375 413.28125 668.660156 410.796875 666.089844 408.199219 C 663.433594 405.679688 660.492188 403.472656 657.648438 401.152344 C 654.726562 398.929688 651.585938 396.992188 648.515625 394.976562 C 646.988281 393.945312 645.285156 393.195312 643.671875 392.316406 L 638.757812 389.785156 C 635.414062 388.238281 631.9375 386.988281 628.519531 385.628906 C 625.003906 384.511719 621.4375 383.59375 617.902344 382.585938 C 614.300781 381.847656 610.65625 381.316406 607.054688 380.691406 C 603.390625 380.375 599.730469 380.183594 596.097656 379.992188 C 592.441406 380.082031 588.800781 380.238281 585.1875 380.476562 C 581.582031 380.996094 578.003906 381.480469 574.472656 382.148438 C 570.972656 383.089844 567.480469 383.875 564.089844 384.996094 C 560.734375 386.261719 557.410156 387.523438 554.1875 388.945312 C 551.035156 390.609375 547.910156 392.226562 544.914062 394.011719 C 542 396.023438 539.167969 398.074219 536.460938 400.207031 C 539.945312 399.691406 543.3125 399.089844 546.601562 398.449219 C 548.265625 398.191406 549.957031 398.03125 551.613281 397.8125 L 556.527344 397.148438 C 559.808594 396.839844 563.101562 396.71875 566.292969 396.402344 L 575.917969 396.304688 C 579.097656 396.402344 582.261719 396.683594 585.394531 396.8125 C 588.519531 397.128906 591.617188 397.640625 594.695312 397.9375 C 597.761719 398.503906 600.785156 399.191406 603.8125 399.707031 L 612.730469 402.125 C 615.625 403.15625 618.542969 404.085938 621.402344 405.167969 C 624.195312 406.414062 627.050781 407.511719 629.824219 408.792969 C 632.507812 410.257812 635.296875 411.527344 637.960938 413.03125 L 641.886719 415.414062 C 643.1875 416.230469 644.589844 416.890625 645.8125 417.828125 L 649.5625 420.511719 C 650.796875 421.429688 652.167969 422.175781 653.332031 423.199219 C 655.6875 425.191406 658.15625 427.082031 660.527344 429.101562 L 667.386719 435.511719 C 667.796875 435.964844 668.238281 436.402344 668.652344 436.851562 C 668.171875 437.1875 667.691406 437.511719 667.214844 437.851562 C 664.148438 440.089844 661.070312 442.316406 658.050781 444.640625 C 655.015625 446.953125 652.027344 449.332031 649.0625 451.765625 C 647.589844 452.988281 646.113281 454.214844 644.664062 455.496094 C 643.222656 456.789062 641.753906 458.03125 640.34375 459.386719 C 642.253906 458.964844 644.101562 458.429688 645.972656 457.941406 C 647.839844 457.445312 649.675781 456.890625 651.519531 456.339844 C 655.183594 455.214844 658.820312 454.035156 662.410156 452.785156 C 666.027344 451.554688 669.582031 450.226562 673.144531 448.910156 C 676.675781 447.535156 680.222656 446.195312 683.714844 444.734375 L 691.191406 441.601562 Z M 686.324219 433.667969 " fill-opacity="1" fill-rule="nonzero"/></g><path fill="#a8a8a8" d="M 193.582031 273.65625 C 193.835938 268.847656 194.382812 264.046875 195.179688 259.292969 C 195.589844 256.925781 195.972656 254.539062 196.589844 252.210938 C 197.140625 249.863281 197.6875 247.515625 198.402344 245.21875 C 199.058594 242.902344 199.742188 240.597656 200.5625 238.339844 L 201.777344 234.945312 L 203.136719 231.613281 L 204.515625 228.292969 L 206.035156 225.027344 L 207.5625 221.78125 L 209.273438 218.628906 L 210.988281 215.480469 L 212.832031 212.417969 C 214.050781 210.375 215.285156 208.335938 216.664062 206.394531 C 218.003906 204.433594 219.347656 202.480469 220.808594 200.613281 C 222.242188 198.71875 223.644531 196.816406 225.183594 195.015625 C 228.199219 191.371094 231.402344 187.917969 234.675781 184.558594 C 236.371094 182.929688 238.03125 181.273438 239.761719 179.691406 L 245.007812 175.046875 L 251.941406 168.90625 C 251.941406 168.90625 300.457031 236.816406 298.484375 234.839844 C 296.738281 233.113281 248.9375 195.175781 247.925781 196.410156 C 245.277344 199.726562 242.726562 203.097656 240.378906 206.589844 C 239.121094 208.277344 238.007812 210.058594 236.859375 211.816406 C 235.6875 213.554688 234.628906 215.359375 233.582031 217.160156 L 231.976562 219.847656 L 230.476562 222.589844 L 228.980469 225.328125 L 227.613281 228.125 C 226.675781 229.976562 225.800781 231.855469 224.96875 233.75 L 223.691406 236.570312 L 222.554688 239.453125 L 221.421875 242.335938 L 220.421875 245.257812 C 219.683594 247.183594 219.070312 249.148438 218.484375 251.121094 C 217.839844 253.078125 217.347656 255.070312 216.847656 257.058594 C 216.308594 259.042969 215.914062 261.0625 215.46875 263.0625 C 214.59375 267.082031 214.015625 271.148438 213.546875 275.234375 C 213.050781 279.320312 212.816406 283.429688 212.738281 287.5625 C 212.671875 289.625 212.746094 291.691406 212.738281 293.765625 L 213.070312 299.980469 L 213.652344 306.199219 L 214.570312 312.398438 C 214.960938 314.460938 215.28125 316.550781 215.726562 318.613281 C 216.234375 320.652344 216.652344 322.726562 217.191406 324.78125 C 218.253906 328.890625 219.507812 332.96875 220.902344 337.050781 C 222.339844 341.097656 223.890625 345.148438 225.648438 349.152344 C 227.386719 353.160156 229.3125 357.132812 231.324219 361.089844 L 234.445312 367.003906 C 235.566406 368.980469 236.707031 370.925781 237.777344 372.941406 C 236 371.515625 234.296875 370.027344 232.570312 368.554688 C 230.867188 367.050781 229.261719 365.421875 227.597656 363.816406 C 225.96875 362.183594 224.484375 360.453125 222.910156 358.757812 C 221.375 357.039062 219.996094 355.203125 218.519531 353.414062 C 215.710938 349.742188 213.039062 345.921875 210.636719 341.917969 C 209.394531 339.933594 208.316406 337.863281 207.179688 335.808594 C 206.058594 333.738281 205.125 331.585938 204.078125 329.472656 C 203.058594 327.34375 202.253906 325.121094 201.351562 322.929688 C 200.496094 320.726562 199.773438 318.460938 198.984375 316.21875 C 198.273438 313.953125 197.6875 311.640625 197.042969 309.351562 L 195.476562 302.355469 C 195.109375 299.988281 194.710938 297.628906 194.386719 295.246094 C 194.152344 292.871094 193.84375 290.484375 193.675781 288.085938 C 193.410156 283.289062 193.355469 278.472656 193.582031 273.65625 Z M 193.582031 273.65625 " fill-opacity="1" fill-rule="nonzero"/><path fill="#a8a8a8" d="M 193.609375 373.855469 C 191.707031 373.777344 189.765625 373.734375 187.835938 373.558594 C 185.9375 373.296875 183.964844 373.15625 182.066406 372.773438 C 180.175781 372.355469 178.207031 372.070312 176.335938 371.523438 C 172.554688 370.503906 168.78125 369.277344 165.15625 367.699219 C 163.332031 366.921875 161.496094 366.15625 159.757812 365.199219 C 157.980469 364.304688 156.226562 363.371094 154.523438 362.332031 L 151.960938 360.789062 L 149.488281 359.109375 C 147.816406 358.003906 146.207031 356.832031 144.636719 355.59375 C 143.035156 354.382812 141.527344 353.078125 140.023438 351.75 C 138.492188 350.460938 137.035156 349.085938 135.621094 347.671875 C 134.160156 346.285156 132.828125 344.789062 131.472656 343.3125 C 130.09375 341.851562 128.820312 340.308594 127.554688 338.742188 C 125.046875 335.617188 122.695312 332.355469 120.515625 328.984375 C 118.355469 325.597656 116.375 322.097656 114.5625 318.511719 C 113.601562 316.742188 112.808594 314.902344 111.988281 313.0625 C 111.136719 311.242188 110.417969 309.367188 109.703125 307.484375 C 108.953125 305.621094 108.328125 303.707031 107.707031 301.796875 C 107.0625 299.890625 106.53125 297.957031 106.015625 296.015625 C 105.449219 294.082031 105.027344 292.117188 104.617188 290.15625 L 103.996094 287.203125 L 103.539062 284.222656 L 103.085938 281.246094 L 102.753906 278.253906 C 102.539062 276.253906 102.304688 274.265625 102.269531 272.253906 C 102.1875 270.25 102.082031 268.253906 102.132812 266.25 C 102.160156 264.238281 102.105469 262.242188 102.269531 260.242188 C 102.503906 256.246094 102.964844 252.269531 103.554688 248.335938 C 103.941406 246.371094 104.277344 244.414062 104.703125 242.472656 L 106.121094 236.683594 L 108.210938 228.210938 L 115.527344 230.367188 C 119.957031 231.6875 124.398438 232.964844 128.8125 234.382812 C 131.023438 235.066406 133.234375 235.765625 135.429688 236.511719 C 137.636719 237.238281 139.84375 237.949219 142.035156 238.730469 C 144.230469 239.5 146.433594 240.25 148.617188 241.066406 C 150.808594 241.859375 152.996094 242.660156 155.175781 243.515625 C 157.355469 244.335938 159.53125 245.21875 161.703125 246.105469 C 163.859375 247.046875 166.039062 247.914062 168.1875 248.921875 C 165.816406 249.042969 163.476562 249.011719 161.121094 249.058594 C 158.769531 249.058594 156.425781 249.046875 154.09375 248.980469 C 151.757812 248.9375 149.421875 248.855469 147.097656 248.753906 C 144.769531 248.679688 142.445312 248.535156 140.125 248.410156 C 137.796875 248.296875 135.488281 248.117188 133.175781 247.957031 C 130.855469 247.808594 128.546875 247.617188 126.242188 247.410156 C 124.59375 247.277344 122.957031 247.089844 121.3125 246.933594 C 121.277344 247.988281 121.238281 249.046875 121.191406 250.09375 C 121.097656 253.53125 121.101562 256.949219 121.316406 260.367188 C 121.335938 262.074219 121.523438 263.769531 121.644531 265.472656 C 121.742188 267.171875 121.992188 268.859375 122.203125 270.542969 C 122.402344 272.234375 122.632812 273.917969 122.917969 275.59375 L 123.320312 278.109375 L 123.839844 280.601562 C 124.164062 282.273438 124.539062 283.921875 124.953125 285.5625 C 125.332031 287.21875 125.753906 288.863281 126.246094 290.484375 C 126.695312 292.117188 127.152344 293.75 127.714844 295.347656 C 128.246094 296.960938 128.738281 298.582031 129.367188 300.15625 C 130.507812 303.34375 131.816406 306.476562 133.199219 309.570312 C 134.566406 312.675781 136.101562 315.707031 137.757812 318.671875 C 139.355469 321.664062 141.101562 324.59375 142.992188 327.414062 C 143.949219 328.824219 144.832031 330.292969 145.859375 331.644531 C 146.855469 333.03125 147.832031 334.441406 148.925781 335.75 C 149.984375 337.082031 151 338.472656 152.136719 339.746094 C 153.234375 341.0625 154.347656 342.371094 155.546875 343.589844 L 157.28125 345.503906 L 159.105469 347.324219 L 160.941406 349.152344 L 162.863281 350.890625 C 164.109375 352.105469 165.433594 353.226562 166.785156 354.316406 C 168.109375 355.453125 169.492188 356.507812 170.890625 357.570312 C 173.679688 359.683594 176.605469 361.667969 179.652344 363.515625 C 182.691406 365.386719 185.871094 367.066406 189.160156 368.671875 C 190.800781 369.472656 192.503906 370.144531 194.195312 370.941406 L 199.132812 372.894531 C 199.144531 372.828125 199.144531 372.75 199.15625 372.679688 C 199.167969 372.464844 199.222656 372.261719 199.085938 372.0625 C 199.292969 372.167969 199.386719 372.449219 199.460938 372.644531 C 199.539062 372.867188 199.601562 373.085938 199.683594 373.246094 L 199.863281 373.589844 L 199.34375 373.621094 C 197.453125 373.726562 195.542969 373.808594 193.609375 373.855469 Z M 193.609375 373.855469 " fill-opacity="1" fill-rule="nonzero"/><g clip-path="url(#711e3df58c)"><path fill="#a8a8a8" d="M 81.667969 433.667969 C 83.546875 430.617188 85.5 427.578125 87.496094 424.5625 C 89.617188 421.632812 91.972656 418.871094 94.261719 416.035156 C 96.644531 413.28125 99.324219 410.796875 101.902344 408.199219 C 104.558594 405.679688 107.492188 403.472656 110.34375 401.152344 C 113.265625 398.929688 116.402344 396.992188 119.476562 394.976562 C 121.003906 393.945312 122.707031 393.195312 124.316406 392.316406 L 129.230469 389.785156 C 132.578125 388.238281 136.054688 386.988281 139.472656 385.628906 C 142.984375 384.511719 146.554688 383.59375 150.085938 382.585938 C 153.691406 381.847656 157.335938 381.316406 160.9375 380.691406 C 164.601562 380.375 168.257812 380.183594 171.894531 379.992188 C 175.550781 380.082031 179.1875 380.238281 182.800781 380.476562 C 186.40625 380.996094 189.988281 381.480469 193.519531 382.148438 C 197.015625 383.089844 200.511719 383.875 203.898438 384.996094 C 207.257812 386.261719 210.582031 387.523438 213.800781 388.945312 C 216.957031 390.609375 220.082031 392.226562 223.074219 394.011719 C 225.988281 396.023438 228.820312 398.074219 231.53125 400.207031 C 228.042969 399.691406 224.679688 399.089844 221.390625 398.449219 C 219.722656 398.191406 218.035156 398.03125 216.375 397.8125 L 211.460938 397.148438 C 208.179688 396.839844 204.890625 396.71875 201.695312 396.402344 L 192.074219 396.304688 C 188.890625 396.402344 185.726562 396.683594 182.597656 396.8125 C 179.46875 397.128906 176.371094 397.640625 173.292969 397.9375 C 170.230469 398.503906 167.207031 399.191406 164.171875 399.707031 L 155.261719 402.125 C 152.367188 403.15625 149.449219 404.085938 146.589844 405.167969 C 143.792969 406.414062 140.941406 407.511719 138.167969 408.792969 C 135.484375 410.257812 132.695312 411.527344 130.03125 413.03125 L 126.105469 415.414062 C 124.804688 416.230469 123.398438 416.890625 122.179688 417.828125 L 118.429688 420.511719 C 117.195312 421.429688 115.820312 422.175781 114.65625 423.199219 C 112.300781 425.191406 109.835938 427.082031 107.464844 429.101562 L 100.601562 435.511719 C 100.195312 435.964844 99.75 436.402344 99.339844 436.851562 C 99.820312 437.1875 100.300781 437.511719 100.777344 437.851562 C 103.84375 440.089844 106.917969 442.316406 109.941406 444.640625 C 112.96875 446.953125 115.964844 449.332031 118.929688 451.765625 C 120.402344 452.988281 121.878906 454.214844 123.332031 455.496094 C 124.769531 456.789062 126.238281 458.03125 127.648438 459.386719 C 125.738281 458.964844 123.886719 458.429688 122.019531 457.941406 C 120.148438 457.445312 118.316406 456.890625 116.472656 456.339844 C 112.808594 455.214844 109.171875 454.035156 105.578125 452.785156 C 101.964844 451.554688 98.410156 450.226562 94.847656 448.910156 C 91.3125 447.535156 87.761719 446.195312 84.277344 444.734375 L 76.800781 441.601562 Z M 81.667969 433.667969 " fill-opacity="1" fill-rule="nonzero"/></g><g clip-path="url(#8ba0c94d47)"><path fill="#a8a8a8" d="M 638.753906 578.980469 C 652.855469 591.644531 647.425781 601.8125 629.824219 610.699219 C 618.183594 616.574219 604.808594 620.585938 590.957031 624.171875 C 556.757812 633.039062 520.230469 636.660156 483.863281 640.648438 C 482.28125 640.769531 480.699219 640.894531 479.113281 641.011719 C 475.9375 641.339844 472.769531 641.671875 469.59375 642.003906 C 463.46875 640.570312 457.613281 640.878906 452.039062 642.96875 L 451.957031 642.972656 C 450.386719 643.050781 448.8125 643.121094 447.25 643.191406 C 438.09375 643.492188 428.925781 643.800781 419.769531 644.109375 C 407.84375 643.460938 395.917969 643.199219 384 643.277344 C 372.074219 643.199219 360.148438 643.460938 348.222656 644.109375 C 339.066406 643.800781 329.90625 643.492188 320.746094 643.191406 C 319.179688 643.117188 317.605469 643.050781 316.035156 642.972656 L 315.953125 642.96875 C 310.382812 640.878906 304.527344 640.570312 298.398438 642.003906 C 295.226562 641.671875 292.054688 641.339844 288.871094 641.011719 C 287.296875 640.894531 285.710938 640.769531 284.128906 640.648438 C 247.761719 636.660156 211.230469 633.039062 177.039062 624.171875 C 163.191406 620.585938 149.8125 616.574219 138.171875 610.699219 C 120.566406 601.8125 115.140625 591.644531 129.242188 578.980469 C 96.746094 584.261719 85.671875 602.699219 105.050781 616.886719 C 119.25 627.296875 138.949219 633.078125 159.390625 637.863281 C 206.828125 648.964844 256.34375 654.515625 307.191406 656.214844 C 318.910156 659.097656 330.992188 659.042969 343.210938 657.742188 C 356.8125 658.335938 370.40625 658.660156 384 658.691406 C 397.589844 658.660156 411.183594 658.335938 424.78125 657.742188 C 437.007812 659.042969 449.078125 659.097656 460.800781 656.214844 C 511.648438 654.515625 561.167969 648.964844 608.601562 637.863281 C 629.046875 633.078125 648.746094 627.296875 662.941406 616.886719 C 682.320312 602.699219 671.246094 584.261719 638.753906 578.980469 Z M 638.753906 578.980469 " fill-opacity="1" fill-rule="nonzero"/></g><path fill="#a8a8a8" d="M 221.40625 604.183594 C 225.136719 605.625 228.914062 606.953125 232.761719 608.1875 C 236.605469 609.421875 240.507812 610.550781 244.460938 611.582031 C 246.441406 612.101562 248.429688 612.589844 250.433594 613.066406 C 272.46875 618.242188 296.023438 620.671875 320.234375 621.609375 C 321.707031 621.707031 323.179688 621.8125 324.65625 621.90625 C 330.953125 622.351562 337.246094 622.804688 343.542969 623.242188 C 357.074219 624.003906 370.558594 624.457031 384 624.597656 C 397.4375 624.457031 410.917969 624.003906 424.453125 623.242188 C 430.75 622.800781 437.039062 622.351562 443.335938 621.90625 C 444.8125 621.8125 446.285156 621.707031 447.761719 621.609375 C 471.96875 620.671875 495.523438 618.242188 517.558594 613.066406 C 519.5625 612.589844 521.546875 612.101562 523.53125 611.582031 C 527.488281 610.550781 531.386719 609.421875 535.230469 608.1875 C 539.078125 606.953125 542.859375 605.625 546.589844 604.183594 C 565.503906 596.851562 567.878906 585.523438 553.703125 578.511719 C 548.828125 576.09375 542.515625 573.328125 541.40625 579.960938 C 539.300781 592.503906 523.203125 596.980469 506.933594 600.519531 C 471.492188 608.21875 435.0625 613.683594 396.84375 613.5625 C 392.648438 612.292969 388.355469 611.648438 384 611.351562 C 379.640625 611.648438 375.347656 612.289062 371.148438 613.5625 C 332.933594 613.683594 296.5 608.21875 261.066406 600.519531 C 244.796875 596.980469 228.6875 592.503906 226.589844 579.960938 C 225.480469 573.328125 219.164062 576.09375 214.292969 578.511719 C 200.113281 585.523438 202.496094 596.851562 221.40625 604.183594 Z M 221.40625 604.183594 " fill-opacity="1" fill-rule="nonzero"/><g clip-path="url(#901eb8d125)"><path fill="#a8a8a8" d="M 601.125 470.203125 C 601.242188 462.214844 595.785156 456.078125 593.964844 448.742188 C 591.886719 440.414062 586.488281 439.644531 579.535156 445.542969 C 564.984375 457.894531 550.015625 456.851562 538.003906 442.589844 C 535.628906 439.769531 532.964844 437.175781 530.585938 434.367188 C 495.632812 393.164062 502.214844 412.296875 492.417969 358.3125 C 490.808594 349.421875 491.285156 340.542969 491.160156 331.65625 C 491.035156 322.746094 491.582031 313.808594 491.023438 304.917969 C 489.609375 282.070312 482.5625 263.011719 456.628906 255.332031 C 443.878906 251.554688 432.066406 245.230469 421.21875 237.417969 C 414.378906 232.496094 411.050781 226.121094 413.5625 218.507812 C 416.539062 209.53125 418.222656 200.035156 424.648438 192.160156 C 429.804688 185.839844 434.691406 176.398438 430.980469 170.277344 C 425.621094 161.453125 427.6875 153.246094 427.230469 144.722656 C 426.09375 123.667969 417.21875 112.859375 397.773438 109.339844 C 394.765625 109.339844 391.769531 109.339844 388.765625 109.339844 C 385.59375 109.339844 382.40625 109.339844 379.226562 109.339844 C 376.21875 109.339844 373.21875 109.339844 370.226562 109.339844 C 350.78125 112.859375 341.894531 123.667969 340.769531 144.722656 C 340.304688 153.246094 342.382812 161.453125 337.019531 170.277344 C 333.296875 176.398438 338.183594 185.839844 343.339844 192.160156 C 349.765625 200.035156 351.464844 209.53125 354.425781 218.507812 C 356.945312 226.121094 353.609375 232.496094 346.773438 237.417969 C 335.933594 245.230469 324.121094 251.554688 311.371094 255.332031 C 285.429688 263.011719 278.390625 282.070312 276.964844 304.917969 C 276.414062 313.808594 276.953125 322.746094 276.832031 331.65625 C 276.707031 340.542969 277.195312 349.421875 275.570312 358.3125 C 265.777344 412.296875 272.371094 393.164062 237.402344 434.367188 C 235.027344 437.175781 232.367188 439.769531 229.996094 442.589844 C 217.988281 456.851562 203.015625 457.894531 188.46875 445.542969 C 181.503906 439.644531 176.113281 440.414062 174.03125 448.742188 C 172.207031 456.078125 166.757812 462.214844 166.871094 470.203125 C 164.066406 469.269531 162.644531 462.199219 158.011719 467.980469 C 158.011719 471.289062 158.011719 474.585938 158.011719 477.886719 C 159.589844 483.105469 162.738281 486.425781 168.828125 486.402344 C 176.277344 486.371094 183.21875 490.847656 190.597656 489.09375 C 190.195312 489.4375 189.210938 489.710938 188.492188 490.328125 C 184.90625 493.363281 179.613281 497.414062 183.425781 501.492188 C 187.519531 505.867188 192.644531 501.855469 196.855469 498.210938 C 193.984375 516.101562 203.597656 526.558594 218.925781 535.386719 C 235.4375 544.917969 251.738281 553.738281 271.328125 555.164062 C 280.25 555.164062 289.191406 555.164062 298.105469 555.164062 C 318.875 553.226562 339.03125 548.847656 358.871094 542.542969 C 365.050781 540.574219 402.953125 540.574219 409.117188 542.542969 C 428.96875 548.847656 449.113281 553.226562 469.886719 555.164062 C 478.808594 555.164062 487.734375 555.164062 496.667969 555.164062 C 516.265625 553.738281 532.5625 544.917969 549.0625 535.386719 C 564.40625 526.558594 574.015625 516.101562 571.140625 498.210938 C 575.347656 501.855469 580.488281 505.867188 584.566406 501.492188 C 588.375 497.414062 583.097656 493.363281 579.511719 490.328125 C 578.789062 489.710938 577.796875 489.4375 577.394531 489.09375 C 584.785156 490.847656 591.714844 486.371094 599.175781 486.402344 C 605.261719 486.425781 608.410156 483.105469 609.980469 477.886719 C 609.980469 474.585938 609.980469 471.289062 609.980469 467.980469 C 605.339844 462.195312 603.925781 469.269531 601.125 470.203125 Z M 181.78125 467.242188 C 181.132812 463.296875 180.945312 459.921875 183.125 455.507812 C 187.195312 460.554688 189.085938 464.410156 181.78125 467.242188 Z M 304.40625 453.03125 C 303.851562 457.089844 302.90625 459.253906 298.3125 460.53125 C 277.132812 466.457031 255.925781 472.136719 233.289062 475.570312 C 237.484375 471.152344 242.652344 469.941406 246.925781 467.351562 C 272.835938 451.695312 302.890625 440.03125 309.308594 405.605469 C 310.082031 406.035156 310.847656 406.457031 311.609375 406.886719 C 309.171875 422.261719 306.546875 437.617188 304.40625 453.03125 Z M 469.675781 460.53125 C 465.085938 459.253906 464.148438 457.089844 463.582031 453.03125 C 461.445312 437.617188 458.828125 422.261719 456.378906 406.886719 C 457.15625 406.457031 457.917969 406.035156 458.683594 405.605469 C 465.097656 440.03125 495.160156 451.695312 521.0625 467.351562 C 525.347656 469.9375 530.519531 471.152344 534.707031 475.570312 C 512.070312 472.136719 490.859375 466.457031 469.675781 460.53125 Z M 586.203125 467.242188 C 578.914062 464.410156 580.804688 460.554688 584.875 455.507812 C 587.050781 459.921875 586.867188 463.296875 586.203125 467.242188 Z M 586.203125 467.242188 " fill-opacity="1" fill-rule="nonzero"/></g></svg>