<svg xmlns="http://www.w3.org/2000/svg" xmlns:xlink="http://www.w3.org/1999/xlink" width="1024" zoomAndPan="magnify" viewBox="0 0 768 767.999994" height="1024" preserveAspectRatio="xMidYMid meet" version="1.0"><defs><clipPath id="ee19dfb288"><path d="M 85.351562 85.691406 L 682.351562 85.691406 L 682.351562 681.941406 L 85.351562 681.941406 Z M 85.351562 85.691406 " clip-rule="nonzero"/></clipPath></defs><g clip-path="url(#ee19dfb288)"><path fill="#9d84b7" d="M 541.644531 227.003906 C 521.226562 206.585938 497.445312 190.550781 470.96875 179.355469 C 443.554688 167.761719 414.4375 161.878906 384.417969 161.878906 C 354.398438 161.878906 325.28125 167.761719 297.867188 179.355469 C 271.390625 190.554688 247.609375 206.585938 227.191406 227.003906 C 206.773438 247.425781 190.738281 271.203125 179.542969 297.679688 C 167.945312 325.097656 162.066406 354.214844 162.066406 384.230469 C 162.066406 414.25 167.945312 443.367188 179.542969 470.785156 C 190.742188 497.257812 206.773438 521.039062 227.191406 541.460938 C 247.609375 561.878906 271.390625 577.914062 297.867188 589.109375 C 325.28125 600.703125 354.398438 606.585938 384.417969 606.585938 C 414.4375 606.585938 443.554688 600.703125 470.96875 589.109375 C 497.445312 577.910156 521.226562 561.878906 541.644531 541.460938 C 562.066406 521.039062 578.097656 497.257812 589.296875 470.785156 C 600.890625 443.367188 606.773438 414.25 606.773438 384.230469 C 606.773438 354.214844 600.890625 325.097656 589.296875 297.679688 C 578.09375 271.203125 562.066406 247.425781 541.644531 227.003906 Z M 585.433594 469.148438 C 574.449219 495.125 558.714844 518.457031 538.683594 538.496094 C 518.648438 558.53125 495.316406 574.261719 469.335938 585.25 C 442.4375 596.625 413.871094 602.394531 384.417969 602.394531 C 354.964844 602.394531 326.394531 596.625 299.503906 585.25 C 273.523438 574.261719 250.191406 558.527344 230.15625 538.496094 C 210.117188 518.460938 194.390625 495.128906 183.402344 469.148438 C 172.023438 442.253906 166.257812 413.683594 166.257812 384.230469 C 166.257812 354.78125 172.023438 326.207031 183.402344 299.316406 C 194.390625 273.339844 210.121094 250.007812 230.15625 229.96875 C 250.1875 209.929688 273.519531 194.203125 299.503906 183.214844 C 326.398438 171.839844 354.964844 166.070312 384.417969 166.070312 C 413.871094 166.070312 442.441406 171.839844 469.335938 183.214844 C 495.3125 194.203125 518.644531 209.933594 538.683594 229.96875 C 558.71875 250 574.449219 273.335938 585.433594 299.316406 C 596.8125 326.210938 602.578125 354.78125 602.578125 384.230469 C 602.578125 413.683594 596.8125 442.257812 585.433594 469.148438 Z M 536.195312 232.53125 C 516.484375 212.820312 493.53125 197.34375 467.96875 186.53125 C 441.503906 175.339844 413.394531 169.664062 384.417969 169.664062 C 355.445312 169.664062 327.332031 175.339844 300.867188 186.53125 C 275.3125 197.34375 252.355469 212.820312 232.640625 232.53125 C 212.929688 252.242188 197.453125 275.195312 186.640625 300.757812 C 186.628906 300.792969 186.613281 300.824219 186.601562 300.859375 C 186.179688 301.082031 185.828125 301.433594 185.632812 301.898438 C 185.433594 302.359375 185.421875 302.871094 185.570312 303.34375 C 175.390625 328.308594 170.085938 354.703125 169.785156 381.882812 C 169.214844 382.265625 168.839844 382.921875 168.839844 383.652344 C 168.839844 384.386719 169.210938 385.023438 169.777344 385.402344 C 169.914062 412.417969 174.980469 438.667969 184.863281 463.527344 C 184.445312 464.101562 184.320312 464.875 184.605469 465.582031 C 184.816406 466.097656 185.226562 466.507812 185.738281 466.726562 C 185.890625 466.789062 186.054688 466.832031 186.21875 466.855469 C 186.359375 467.191406 186.496094 467.53125 186.636719 467.867188 C 196.949219 492.25 211.519531 514.265625 229.953125 533.355469 C 229.828125 534.023438 230.023438 534.742188 230.539062 535.257812 C 231.042969 535.761719 231.734375 535.949219 232.390625 535.839844 C 232.472656 535.921875 232.558594 536.011719 232.644531 536.09375 C 251.773438 555.222656 273.953125 570.359375 298.605469 581.121094 C 298.828125 581.511719 299.171875 581.84375 299.617188 582.035156 C 299.875 582.144531 300.15625 582.199219 300.4375 582.199219 C 300.613281 582.199219 300.785156 582.171875 300.957031 582.125 C 327.394531 593.296875 355.476562 598.960938 384.421875 598.960938 C 413.367188 598.960938 441.507812 593.285156 467.972656 582.09375 C 493.53125 571.28125 516.484375 555.804688 536.199219 536.09375 C 555.910156 516.382812 571.386719 493.429688 582.199219 467.867188 C 593.390625 441.402344 599.066406 413.289062 599.066406 384.316406 C 599.066406 355.339844 593.390625 327.230469 582.199219 300.765625 C 571.386719 275.207031 555.910156 252.253906 536.199219 232.539062 Z M 534.417969 234.308594 C 534.503906 234.390625 534.582031 234.476562 534.667969 234.554688 C 533.839844 233.882812 532.632812 233.925781 531.867188 234.6875 C 531.859375 234.695312 530.964844 235.417969 526.476562 233.703125 C 523.058594 232.398438 518.761719 230.15625 514.609375 227.988281 C 507.738281 224.40625 501.246094 221.019531 496.878906 220.640625 C 495.78125 220.546875 494.789062 220.695312 493.886719 221.019531 C 493.925781 220.007812 493.777344 218.933594 493.355469 217.816406 C 491.636719 213.269531 485.417969 208.214844 478.835938 202.867188 C 475.269531 199.96875 471.898438 197.230469 469.570312 194.796875 C 466.535156 191.636719 466.890625 190.652344 466.894531 190.644531 C 467.109375 190.128906 467.097656 189.546875 466.882812 189.03125 C 466.835938 188.921875 466.777344 188.820312 466.714844 188.71875 C 466.808594 188.757812 466.898438 188.796875 466.992188 188.832031 C 492.253906 199.519531 514.9375 214.808594 534.417969 234.292969 Z M 575.265625 324.632812 C 576.007812 331.789062 576.84375 339.910156 575.3125 343.308594 C 573.941406 346.34375 569.484375 346.125 569.445312 346.125 C 569.195312 346.105469 568.953125 346.140625 568.726562 346.207031 C 566.257812 333.601562 562.492188 321.289062 557.445312 309.355469 C 553.496094 300.015625 548.832031 291.070312 543.484375 282.566406 C 544.285156 281.757812 546.894531 279.410156 549.144531 280.574219 C 552.289062 282.203125 556.933594 287.75 561.425781 293.117188 C 566.71875 299.433594 571.21875 304.8125 575.109375 306.703125 C 573.816406 310.582031 574.484375 317.046875 575.269531 324.625 Z M 574.085938 465.691406 C 570.425781 467.523438 566.328125 472.566406 561.523438 478.476562 C 556.984375 484.0625 551.835938 490.398438 548.347656 491.71875 C 545.234375 492.894531 542.238281 489.589844 542.210938 489.558594 C 541.449219 488.6875 540.125 488.597656 539.257812 489.359375 C 538.992188 489.589844 538.808594 489.875 538.691406 490.179688 C 538.617188 490.195312 538.546875 490.21875 538.480469 490.242188 C 545.964844 479.523438 552.304688 468.046875 557.445312 455.898438 C 561.5625 446.164062 564.824219 436.175781 567.230469 425.984375 C 567.582031 426.1875 568 426.296875 568.445312 426.269531 C 568.492188 426.265625 573.300781 425.988281 574.207031 428.855469 C 575.277344 432.234375 574.640625 439.441406 574.023438 446.40625 C 573.300781 454.613281 572.679688 461.597656 574.089844 465.691406 Z M 490.039062 542.644531 C 489.667969 541.546875 488.480469 540.960938 487.382812 541.328125 C 487.050781 541.441406 486.769531 541.636719 486.542969 541.875 C 485.847656 541.757812 485.109375 541.992188 484.613281 542.5625 C 483.859375 543.433594 483.953125 544.757812 484.824219 545.515625 C 484.863281 545.550781 488.464844 548.746094 487.074219 551.421875 C 485.445312 554.566406 479.898438 559.210938 474.53125 563.707031 C 468.214844 568.996094 462.835938 573.5 460.945312 577.386719 C 457.066406 576.09375 450.597656 576.765625 443.023438 577.546875 C 435.859375 578.289062 427.742188 579.128906 424.34375 577.59375 C 421.304688 576.222656 421.53125 571.761719 421.53125 571.730469 C 421.609375 570.578125 420.734375 569.574219 419.582031 569.5 C 419.226562 569.472656 418.898438 569.546875 418.59375 569.679688 C 417.996094 569.304688 417.230469 569.238281 416.550781 569.578125 C 415.519531 570.09375 415.097656 571.351562 415.609375 572.386719 C 415.632812 572.429688 417.742188 576.761719 415.429688 578.710938 C 412.71875 580.988281 405.820312 583.160156 399.144531 585.257812 C 391.285156 587.726562 384.59375 589.832031 381.355469 592.699219 C 378.261719 590.015625 372.03125 588.15625 364.734375 585.980469 C 357.832031 583.921875 350.011719 581.59375 347.457031 578.875 C 345.175781 576.449219 347.089844 572.414062 347.105469 572.382812 C 347.621094 571.347656 347.195312 570.089844 346.160156 569.574219 C 345.84375 569.417969 345.511719 569.359375 345.183594 569.363281 C 344.773438 568.789062 344.09375 568.429688 343.328125 568.488281 C 342.175781 568.574219 341.308594 569.570312 341.386719 570.722656 C 341.386719 570.773438 341.679688 575.578125 338.800781 576.492188 C 335.421875 577.558594 328.21875 576.921875 321.25 576.308594 C 313.042969 575.582031 306.058594 574.960938 301.96875 576.375 C 300.136719 572.714844 295.09375 568.613281 289.183594 563.8125 C 283.59375 559.269531 277.261719 554.125 275.9375 550.636719 C 274.761719 547.519531 278.070312 544.523438 278.097656 544.5 C 278.96875 543.734375 279.058594 542.410156 278.300781 541.539062 C 278.070312 541.273438 277.785156 541.089844 277.476562 540.972656 C 277.320312 540.28125 276.820312 539.6875 276.097656 539.449219 C 275 539.082031 273.8125 539.683594 273.453125 540.785156 C 273.4375 540.832031 271.84375 545.371094 268.859375 545.117188 C 265.328125 544.816406 258.914062 541.46875 252.710938 538.230469 C 245.410156 534.421875 239.1875 531.175781 234.871094 530.917969 C 234.582031 526.832031 231.488281 521.117188 227.867188 514.417969 C 224.441406 508.082031 220.558594 500.90625 220.675781 497.175781 C 220.78125 493.847656 224.984375 492.34375 225.019531 492.335938 C 226.117188 491.964844 226.703125 490.773438 226.335938 489.675781 C 226.222656 489.34375 226.03125 489.0625 225.792969 488.839844 C 225.910156 488.140625 225.679688 487.40625 225.105469 486.90625 C 224.230469 486.152344 222.90625 486.242188 222.148438 487.113281 C 222.113281 487.152344 218.921875 490.757812 216.242188 489.367188 C 213.097656 487.734375 208.453125 482.191406 203.960938 476.824219 C 198.667969 470.507812 194.167969 465.128906 190.277344 463.238281 C 191.574219 459.355469 190.902344 452.886719 190.117188 445.3125 C 189.375 438.152344 188.539062 430.035156 190.070312 426.632812 C 191.441406 423.59375 195.902344 423.820312 195.9375 423.820312 C 197.09375 423.894531 198.089844 423.023438 198.171875 421.871094 C 198.195312 421.519531 198.121094 421.1875 197.988281 420.890625 C 198.363281 420.292969 198.429688 419.523438 198.09375 418.84375 C 197.578125 417.8125 196.320312 417.394531 195.285156 417.90625 C 195.246094 417.925781 190.914062 420.035156 188.964844 417.726562 C 186.679688 415.011719 184.511719 408.113281 182.417969 401.441406 C 179.949219 393.582031 177.84375 386.890625 174.976562 383.648438 C 177.660156 380.554688 179.515625 374.328125 181.691406 367.027344 C 183.75 360.128906 186.082031 352.304688 188.796875 349.753906 C 191.222656 347.472656 195.261719 349.382812 195.289062 349.398438 C 196.324219 349.914062 197.582031 349.484375 198.097656 348.449219 C 198.253906 348.136719 198.3125 347.800781 198.308594 347.472656 C 198.886719 347.0625 199.246094 346.371094 199.1875 345.613281 C 199.101562 344.460938 198.113281 343.59375 196.941406 343.679688 C 196.894531 343.683594 192.09375 343.960938 191.179688 341.09375 C 190.109375 337.714844 190.746094 330.507812 191.363281 323.542969 C 192.089844 315.332031 192.707031 308.351562 191.296875 304.257812 C 194.957031 302.425781 199.054688 297.382812 203.859375 291.472656 C 208.398438 285.886719 213.546875 279.550781 217.035156 278.230469 C 220.148438 277.050781 223.144531 280.359375 223.171875 280.390625 C 223.789062 281.09375 224.769531 281.277344 225.582031 280.921875 C 219.792969 289.921875 214.777344 299.421875 210.570312 309.371094 C 200.753906 332.578125 195.777344 357.230469 195.777344 382.644531 C 195.777344 408.054688 200.753906 432.703125 210.570312 455.914062 C 220.050781 478.328125 233.621094 498.457031 250.910156 515.746094 C 268.195312 533.035156 288.328125 546.601562 310.742188 556.085938 C 333.949219 565.902344 358.601562 570.878906 384.011719 570.878906 C 409.421875 570.878906 434.070312 565.902344 457.28125 556.085938 C 479.695312 546.601562 499.828125 533.035156 517.113281 515.746094 C 524.449219 508.410156 531.113281 500.5625 537.082031 492.246094 C 537.085938 493.117188 537.628906 493.925781 538.5 494.222656 C 538.546875 494.242188 543.101562 495.8125 542.84375 498.820312 C 542.542969 502.347656 539.195312 508.761719 535.957031 514.964844 C 532.148438 522.269531 528.902344 528.488281 528.640625 532.808594 C 524.558594 533.097656 518.839844 536.191406 512.136719 539.8125 C 505.898438 543.1875 498.835938 547.003906 495.066406 547.003906 C 495.011719 547.003906 494.953125 547.003906 494.898438 547.003906 C 491.570312 546.902344 490.0625 542.695312 490.054688 542.664062 Z M 172.304688 387.039062 C 172.78125 387.707031 173.363281 388.722656 174.050781 390.257812 C 175.542969 393.59375 176.996094 398.214844 178.402344 402.683594 C 180.722656 410.078125 182.921875 417.0625 185.742188 420.414062 C 186.449219 421.253906 187.261719 421.851562 188.125 422.257812 C 187.382812 422.945312 186.726562 423.808594 186.234375 424.898438 C 184.238281 429.328125 185.0625 437.296875 185.933594 445.730469 C 186.40625 450.304688 186.851562 454.625 186.785156 457.992188 C 186.761719 459.257812 186.660156 460.191406 186.535156 460.882812 C 177.402344 437.332031 172.625 412.535156 172.304688 387.035156 Z M 187.339844 305.683594 C 187.59375 306.445312 187.84375 307.761719 187.910156 310.007812 C 188.011719 313.664062 187.585938 318.488281 187.171875 323.160156 C 186.488281 330.878906 185.84375 338.171875 187.171875 342.347656 C 187.5 343.398438 188.03125 344.257812 188.675781 344.960938 C 187.722656 345.3125 186.785156 345.863281 185.914062 346.679688 C 182.371094 350.007812 180.082031 357.683594 177.660156 365.8125 C 176.347656 370.21875 175.105469 374.375 173.753906 377.464844 C 173.207031 378.710938 172.730469 379.570312 172.332031 380.171875 C 172.816406 354.421875 177.859375 329.40625 187.339844 305.679688 Z M 232.535156 236.214844 C 232.621094 236.824219 232.554688 238.214844 231.421875 241.179688 C 230.117188 244.59375 227.875 248.890625 225.707031 253.046875 C 222.125 259.914062 218.734375 266.40625 218.363281 270.773438 C 218.269531 271.871094 218.421875 272.863281 218.746094 273.765625 C 217.734375 273.726562 216.65625 273.875 215.542969 274.296875 C 210.992188 276.015625 205.941406 282.234375 200.59375 288.820312 C 197.695312 292.386719 194.957031 295.757812 192.523438 298.085938 C 191.132812 299.421875 190.164062 300.101562 189.515625 300.4375 C 199.816406 276.515625 214.28125 254.925781 232.535156 236.214844 Z M 553.582031 310.992188 C 562.90625 333.039062 567.761719 356.421875 568.03125 380.527344 C 567.652344 380.152344 567.132812 379.921875 566.558594 379.921875 C 566.019531 379.921875 564.019531 379.335938 560.917969 371.765625 C 558.632812 366.195312 556.429688 358.546875 554.300781 351.148438 C 550.839844 339.125 547.570312 327.765625 543.476562 322.464844 C 541.566406 319.988281 539.042969 318.949219 536.496094 318.726562 C 537.957031 316.734375 538.699219 314.441406 538.664062 311.941406 C 538.574219 304.640625 531.875 292.90625 525.394531 281.558594 C 521.644531 274.996094 518.105469 268.792969 515.917969 263.675781 C 513.082031 257.03125 513.871094 255.222656 514.339844 254.75 C 514.734375 254.355469 514.929688 253.832031 514.933594 253.308594 C 531.449219 270.027344 544.453125 289.421875 553.574219 310.992188 Z M 515.5625 511.300781 C 515.632812 510.691406 515.441406 510.054688 514.972656 509.578125 C 514.589844 509.199219 513.59375 507.371094 516.75 499.820312 C 519.070312 494.265625 522.925781 487.300781 526.648438 480.566406 C 532.699219 469.617188 538.421875 459.277344 539.277344 452.628906 C 539.675781 449.527344 538.628906 447.011719 536.988281 445.050781 C 539.429688 444.667969 541.574219 443.574219 543.3125 441.789062 C 548.410156 436.558594 551.96875 423.523438 555.417969 410.921875 C 557.40625 403.628906 559.289062 396.742188 561.363281 391.582031 C 564.058594 384.875 565.894531 384.152344 566.558594 384.152344 C 567.136719 384.152344 567.65625 383.910156 568.035156 383.523438 C 567.917969 408.054688 563.058594 431.847656 553.574219 454.261719 C 544.570312 475.554688 531.777344 494.726562 515.558594 511.300781 Z M 343.867188 198.675781 C 332.554688 201.132812 321.488281 204.640625 310.726562 209.195312 C 300.3125 213.597656 290.390625 218.890625 281.015625 225.027344 C 280.898438 224.804688 280.746094 224.597656 280.546875 224.425781 C 280.507812 224.394531 276.902344 221.199219 278.296875 218.519531 C 279.925781 215.375 285.472656 210.730469 290.835938 206.238281 C 297.15625 200.949219 302.53125 196.445312 304.421875 192.554688 C 308.304688 193.851562 314.773438 193.179688 322.351562 192.394531 C 329.511719 191.652344 337.632812 190.816406 341.03125 192.351562 C 344.070312 193.722656 343.847656 198.179688 343.84375 198.214844 C 343.832031 198.375 343.84375 198.523438 343.871094 198.675781 Z M 349.941406 191.238281 C 352.652344 188.953125 359.550781 186.789062 366.226562 184.691406 C 374.085938 182.222656 380.777344 180.117188 384.015625 177.25 C 387.109375 179.933594 393.335938 181.789062 400.636719 183.964844 C 407.535156 186.023438 415.359375 188.355469 417.914062 191.070312 C 420.042969 193.339844 418.515625 197.007812 418.292969 197.507812 C 407.0625 195.441406 395.609375 194.394531 384 194.394531 C 372.386719 194.394531 360.953125 195.433594 349.734375 197.496094 C 349.507812 197.015625 347.773438 193.0625 349.945312 191.234375 Z M 384.683594 560.320312 C 380.332031 556.003906 369.640625 553.085938 356.910156 549.613281 C 345.382812 546.464844 332.320312 542.898438 327.863281 538.554688 C 326.121094 536.851562 325.433594 534.578125 325.820312 531.785156 C 326.054688 530.101562 326.621094 528.695312 326.910156 528.058594 C 345.078125 535.195312 364.257812 538.8125 383.996094 538.8125 C 403.730469 538.8125 423.742188 535.039062 442.257812 527.589844 C 442.277344 527.625 442.289062 527.664062 442.304688 527.703125 C 442.316406 527.722656 443.378906 529.691406 443.75 532.082031 C 444.195312 534.917969 443.523438 536.988281 441.703125 538.394531 C 437.027344 542 425.53125 545.308594 414.417969 548.511719 C 399.472656 552.8125 388.914062 556.050781 384.675781 560.320312 Z M 312.363281 213.050781 C 334.570312 203.65625 358.136719 198.796875 382.421875 198.597656 C 381.980469 198.980469 381.691406 199.542969 381.691406 200.175781 C 381.691406 200.71875 381.101562 202.71875 373.53125 205.820312 C 367.960938 208.101562 360.316406 210.304688 352.914062 212.433594 C 340.894531 215.894531 329.535156 219.164062 324.230469 223.257812 C 321.753906 225.167969 320.71875 227.691406 320.492188 230.242188 C 318.496094 228.785156 316.203125 228.046875 313.714844 228.066406 C 306.410156 228.15625 294.675781 234.855469 283.328125 241.335938 C 276.765625 245.085938 270.5625 248.628906 265.445312 250.8125 C 258.796875 253.648438 256.992188 252.859375 256.523438 252.390625 C 255.976562 251.847656 255.199219 251.6875 254.492188 251.875 C 271.257812 235.269531 290.714844 222.207031 312.363281 213.050781 Z M 443.191406 242.433594 C 461.296875 250.09375 477.558594 261.058594 491.527344 275.023438 C 505.496094 288.992188 516.457031 305.25 524.113281 323.359375 C 526.59375 329.214844 528.683594 335.183594 530.394531 341.246094 C 530.164062 341.035156 529.863281 340.910156 529.539062 340.910156 L 472.261719 340.910156 L 493.351562 304.042969 C 493.574219 303.65625 493.574219 303.175781 493.351562 302.792969 C 493.125 302.402344 492.707031 302.164062 492.265625 302.164062 L 441.953125 302.164062 L 455.964844 276.359375 C 456.179688 275.972656 456.167969 275.496094 455.941406 275.121094 C 455.714844 274.742188 455.304688 274.503906 454.859375 274.503906 L 418.222656 274.503906 L 385.148438 230.5 C 405.269531 230.648438 424.796875 234.65625 443.191406 242.433594 Z M 524.113281 441.746094 C 516.457031 459.855469 505.488281 476.117188 491.527344 490.082031 C 477.558594 504.050781 461.296875 515.011719 443.191406 522.675781 C 425.574219 530.125 406.929688 534.125 387.714844 534.582031 L 417.871094 494.117188 L 452.890625 494.117188 C 453.316406 494.117188 453.714844 493.898438 453.949219 493.535156 C 454.183594 493.175781 454.214844 492.722656 454.035156 492.332031 L 442.109375 466.457031 L 492.339844 466.457031 C 492.789062 466.457031 493.203125 466.21875 493.425781 465.828125 C 493.652344 465.441406 493.652344 464.960938 493.425781 464.574219 L 471.394531 426.058594 L 529.613281 426.058594 C 529.660156 426.058594 529.707031 426.054688 529.753906 426.050781 C 528.167969 431.363281 526.292969 436.601562 524.121094 441.75 Z M 324.804688 522.675781 C 306.695312 515.015625 290.433594 504.050781 276.46875 490.082031 C 262.5 476.117188 251.539062 459.855469 243.875 441.746094 C 241.695312 436.59375 239.824219 431.355469 238.238281 426.035156 C 238.308594 426.046875 238.378906 426.054688 238.449219 426.054688 L 296.53125 426.054688 L 274.496094 464.570312 C 274.273438 464.960938 274.273438 465.4375 274.496094 465.824219 C 274.722656 466.214844 275.140625 466.453125 275.582031 466.453125 L 325.894531 466.453125 L 313.96875 492.328125 C 313.789062 492.71875 313.820312 493.171875 314.050781 493.53125 C 314.28125 493.894531 314.679688 494.113281 315.113281 494.113281 L 350.046875 494.113281 L 380.207031 534.578125 C 361.015625 534.109375 342.390625 530.113281 324.800781 522.671875 Z M 237.222656 342.648438 C 237.261719 342.746094 237.3125 342.832031 237.375 342.921875 L 267.769531 383.703125 L 237.59375 423.851562 C 233.832031 410.496094 231.929688 396.667969 231.929688 382.554688 C 231.929688 368.441406 233.710938 355.570312 237.222656 342.648438 Z M 384.03125 233.210938 L 415.074219 274.507812 L 352.992188 274.507812 Z M 383.996094 534.625 C 383.789062 534.625 383.582031 534.617188 383.375 534.617188 L 353.1875 494.117188 L 414.730469 494.117188 L 384.542969 534.617188 C 384.359375 534.617188 384.179688 534.625 383.996094 534.625 Z M 301.1875 343.429688 L 343.804688 343.429688 L 335.160156 358.539062 C 334.910156 358.636719 334.695312 358.800781 334.546875 359.03125 C 334.375 359.296875 334.316406 359.617188 334.371094 359.917969 L 321.828125 381.84375 L 300.433594 344.4375 L 301.191406 343.429688 Z M 467.46875 344.222656 L 446.019531 381.722656 L 433.488281 359.824219 C 433.515625 359.550781 433.460938 359.269531 433.304688 359.03125 C 433.175781 358.824219 432.988281 358.675781 432.773438 358.574219 L 424.109375 343.433594 L 466.867188 343.433594 L 467.460938 344.226562 Z M 437.214844 463.941406 L 401.878906 463.941406 L 421.976562 428.804688 L 437.808594 463.148438 Z M 330.15625 463.214844 L 345.914062 429.023438 L 365.890625 463.941406 L 330.695312 463.941406 L 330.152344 463.214844 Z M 348.316406 343.429688 L 356.476562 358.441406 L 338.105469 358.441406 L 346.695312 343.429688 Z M 421.214844 343.429688 L 429.804688 358.441406 L 411.371094 358.441406 L 419.53125 343.429688 Z M 390.710938 360.957031 L 398.214844 377.246094 L 369.78125 377.246094 L 377.285156 360.957031 Z M 378.445312 358.441406 L 384 346.390625 L 389.554688 358.441406 Z M 409.71875 405.085938 L 400.28125 405.085938 L 406.949219 396.195312 L 410.386719 403.648438 Z M 397.136719 405.085938 L 386.039062 405.085938 L 399.566406 380.179688 L 405.75 393.597656 L 397.132812 405.085938 Z M 357.539062 403.804688 L 360.992188 396.3125 L 367.574219 405.085938 L 358.140625 405.085938 L 357.542969 403.804688 Z M 362.1875 393.714844 L 368.363281 380.320312 L 381.816406 405.085938 L 370.71875 405.085938 L 362.191406 393.71875 Z M 365.851562 379.753906 L 360.472656 391.429688 L 351.722656 379.753906 L 365.855469 379.753906 Z M 350.78125 377.238281 L 358.152344 361.523438 L 366.691406 377.238281 Z M 370.917969 379.753906 L 396.941406 379.753906 L 383.929688 403.707031 Z M 395.25 407.601562 L 383.925781 422.703125 L 372.597656 407.601562 Z M 402.140625 379.753906 L 416.132812 379.753906 L 407.46875 391.308594 L 402.144531 379.753906 Z M 401.164062 377.238281 L 409.78125 361.382812 L 417.214844 377.238281 Z M 399.753906 374.570312 L 393.476562 360.957031 L 407.148438 360.957031 Z M 368.175781 374.710938 L 360.703125 360.953125 L 374.515625 360.953125 L 368.179688 374.710938 Z M 346.578125 380.277344 L 337.578125 360.957031 L 355.636719 360.957031 Z M 349.207031 380.601562 L 359.273438 394.027344 L 356.144531 400.820312 L 347.960938 383.253906 L 349.203125 380.605469 Z M 354.765625 403.8125 L 354.179688 405.085938 L 337.730469 405.085938 L 346.574219 386.21875 L 354.769531 403.808594 Z M 353.015625 407.601562 L 345.675781 423.53125 L 336.5625 407.601562 L 353.019531 407.601562 Z M 355.789062 407.601562 L 356.53125 407.601562 L 363.953125 423.539062 L 348.4375 423.539062 L 355.785156 407.601562 Z M 359.304688 407.601562 L 369.453125 407.601562 L 381.410156 423.539062 L 366.730469 423.539062 Z M 399.945312 426.054688 L 383.925781 460.449219 L 367.902344 426.054688 Z M 386.4375 423.539062 L 398.394531 407.601562 L 408.542969 407.601562 L 401.121094 423.539062 Z M 411.316406 407.601562 L 412.207031 407.601562 L 419.550781 423.539062 L 403.894531 423.539062 Z M 414.976562 407.601562 L 431.207031 407.601562 L 422.222656 423.316406 Z M 413.816406 405.085938 L 413.160156 403.652344 L 421.355469 386.0625 L 430.269531 405.082031 L 413.820312 405.082031 Z M 411.773438 400.660156 L 408.660156 393.90625 L 418.730469 380.480469 L 419.953125 383.097656 L 411.769531 400.660156 Z M 412.355469 360.953125 L 430.269531 360.953125 L 421.339844 380.125 Z M 409.9375 355.804688 L 404.132812 343.421875 L 416.667969 343.421875 Z M 408.394531 358.4375 L 392.316406 358.4375 L 385.394531 343.421875 L 401.359375 343.421875 Z M 367.808594 340.910156 L 383.996094 306.382812 L 400.179688 340.910156 Z M 382.589844 343.421875 L 375.667969 358.4375 L 359.589844 358.4375 L 366.628906 343.421875 Z M 357.980469 355.949219 L 351.175781 343.421875 L 363.851562 343.421875 Z M 335.636719 362.753906 L 345.183594 383.246094 L 335.019531 404.917969 L 323.265625 384.371094 L 335.632812 362.753906 Z M 342.78125 423.539062 L 300.859375 423.539062 L 321.820312 386.902344 Z M 344.21875 426.054688 L 344.378906 426.335938 L 328.4375 460.914062 L 302.457031 426.054688 Z M 347.207031 426.214844 L 347.277344 426.054688 L 365.121094 426.054688 L 382.769531 463.9375 L 368.785156 463.9375 Z M 397.539062 466.453125 L 383.882812 490.320312 L 370.222656 466.453125 Z M 385.078125 463.9375 L 402.726562 426.054688 L 420.652344 426.054688 L 398.980469 463.9375 Z M 423.511719 426.121094 L 423.550781 426.058594 L 465.449219 426.058594 L 439.515625 460.851562 Z M 424.988281 423.542969 L 446.019531 386.78125 L 467.050781 423.542969 Z M 432.867188 404.707031 L 422.738281 383.097656 L 432.238281 362.695312 L 444.570312 384.25 L 432.863281 404.707031 Z M 422.679688 340.914062 L 421.769531 339.320312 L 439.394531 306.867188 L 464.984375 340.914062 Z M 420.296875 336.753906 L 401.949219 304.679688 L 437.714844 304.679688 L 420.292969 336.753906 Z M 418.882812 339.351562 L 418.039062 340.914062 L 402.960938 340.914062 L 385.972656 304.679688 L 399.046875 304.679688 L 418.878906 339.347656 Z M 370.300781 302.171875 L 383.957031 278.300781 L 397.613281 302.171875 Z M 382.015625 304.6875 L 365.03125 340.917969 L 349.808594 340.917969 L 348.992188 339.410156 L 368.859375 304.6875 Z M 347.582031 336.8125 L 330.203125 304.820312 L 330.304688 304.6875 L 365.960938 304.6875 Z M 346.117188 339.378906 L 345.238281 340.914062 L 303.074219 340.914062 L 328.542969 307.023438 L 346.117188 339.375 Z M 320.375 384.375 L 299.105469 421.554688 L 270.90625 383.710938 L 298.777344 346.625 L 320.371094 384.375 Z M 297.453125 423.542969 L 240.964844 423.542969 L 269.328125 385.808594 Z M 327.246094 463.523438 L 327.050781 463.941406 L 277.75 463.941406 L 299.378906 426.136719 Z M 329.433594 466.457031 L 348.171875 491.601562 L 317.074219 491.601562 L 328.660156 466.457031 Z M 332.566406 466.457031 L 367.328125 466.457031 L 381.714844 491.601562 L 351.308594 491.601562 L 332.574219 466.457031 Z M 386.050781 491.601562 L 400.4375 466.457031 L 435.339844 466.457031 L 416.601562 491.601562 Z M 438.472656 466.457031 L 439.324219 466.457031 L 450.910156 491.601562 L 419.730469 491.601562 L 438.46875 466.457031 Z M 440.710938 463.457031 L 468.527344 426.136719 L 490.15625 463.941406 L 440.933594 463.941406 Z M 468.800781 421.554688 L 447.460938 384.25 L 469.109375 346.414062 L 497.074219 383.621094 Z M 498.648438 385.714844 L 527.082031 423.546875 L 470.449219 423.546875 L 498.644531 385.714844 Z M 470.472656 344.035156 L 470.820312 343.429688 L 527.027344 343.429688 L 498.644531 381.515625 L 470.476562 344.035156 Z M 468.125 340.914062 L 440.890625 304.683594 L 490.085938 304.683594 L 469.359375 340.914062 Z M 439 302.167969 L 420.105469 277.023438 L 452.738281 277.023438 L 439.082031 302.167969 Z M 435.855469 302.167969 L 400.503906 302.167969 L 386.117188 277.023438 L 416.953125 277.023438 Z M 381.78125 277.023438 L 367.394531 302.167969 L 332.191406 302.167969 L 351.089844 277.023438 Z M 329.042969 302.167969 L 328.761719 302.167969 L 315.105469 277.023438 L 347.945312 277.023438 L 329.046875 302.167969 Z M 299.921875 340.914062 L 298.398438 340.914062 L 277.675781 304.683594 L 327.152344 304.683594 Z M 297.410156 344.25 L 269.328125 381.609375 L 240.875 343.421875 L 296.941406 343.421875 L 297.410156 344.246094 Z M 530.402344 423.777344 L 500.207031 383.609375 L 530.53125 342.921875 C 530.621094 342.804688 530.683594 342.667969 530.726562 342.535156 C 534.253906 355.496094 536.050781 368.890625 536.050781 382.558594 C 536.050781 396.230469 534.15625 410.453125 530.402344 423.78125 Z M 349.832031 274.503906 L 312.988281 274.503906 C 312.542969 274.503906 312.132812 274.738281 311.90625 275.121094 C 311.679688 275.5 311.671875 275.976562 311.882812 276.359375 L 325.894531 302.164062 L 275.503906 302.164062 C 275.054688 302.164062 274.640625 302.402344 274.417969 302.792969 C 274.191406 303.175781 274.191406 303.660156 274.417969 304.042969 L 295.507812 340.910156 L 238.375 340.910156 C 238.09375 340.910156 237.832031 341.003906 237.617188 341.167969 C 239.324219 335.132812 241.410156 329.191406 243.875 323.363281 C 251.535156 305.257812 262.5 288.996094 276.46875 275.027344 C 290.433594 261.058594 306.695312 250.097656 324.804688 242.441406 C 343.222656 234.652344 362.769531 230.644531 382.917969 230.503906 L 349.84375 274.507812 Z M 258.15625 257.042969 C 264.28125 257.03125 273.914062 251.53125 285.386719 244.980469 C 295.761719 239.058594 307.527344 232.339844 313.746094 232.261719 C 313.78125 232.261719 313.808594 232.261719 313.84375 232.261719 C 319.152344 232.261719 321.429688 237.824219 321.890625 239.128906 C 303.792969 246.972656 287.507812 258.039062 273.488281 272.058594 C 259.367188 286.179688 248.246094 302.582031 240.394531 320.824219 C 239.453125 320.527344 232.675781 318.195312 233.363281 312.867188 C 234.117188 307.015625 239.90625 296.546875 245.5 286.421875 C 252.402344 273.941406 258.183594 263.488281 258.152344 257.039062 Z M 234.9375 324.058594 C 236.582031 324.28125 237.957031 324.828125 238.613281 325.125 C 231.386719 343.394531 227.722656 362.695312 227.722656 382.554688 C 227.722656 402.417969 231.476562 422.164062 238.875 440.621094 C 238.375 440.875 236.660156 441.675781 234.644531 441.992188 C 231.808594 442.4375 229.738281 441.765625 228.332031 439.941406 C 224.726562 435.269531 221.417969 423.773438 218.214844 412.65625 C 213.914062 397.714844 210.675781 387.152344 206.40625 382.914062 C 210.722656 378.566406 213.640625 367.875 217.113281 355.144531 C 220.261719 343.617188 223.828125 330.554688 228.171875 326.097656 C 229.875 324.355469 232.148438 323.667969 234.941406 324.050781 Z M 240.667969 444.902344 C 248.503906 462.898438 259.53125 479.089844 273.488281 493.046875 C 287.691406 507.25 304.210938 518.425781 322.585938 526.285156 C 322.375 526.972656 320.027344 534.066406 314.617188 533.355469 C 308.765625 532.601562 298.300781 526.8125 288.171875 521.214844 C 275.722656 514.332031 265.289062 508.5625 258.839844 508.5625 L 258.792969 508.5625 C 258.78125 502.4375 253.28125 492.804688 246.730469 481.332031 C 240.808594 470.957031 234.089844 459.191406 234.011719 452.972656 C 233.949219 447.835938 239.0625 445.503906 240.671875 444.902344 Z M 446.550781 525.769531 C 464.460938 517.9375 480.578125 506.941406 494.472656 493.046875 C 508.664062 478.855469 519.832031 462.359375 527.691406 444 C 527.78125 444.042969 527.871094 444.085938 527.972656 444.113281 C 528.292969 444.210938 535.832031 446.5 535.105469 452.101562 C 534.351562 457.953125 528.5625 468.417969 522.964844 478.546875 C 516.066406 491.027344 510.285156 501.480469 510.3125 507.929688 C 504.1875 507.941406 494.554688 513.441406 483.082031 519.992188 C 472.707031 525.914062 460.941406 532.636719 454.722656 532.710938 C 454.6875 532.710938 454.660156 532.710938 454.625 532.710938 C 449.207031 532.710938 446.945312 526.917969 446.550781 525.773438 Z M 533.535156 440.910156 C 531.417969 440.617188 529.730469 439.796875 529.476562 439.667969 C 536.625 421.488281 540.246094 402.296875 540.246094 382.550781 C 540.246094 362.808594 536.507812 342.996094 529.128906 324.558594 C 529.238281 324.523438 529.347656 324.480469 529.453125 324.425781 C 529.472656 324.414062 531.441406 323.351562 533.832031 322.980469 C 536.667969 322.535156 538.738281 323.207031 540.144531 325.03125 C 543.75 329.699219 547.058594 341.199219 550.261719 352.316406 C 554.5625 367.257812 557.800781 377.820312 562.070312 382.054688 C 557.753906 386.40625 554.835938 397.097656 551.363281 409.828125 C 548.214844 421.355469 544.648438 434.417969 540.304688 438.875 C 538.601562 440.617188 536.324219 441.304688 533.535156 440.917969 Z M 527.332031 320.230469 C 527.332031 320.230469 527.316406 320.234375 527.3125 320.238281 C 519.480469 302.230469 508.441406 286.023438 494.476562 272.058594 C 480.375 257.957031 463.988281 246.839844 445.769531 238.988281 C 445.800781 238.910156 445.84375 238.835938 445.867188 238.746094 C 445.964844 238.425781 448.253906 230.882812 453.855469 231.613281 C 459.707031 232.367188 470.175781 238.15625 480.300781 243.75 C 492.75 250.636719 503.183594 256.40625 509.632812 256.402344 L 509.679688 256.402344 C 509.691406 262.527344 515.191406 272.160156 521.742188 283.632812 C 527.664062 294.007812 534.386719 305.773438 534.460938 311.992188 C 534.535156 317.957031 527.621094 320.136719 527.332031 320.226562 Z M 442.664062 233.1875 C 442.382812 235.195312 441.628906 236.816406 441.441406 237.195312 C 423.164062 229.960938 403.851562 226.292969 383.984375 226.292969 C 364.113281 226.292969 344.574219 230.007812 326.199219 237.324219 C 326.191406 237.308594 326.1875 237.289062 326.175781 237.269531 C 326.164062 237.25 325.101562 235.28125 324.730469 232.890625 C 324.285156 230.050781 324.957031 227.984375 326.78125 226.578125 C 331.453125 222.972656 342.949219 219.664062 354.066406 216.460938 C 369.007812 212.160156 379.570312 208.921875 383.804688 204.652344 C 388.15625 208.96875 398.847656 211.882812 411.574219 215.359375 C 423.101562 218.507812 436.167969 222.074219 440.621094 226.417969 C 442.363281 228.121094 443.050781 230.394531 442.664062 233.183594 Z M 275.316406 227.289062 C 275.464844 227.734375 275.75 228.085938 276.109375 228.332031 C 267.152344 234.609375 258.722656 241.683594 250.882812 249.523438 C 242.398438 258.007812 234.808594 267.183594 228.160156 276.972656 C 227.941406 276.402344 227.488281 275.925781 226.863281 275.71875 C 226.816406 275.703125 222.273438 274.121094 222.53125 271.125 C 222.832031 267.59375 226.179688 261.183594 229.417969 254.976562 C 233.226562 247.675781 236.472656 241.453125 236.730469 237.136719 C 240.816406 236.847656 246.53125 233.753906 253.234375 230.132812 C 259.476562 226.757812 266.535156 222.9375 270.308594 222.9375 C 270.363281 222.9375 270.421875 222.9375 270.476562 222.9375 C 273.808594 223.042969 275.3125 227.25 275.320312 227.28125 Z M 252.976562 253.386719 C 252.800781 254.078125 252.976562 254.84375 253.515625 255.382812 C 253.898438 255.765625 254.894531 257.59375 251.738281 265.144531 C 249.417969 270.699219 245.566406 277.664062 241.84375 284.398438 C 235.789062 295.347656 230.066406 305.6875 229.210938 312.335938 C 228.8125 315.4375 229.863281 317.953125 231.5 319.914062 C 229.0625 320.296875 226.914062 321.390625 225.175781 323.175781 C 220.078125 328.402344 216.515625 341.441406 213.074219 354.042969 C 211.082031 361.335938 209.199219 368.222656 207.125 373.386719 C 204.429688 380.09375 202.59375 380.816406 201.929688 380.816406 C 201 380.816406 200.214844 381.453125 199.945312 382.304688 C 199.984375 357.570312 204.847656 333.582031 214.40625 310.996094 C 223.515625 289.460938 236.492188 270.089844 252.976562 253.390625 Z M 201.929688 385.046875 C 202.472656 385.046875 204.472656 385.632812 207.574219 393.203125 C 209.859375 398.773438 212.058594 406.421875 214.1875 413.820312 C 217.652344 425.839844 220.921875 437.199219 225.011719 442.503906 C 226.921875 444.976562 229.441406 446.015625 231.988281 446.246094 C 230.53125 448.238281 229.789062 450.53125 229.820312 453.027344 C 229.910156 460.328125 236.609375 472.0625 243.089844 483.410156 C 246.839844 489.972656 250.382812 496.179688 252.566406 501.292969 C 255.402344 507.9375 254.613281 509.746094 254.144531 510.214844 C 253.460938 510.898438 253.375 511.957031 253.84375 512.765625 C 236.941406 495.863281 223.675781 476.183594 214.40625 454.265625 C 204.9375 431.875 200.074219 408.105469 199.949219 383.601562 C 200.222656 384.4375 201 385.046875 201.929688 385.046875 Z M 257.136719 513.207031 C 257.519531 512.824219 259.351562 511.828125 266.898438 514.984375 C 272.453125 517.304688 279.417969 521.15625 286.152344 524.878906 C 297.101562 530.933594 307.441406 536.65625 314.089844 537.511719 C 314.539062 537.570312 314.976562 537.59375 315.398438 537.59375 C 317.910156 537.59375 319.992188 536.621094 321.671875 535.222656 C 322.054688 537.660156 323.148438 539.808594 324.933594 541.546875 C 330.164062 546.644531 343.199219 550.203125 355.800781 553.648438 C 363.09375 555.640625 369.980469 557.523438 375.140625 559.597656 C 381.847656 562.292969 382.570312 564.128906 382.570312 564.792969 C 382.570312 565.621094 383.078125 566.332031 383.785156 566.667969 C 359.011719 566.644531 334.980469 561.777344 312.351562 552.207031 C 290.777344 543.085938 271.378906 530.078125 254.65625 513.554688 C 255.453125 513.988281 256.46875 513.878906 257.136719 513.207031 Z M 386.800781 564.792969 C 386.800781 564.25 387.386719 562.25 394.957031 559.148438 C 400.527344 556.863281 408.175781 554.664062 415.574219 552.535156 C 427.59375 549.070312 438.957031 545.800781 444.257812 541.710938 C 446.734375 539.800781 447.769531 537.28125 447.996094 534.730469 C 449.949219 536.15625 452.191406 536.898438 454.625 536.898438 C 454.675781 536.898438 454.726562 536.898438 454.777344 536.898438 C 462.078125 536.804688 473.8125 530.109375 485.160156 523.625 C 491.722656 519.878906 497.929688 516.335938 503.042969 514.152344 C 509.6875 511.316406 511.496094 512.101562 511.964844 512.574219 C 512.445312 513.050781 513.101562 513.230469 513.730469 513.144531 C 496.914062 529.859375 477.371094 543.007812 455.617188 552.203125 C 433.429688 561.589844 409.894531 566.441406 385.628906 566.65625 C 386.316406 566.3125 386.796875 565.609375 386.796875 564.789062 Z M 511.351562 251.765625 C 510.96875 252.148438 509.136719 253.144531 501.589844 249.988281 C 496.039062 247.667969 489.074219 243.816406 482.339844 240.09375 C 471.390625 234.039062 461.046875 228.316406 454.398438 227.460938 C 451.296875 227.0625 448.78125 228.113281 446.820312 229.75 C 446.4375 227.3125 445.34375 225.164062 443.558594 223.421875 C 438.332031 218.320312 425.292969 214.761719 412.6875 211.320312 C 405.394531 209.328125 398.507812 207.445312 393.347656 205.371094 C 386.644531 202.675781 385.917969 200.839844 385.917969 200.175781 C 385.917969 199.515625 385.617188 198.976562 385.160156 198.59375 C 409.59375 198.742188 433.300781 203.601562 455.636719 213.046875 C 476.964844 222.066406 496.171875 234.890625 512.765625 251.152344 C 512.25 251.167969 511.746094 251.363281 511.351562 251.757812 Z M 487.417969 225.3125 C 477.914062 219.054688 467.847656 213.667969 457.265625 209.195312 C 446.460938 204.625 435.339844 201.101562 423.972656 198.640625 C 423.996094 197.324219 424.292969 194.179688 426.570312 193.457031 C 429.945312 192.386719 437.152344 193.023438 444.121094 193.640625 C 452.328125 194.367188 459.3125 194.988281 463.402344 193.574219 C 465.234375 197.234375 470.277344 201.332031 476.1875 206.136719 C 481.777344 210.675781 488.109375 215.824219 489.429688 219.3125 C 490.464844 222.050781 488.042969 224.691406 487.414062 225.3125 Z M 462.996094 189.046875 C 462.996094 189.046875 462.441406 190.066406 457.640625 190.199219 C 453.980469 190.304688 449.160156 189.875 444.488281 189.460938 C 436.765625 188.777344 429.476562 188.132812 425.296875 189.460938 C 424.246094 189.796875 423.390625 190.324219 422.683594 190.972656 C 422.332031 190.019531 421.78125 189.078125 420.960938 188.199219 C 417.632812 184.65625 409.953125 182.367188 401.828125 179.945312 C 397.421875 178.632812 393.261719 177.394531 390.175781 176.039062 C 386.164062 174.277344 386.117188 173.234375 386.117188 173.222656 C 386.117188 172.84375 386.007812 172.492188 385.828125 172.1875 C 413.050781 172.363281 439.488281 177.609375 464.46875 187.804688 C 463.828125 187.953125 463.261719 188.394531 462.992188 189.046875 Z M 381.902344 173.226562 C 381.902344 173.226562 381.78125 174.378906 377.398438 176.339844 C 374.058594 177.832031 369.4375 179.289062 364.96875 180.691406 C 357.574219 183.015625 350.589844 185.210938 347.238281 188.03125 C 346.398438 188.742188 345.800781 189.554688 345.394531 190.417969 C 344.707031 189.675781 343.839844 189.015625 342.753906 188.527344 C 338.324219 186.527344 330.355469 187.351562 321.921875 188.226562 C 317.347656 188.699219 313.035156 189.148438 309.660156 189.078125 C 305.277344 188.988281 304.835938 188.035156 304.832031 188.027344 C 304.78125 187.910156 304.71875 187.796875 304.648438 187.691406 C 329.296875 177.679688 355.359375 172.46875 382.191406 172.195312 C 382.015625 172.5 381.910156 172.847656 381.910156 173.226562 Z M 300.933594 189.640625 C 300.933594 189.640625 301.257812 190.753906 297.960938 194.246094 C 295.449219 196.902344 291.734375 200.011719 288.140625 203.023438 C 282.203125 208 276.589844 212.699219 274.574219 216.589844 C 274.066406 217.566406 273.828125 218.546875 273.78125 219.496094 C 272.863281 219.074219 271.808594 218.796875 270.617188 218.761719 C 270.523438 218.761719 270.425781 218.761719 270.335938 218.761719 C 265.488281 218.761719 258.566406 222.507812 251.253906 226.460938 C 247.210938 228.648438 243.394531 230.710938 240.253906 231.9375 C 237.613281 232.96875 236.363281 233.039062 235.800781 232.953125 C 254.707031 214.382812 276.574219 199.703125 300.832031 189.292969 C 300.855469 189.410156 300.890625 189.527344 300.9375 189.644531 Z M 224.164062 516.410156 C 226.351562 520.449219 228.414062 524.269531 229.644531 527.40625 C 230.140625 528.683594 230.414062 529.632812 230.554688 530.339844 C 213.046875 511.917969 199.15625 490.792969 189.203125 467.453125 C 189.886719 467.894531 190.78125 468.585938 191.953125 469.691406 C 194.613281 472.203125 197.722656 475.917969 200.730469 479.511719 C 205.707031 485.449219 210.40625 491.0625 214.296875 493.082031 C 215.273438 493.585938 216.253906 493.828125 217.210938 493.871094 C 216.785156 494.792969 216.511719 495.84375 216.472656 497.039062 C 216.320312 501.894531 220.132812 508.941406 224.164062 516.402344 Z M 272.011719 552.121094 C 273.730469 556.667969 279.945312 561.71875 286.53125 567.066406 C 290.101562 569.964844 293.46875 572.707031 295.800781 575.136719 C 297.15625 576.550781 297.828125 577.523438 298.167969 578.171875 C 274.761719 567.75 253.632812 553.304688 235.308594 535.1875 C 236.121094 535.316406 237.269531 535.621094 238.894531 536.242188 C 242.3125 537.542969 246.609375 539.785156 250.761719 541.953125 C 257.632812 545.539062 264.121094 548.925781 268.492188 549.300781 C 268.707031 549.320312 268.917969 549.332031 269.128906 549.332031 C 269.972656 549.332031 270.761719 549.179688 271.484375 548.921875 C 271.445312 549.929688 271.59375 551.007812 272.015625 552.128906 Z M 342.679688 578.980469 C 343.03125 579.933594 343.582031 580.875 344.402344 581.753906 C 347.730469 585.292969 355.40625 587.582031 363.535156 590.007812 C 367.941406 591.316406 372.097656 592.558594 375.1875 593.914062 C 377.863281 595.085938 378.769531 595.9375 379.082031 596.382812 C 352.847656 595.742188 327.378906 590.359375 303.273438 580.367188 C 304.015625 580.101562 305.355469 579.820312 307.726562 579.753906 C 311.378906 579.648438 316.207031 580.074219 320.875 580.492188 C 328.59375 581.171875 335.886719 581.820312 340.0625 580.492188 C 341.117188 580.15625 341.972656 579.625 342.679688 578.980469 Z M 570.09375 420.558594 C 569.554688 420.292969 568.960938 420.28125 568.441406 420.476562 C 570.964844 408.113281 572.234375 395.476562 572.234375 382.640625 C 572.234375 372.34375 571.417969 362.167969 569.789062 352.171875 C 569.894531 352.136719 570 352.105469 570.097656 352.054688 C 570.136719 352.035156 574.46875 349.925781 576.417969 352.234375 C 578.703125 354.945312 580.871094 361.847656 582.964844 368.519531 C 585.433594 376.378906 587.539062 383.070312 590.40625 386.3125 C 587.722656 389.40625 585.867188 395.632812 583.691406 402.933594 C 581.632812 409.832031 579.300781 417.65625 576.585938 420.207031 C 574.160156 422.488281 570.121094 420.578125 570.09375 420.5625 Z M 540.363281 277.617188 C 540.332031 277.625 540.3125 277.644531 540.285156 277.65625 C 533.527344 267.613281 525.777344 258.214844 517.101562 249.53125 C 509.351562 241.78125 501.023438 234.777344 492.175781 228.550781 C 492.730469 227.308594 494.195312 224.632812 496.523438 224.828125 C 500.054688 225.132812 506.46875 228.480469 512.671875 231.714844 C 519.976562 235.527344 526.195312 238.773438 530.511719 239.03125 C 530.800781 243.113281 533.894531 248.832031 537.515625 255.53125 C 540.941406 261.863281 544.824219 269.042969 544.707031 272.773438 C 544.601562 276.101562 540.394531 277.605469 540.363281 277.613281 Z M 383.59375 596.433594 C 383.890625 595.980469 384.855469 595 387.96875 593.601562 C 391.304688 592.109375 395.929688 590.65625 400.402344 589.25 C 407.796875 586.929688 414.777344 584.734375 418.128906 581.910156 C 418.972656 581.203125 419.566406 580.390625 419.972656 579.527344 C 420.660156 580.269531 421.527344 580.925781 422.617188 581.417969 C 427.046875 583.417969 435.015625 582.589844 443.453125 581.71875 C 448.027344 581.246094 452.335938 580.800781 455.714844 580.867188 C 460.09375 580.957031 460.539062 581.90625 460.542969 581.914062 C 460.597656 582.050781 460.667969 582.171875 460.75 582.285156 C 436.4375 591.675781 410.792969 596.433594 384.421875 596.433594 C 384.144531 596.433594 383.875 596.433594 383.597656 596.429688 Z M 466.988281 579.769531 C 466.179688 580.109375 465.367188 580.449219 464.558594 580.78125 C 464.535156 580.621094 464.496094 580.460938 464.433594 580.304688 C 464.433594 580.296875 464.105469 579.195312 467.40625 575.703125 C 469.917969 573.046875 473.632812 569.933594 477.222656 566.925781 C 483.164062 561.949219 488.777344 557.25 490.792969 553.359375 C 491.300781 552.382812 491.539062 551.402344 491.585938 550.449219 C 492.507812 550.875 493.554688 551.152344 494.75 551.183594 C 494.84375 551.183594 494.9375 551.183594 495.03125 551.183594 C 499.878906 551.183594 506.796875 547.445312 514.113281 543.488281 C 518.152344 541.300781 521.972656 539.238281 525.113281 538.007812 C 529.191406 536.417969 529.96875 537.121094 529.976562 537.128906 C 530.257812 537.410156 530.601562 537.585938 530.964844 537.671875 C 512.269531 555.554688 490.769531 569.703125 466.984375 579.761719 Z M 534.414062 534.308594 C 534.117188 534.605469 533.820312 534.894531 533.523438 535.1875 C 533.4375 534.808594 533.253906 534.445312 532.960938 534.152344 C 532.953125 534.144531 532.230469 533.25 533.945312 528.761719 C 535.25 525.34375 537.492188 521.046875 539.660156 516.894531 C 543.242188 510.023438 546.628906 503.535156 547.003906 499.167969 C 547.097656 498.070312 546.945312 497.066406 546.617188 496.164062 C 546.722656 496.164062 546.820312 496.183594 546.921875 496.183594 C 547.84375 496.183594 548.816406 496.023438 549.824219 495.640625 C 554.371094 493.921875 559.421875 487.707031 564.773438 481.121094 C 567.667969 477.554688 570.410156 474.183594 572.84375 471.851562 C 576.003906 468.816406 576.984375 469.171875 576.996094 469.175781 C 577.671875 469.457031 578.414062 469.34375 578.984375 468.957031 C 568.347656 493.382812 553.363281 515.355469 534.417969 534.300781 Z M 579.875 466.878906 C 579.875 466.878906 579.875 466.890625 579.871094 466.894531 C 579.847656 466.738281 579.808594 466.582031 579.746094 466.433594 C 579.535156 465.914062 579.125 465.5 578.605469 465.289062 C 578.597656 465.285156 577.585938 464.734375 577.453125 459.929688 C 577.347656 456.273438 577.777344 451.449219 578.191406 446.78125 C 578.875 439.0625 579.519531 431.769531 578.191406 427.59375 C 577.855469 426.542969 577.328125 425.6875 576.683594 424.976562 C 577.632812 424.625 578.578125 424.078125 579.453125 423.253906 C 582.996094 419.925781 585.285156 412.25 587.707031 404.121094 C 589.019531 399.71875 590.257812 395.558594 591.613281 392.472656 C 593.375 388.460938 594.417969 388.414062 594.429688 388.414062 C 595.585938 388.414062 596.527344 387.453125 596.527344 386.292969 C 596.527344 385.738281 596.304688 385.203125 595.914062 384.8125 C 595.519531 384.417969 594.988281 384.199219 594.429688 384.199219 C 594.417969 384.199219 593.277344 384.078125 591.316406 379.691406 C 589.824219 376.355469 588.367188 371.730469 586.964844 367.261719 C 584.640625 359.867188 582.445312 352.886719 579.625 349.535156 C 578.917969 348.691406 578.101562 348.097656 577.238281 347.691406 C 577.980469 347.003906 578.640625 346.136719 579.128906 345.050781 C 581.128906 340.621094 580.304688 332.648438 579.433594 324.210938 C 578.957031 319.636719 578.515625 315.320312 578.582031 311.949219 C 578.667969 307.570312 579.621094 307.125 579.628906 307.121094 C 580.695312 306.679688 581.191406 305.441406 580.761719 304.371094 C 580.550781 303.855469 580.140625 303.445312 579.628906 303.226562 C 579.113281 303.011719 578.535156 303.011719 578.019531 303.226562 C 578.007812 303.226562 576.910156 303.558594 573.417969 300.253906 C 570.757812 297.742188 567.648438 294.03125 564.636719 290.4375 C 559.664062 284.496094 554.964844 278.882812 551.074219 276.867188 C 550.097656 276.359375 549.117188 276.121094 548.164062 276.074219 C 548.585938 275.15625 548.863281 274.105469 548.898438 272.910156 C 549.046875 268.050781 545.238281 261.003906 541.207031 253.542969 C 539.015625 249.503906 536.953125 245.683594 535.726562 242.542969 C 534.132812 238.460938 534.839844 237.691406 534.847656 237.683594 C 535.246094 237.289062 535.453125 236.738281 535.449219 236.179688 C 535.449219 235.710938 535.273438 235.261719 534.984375 234.894531 C 554.191406 254.25 569.296875 276.734375 579.875 301.742188 C 590.9375 327.898438 596.546875 355.675781 596.546875 384.3125 C 596.546875 412.945312 590.9375 440.730469 579.875 466.878906 Z M 387.449219 388.503906 C 387.449219 390.410156 385.902344 391.957031 383.996094 391.957031 C 382.085938 391.957031 380.539062 390.410156 380.539062 388.503906 C 380.539062 386.597656 382.085938 385.050781 383.996094 385.050781 C 385.902344 385.050781 387.449219 386.597656 387.449219 388.503906 Z M 615.332031 152.953125 L 428.273438 152.953125 L 428.273438 135.035156 L 517.839844 135.035156 L 517.839844 92.179688 L 250.15625 92.179688 L 250.15625 135.035156 L 339.71875 135.035156 L 339.71875 152.953125 L 152.667969 152.953125 L 152.667969 340.011719 L 134.746094 340.011719 L 134.746094 250.445312 L 91.890625 250.445312 L 91.890625 518.132812 L 134.746094 518.132812 L 134.746094 428.566406 L 152.667969 428.566406 L 152.667969 615.628906 L 339.722656 615.628906 L 339.722656 633.234375 L 250.160156 633.234375 L 250.160156 676.082031 L 517.847656 676.082031 L 517.847656 633.234375 L 428.28125 633.234375 L 428.28125 615.628906 L 615.339844 615.628906 L 615.339844 428.566406 L 633.261719 428.566406 L 633.261719 518.132812 L 676.109375 518.132812 L 676.109375 250.445312 L 633.261719 250.445312 L 633.261719 340.011719 L 615.339844 340.011719 L 615.339844 152.953125 Z M 637.445312 344.203125 L 637.445312 254.636719 L 671.910156 254.636719 L 671.910156 513.9375 L 637.445312 513.9375 L 637.445312 424.375 L 611.140625 424.375 L 611.140625 611.433594 L 424.082031 611.433594 L 424.082031 637.425781 L 513.648438 637.425781 L 513.648438 671.890625 L 254.347656 671.890625 L 254.347656 637.425781 L 343.910156 637.425781 L 343.910156 611.433594 L 156.859375 611.433594 L 156.859375 424.375 L 130.554688 424.375 L 130.554688 513.9375 L 96.085938 513.9375 L 96.085938 254.636719 L 130.554688 254.636719 L 130.554688 344.203125 L 156.859375 344.203125 L 156.859375 157.144531 L 343.914062 157.144531 L 343.914062 130.839844 L 254.351562 130.839844 L 254.351562 96.371094 L 513.652344 96.371094 L 513.652344 130.839844 L 424.085938 130.839844 L 424.085938 157.144531 L 611.144531 157.144531 L 611.144531 344.203125 L 637.449219 344.203125 Z M 626.761719 243.957031 L 626.761719 333.523438 L 621.824219 333.523438 L 621.824219 146.460938 L 434.769531 146.460938 L 434.769531 141.523438 L 524.332031 141.523438 L 524.332031 85.691406 L 243.664062 85.691406 L 243.664062 141.523438 L 333.230469 141.523438 L 333.230469 146.460938 L 146.171875 146.460938 L 146.171875 333.519531 L 141.234375 333.519531 L 141.234375 243.953125 L 85.402344 243.953125 L 85.402344 524.621094 L 141.234375 524.621094 L 141.234375 435.054688 L 146.171875 435.054688 L 146.171875 622.117188 L 333.230469 622.117188 L 333.230469 626.746094 L 243.664062 626.746094 L 243.664062 682.574219 L 524.332031 682.574219 L 524.332031 626.746094 L 434.769531 626.746094 L 434.769531 622.117188 L 621.824219 622.117188 L 621.824219 435.054688 L 626.761719 435.054688 L 626.761719 524.621094 L 682.59375 524.621094 L 682.59375 243.953125 L 626.761719 243.953125 Z M 680.082031 522.109375 L 629.277344 522.109375 L 629.277344 432.542969 L 619.308594 432.542969 L 619.308594 619.605469 L 432.253906 619.605469 L 432.253906 629.265625 L 521.816406 629.265625 L 521.816406 680.0625 L 246.179688 680.0625 L 246.179688 629.265625 L 335.746094 629.265625 L 335.746094 619.605469 L 148.6875 619.605469 L 148.6875 432.542969 L 138.71875 432.542969 L 138.71875 522.109375 L 87.917969 522.109375 L 87.917969 246.46875 L 138.71875 246.46875 L 138.71875 336.03125 L 148.6875 336.03125 L 148.6875 148.976562 L 335.746094 148.976562 L 335.746094 139.007812 L 246.179688 139.007812 L 246.179688 88.207031 L 521.816406 88.207031 L 521.816406 139.007812 L 432.253906 139.007812 L 432.253906 148.976562 L 619.308594 148.976562 L 619.308594 336.03125 L 629.277344 336.03125 L 629.277344 246.46875 L 680.082031 246.46875 Z M 680.082031 522.109375 " fill-opacity="1" fill-rule="nonzero"/></g></svg>