<svg xmlns="http://www.w3.org/2000/svg" xmlns:xlink="http://www.w3.org/1999/xlink" width="1024" zoomAndPan="magnify" viewBox="0 0 768 767.999994" height="1024" preserveAspectRatio="xMidYMid meet" version="1.0"><defs><clipPath id="3ea6563f4e"><path d="M 367 464 L 601.65625 464 L 601.65625 691.050781 L 367 691.050781 Z M 367 464 " clip-rule="nonzero"/></clipPath><clipPath id="2d266b2311"><path d="M 166.65625 470 L 377 470 L 377 666 L 166.65625 666 Z M 166.65625 470 " clip-rule="nonzero"/></clipPath><clipPath id="42e5875076"><path d="M 228 76.800781 L 481 76.800781 L 481 556 L 228 556 Z M 228 76.800781 " clip-rule="nonzero"/></clipPath></defs><g clip-path="url(#3ea6563f4e)"><path fill="#849669" d="M 491.035156 577.566406 C 509.996094 550.941406 528.007812 523.3125 557.375 506.855469 C 568.4375 500.65625 577.71875 496.695312 589.363281 504.832031 C 605.078125 515.8125 601.957031 532.425781 597.453125 548.441406 C 596.105469 549.714844 590.121094 542.046875 586.96875 542.363281 C 582.851562 542.78125 559.03125 566.921875 554.769531 571.527344 C 524.910156 603.824219 502.511719 643.011719 464.832031 667.347656 C 454.53125 674.003906 443.546875 679.1875 432.277344 683.996094 C 430.695312 683.132812 432.28125 682.253906 432.796875 681.5 C 438.570312 673.023438 446.53125 664.511719 447.835938 653.878906 C 432.722656 668.539062 415.953125 693.203125 392.078125 691.070312 C 380.804688 690.0625 371.453125 681.023438 368.800781 670.171875 C 364.050781 650.746094 378.039062 637.203125 387.558594 622.253906 C 384.453125 615.042969 377.773438 610.09375 375.605469 602.105469 C 371.847656 588.234375 379.675781 579.175781 388.105469 569.539062 C 416.210938 537.402344 463.636719 482.582031 503.390625 466.933594 C 531.421875 455.898438 539.734375 478.925781 557.269531 494.730469 C 524.96875 510.128906 499.089844 542.796875 491.03125 577.566406 Z M 390.621094 649.855469 C 396.492188 647.410156 401.445312 643.40625 407.421875 641.058594 C 417.289062 637.1875 427.78125 637.15625 437.484375 632.96875 C 461.3125 622.683594 471.007812 590.492188 470.933594 566.519531 C 452.710938 581.730469 458.847656 610.863281 434.488281 621.933594 C 418.339844 629.277344 395.652344 626.605469 390.621094 649.851562 Z M 390.621094 649.855469 " fill-opacity="1" fill-rule="nonzero"/></g><g clip-path="url(#2d266b2311)"><path fill="#849669" d="M 209.867188 471.125 C 211.300781 479.738281 216.585938 490.902344 214.871094 499.722656 C 214.441406 501.945312 207.773438 509.925781 206.054688 512.992188 C 195.972656 531.011719 189.691406 552.230469 196.824219 572.53125 L 180.765625 567.527344 C 179.492188 568.640625 189.015625 578.496094 190.273438 579.59375 C 213.90625 600.183594 251.835938 596.109375 278.839844 584.773438 C 304.769531 573.886719 333.769531 552.507812 339.417969 523.34375 C 349.921875 525.335938 352.144531 538.902344 358.511719 546.914062 C 361.480469 550.644531 375.355469 561.878906 376.089844 563.527344 C 377.351562 566.351562 372.988281 569.894531 371.371094 572.875 C 367.976562 579.117188 365.242188 584.921875 364.527344 592.140625 C 364.078125 596.667969 365.453125 602.179688 363.75 606.425781 C 361.949219 610.914062 346.195312 627.828125 341.894531 631.761719 C 315.984375 655.421875 266.394531 673.261719 232.199219 661.175781 C 216.488281 655.625 200.488281 642 195.832031 625.761719 C 217.929688 638.4375 247.339844 640.746094 268.113281 624.25 C 252.792969 623.738281 238.097656 625.851562 222.703125 623.480469 C 156.804688 613.328125 154.613281 536.050781 188.378906 491.296875 C 190.300781 488.75 207.464844 468.925781 209.871094 471.128906 Z M 327.351562 619.738281 C 325.460938 617.90625 294.667969 639.726562 293.214844 644.828125 C 307.941406 643.109375 322.140625 634.007812 327.351562 619.738281 Z M 327.351562 619.738281 " fill-opacity="1" fill-rule="nonzero"/></g><g clip-path="url(#42e5875076)"><path fill="#849669" d="M 382.578125 282.351562 C 379.753906 271.820312 373.699219 262.605469 369.761719 252.503906 C 358.484375 223.578125 355.582031 193.804688 336.804688 167.976562 C 321.824219 147.363281 304.023438 127.90625 290.125 106.21875 C 286.421875 99.328125 296.402344 98.136719 301.136719 100.210938 C 305.644531 102.1875 323.527344 120.898438 327.871094 125.703125 C 340.34375 139.5 353.300781 153.433594 365.539062 167.359375 C 381.492188 185.515625 383.683594 206.632812 391.597656 228.65625 C 399.453125 250.527344 414.992188 283.621094 427.957031 302.75 C 431.730469 308.3125 436.523438 313.785156 441.332031 318.496094 C 443.953125 318.691406 442.390625 318.097656 442.050781 316.773438 C 436.46875 294.757812 407.394531 256.3125 407.597656 238.683594 C 407.734375 226.710938 417.78125 205.46875 430.050781 201.8125 C 450.898438 195.597656 440.621094 220.085938 439.828125 230.664062 C 436.996094 268.304688 453.640625 301.292969 462.1875 335.792969 C 468.820312 362.558594 458.296875 402.863281 461.027344 431.339844 C 462.5625 447.3125 471.082031 456.144531 480.996094 467.605469 C 443.878906 489.808594 413.945312 522.210938 387.003906 555.558594 C 384.617188 555.902344 371.566406 546.132812 369.53125 543.929688 C 363.308594 537.203125 360.996094 526.011719 354.992188 519.308594 C 349.519531 513.203125 339.59375 507.695312 333.367188 501.773438 C 308.269531 477.894531 291.390625 439.707031 280.140625 407.390625 C 265.550781 365.480469 268.128906 324.910156 255.777344 283.148438 C 248.976562 260.164062 222.050781 213.683594 229.457031 191.996094 C 231.222656 186.832031 236.667969 179.324219 243.015625 182.445312 C 246.519531 184.175781 255.390625 210.296875 257.894531 215.761719 C 261.691406 224.039062 266.242188 233.226562 270.597656 241.214844 C 276.519531 252.0625 288.972656 267.652344 291.09375 278.957031 C 293.640625 292.527344 293.75 321.476562 304.226562 331.089844 C 305.214844 331.996094 305.640625 332.933594 307.261719 332.5625 C 310.835938 322.375 306.191406 313.269531 304.554688 303.652344 C 303 294.535156 302.238281 283.824219 299.945312 275.128906 C 296.539062 262.214844 284.265625 247.464844 277.628906 235.191406 C 269.390625 219.953125 263.511719 201.894531 255.242188 187.289062 C 251.058594 179.898438 244.828125 177.3125 241.769531 172.648438 C 234.152344 161.035156 226.875 132.3125 237.332031 121.046875 C 244.464844 113.359375 248.953125 116.152344 253.566406 123.695312 C 262.371094 138.070312 269.164062 157.148438 277.976562 172.582031 C 290.882812 195.1875 308.335938 212.175781 315.800781 237.175781 C 320.988281 254.542969 323.058594 274.578125 330.1875 291.070312 C 333.167969 297.960938 338.242188 307.53125 346.421875 308.460938 C 343.492188 296.140625 338.378906 284.46875 334.882812 272.316406 C 328.703125 250.828125 326.933594 228.242188 314.519531 209.339844 C 307.300781 198.347656 298.917969 188.253906 291.789062 176.84375 C 280.890625 159.394531 272.445312 138.097656 261.5 121.785156 C 254.078125 110.726562 240.515625 107.1875 243.070312 91.136719 C 243.671875 87.371094 247.511719 81.820312 250.542969 79.539062 C 259.351562 72.898438 262.894531 79.582031 267.925781 86.242188 C 280.578125 103 291.027344 122.726562 303.4375 140.09375 C 314.003906 154.882812 333.175781 174.488281 339.421875 190.464844 C 348.183594 212.871094 352.777344 238.613281 362.640625 260.628906 C 366.644531 269.574219 372.132812 280.484375 382.574219 282.355469 Z M 382.578125 282.351562 " fill-opacity="1" fill-rule="nonzero"/></g><path fill="#849669" d="M 222.925781 181.945312 C 222.621094 188.769531 220.285156 195.503906 220.292969 202.359375 C 220.304688 209.890625 224.53125 222.550781 223.742188 228.363281 C 223.105469 233.039062 215.789062 243.664062 213.40625 249.238281 C 202.929688 273.773438 203.410156 280.066406 211.617188 305.214844 C 214.011719 312.5625 216.359375 324.773438 224.929688 326.53125 C 226.304688 308.503906 214.265625 290.8125 215.910156 272.824219 C 216.398438 267.519531 222.625 246.058594 226.917969 243.664062 L 229.433594 244.222656 C 235.570312 261.957031 243.089844 279.25 247.34375 297.601562 C 254.707031 329.308594 254.855469 361.320312 263.597656 392.804688 C 273.511719 428.519531 292.484375 473.027344 317.289062 500.773438 C 319.679688 503.441406 329.921875 511.902344 330.125 513.945312 C 327.636719 522.199219 325.757812 531.542969 321.5 539.070312 C 309.046875 561.085938 266.089844 580.703125 241.542969 582.617188 C 232.90625 583.289062 212.671875 583.421875 207.417969 575.5 C 199.09375 562.945312 207.898438 531.699219 215.65625 519.613281 C 216.289062 518.625 215.554688 517.8125 217.902344 518.324219 L 219.929688 535.378906 C 221.1875 535.675781 221.183594 534.34375 221.4375 533.410156 C 224.898438 520.648438 226.585938 494.929688 223.234375 482.371094 C 220.648438 472.683594 215.992188 462.414062 213.175781 452.265625 C 209.472656 438.925781 207.25 425.171875 203.347656 411.886719 C 199.441406 398.597656 192.289062 384.761719 189.453125 371.5625 C 187.039062 360.34375 187.28125 348.6875 185.484375 337.371094 C 182.515625 318.65625 172.363281 296.039062 170.726562 278.832031 C 170.367188 275.046875 170.421875 270.25 171.496094 266.570312 C 174.183594 257.414062 189.824219 236.4375 195.339844 226.148438 C 199.34375 218.675781 213.082031 185.636719 217.339844 182.878906 C 219.183594 181.683594 220.863281 181.816406 222.925781 181.945312 Z M 222.925781 181.945312 " fill-opacity="1" fill-rule="nonzero"/><path fill="#849669" d="M 226.703125 171.671875 C 225.308594 173.046875 220.617188 172.8125 218.175781 173.679688 C 206.1875 177.933594 198.902344 208.007812 189.804688 217.089844 C 190 195.210938 203.296875 176.617188 209 155.46875 C 211.132812 147.558594 213.261719 127.550781 217.902344 122.195312 C 220.40625 119.308594 224.035156 118.25 226.90625 121.1875 C 223.625 128.535156 222.402344 136.144531 223.058594 144.164062 C 223.515625 149.71875 229.789062 168.628906 226.707031 171.671875 Z M 226.703125 171.671875 " fill-opacity="1" fill-rule="nonzero"/><path fill="#849669" d="M 226.183594 111.417969 C 223.683594 108.917969 226.519531 91.289062 228.445312 87.550781 C 229.992188 84.550781 234.773438 80.5 238.347656 81.617188 C 241.582031 82.628906 237.453125 91.949219 237.109375 95.214844 C 236.675781 99.296875 237.792969 105.617188 236.792969 108.953125 C 235.730469 112.488281 228.683594 113.914062 226.183594 111.414062 Z M 226.183594 111.417969 " fill-opacity="1" fill-rule="nonzero"/></svg>