<svg xmlns="http://www.w3.org/2000/svg" xmlns:xlink="http://www.w3.org/1999/xlink" width="1024" zoomAndPan="magnify" viewBox="0 0 768 767.999994" height="1024" preserveAspectRatio="xMidYMid meet" version="1.0"><defs><clipPath id="fe0a2e694d"><path d="M 76.800781 139.007812 L 691.050781 139.007812 L 691.050781 628.757812 L 76.800781 628.757812 Z M 76.800781 139.007812 " clip-rule="nonzero"/></clipPath></defs><g clip-path="url(#fe0a2e694d)"><path fill="#a64b7a" d="M 483.800781 543.875 C 488.605469 561.929688 521.109375 599.671875 516.574219 614.011719 C 407.15625 641.691406 249.945312 631.273438 149.316406 580.460938 C 127.03125 569.207031 107.035156 555.128906 91.964844 535.875 C 69.980469 506.394531 72.296875 470.003906 97.585938 443.28125 C 119.398438 420.230469 147.167969 404.875 177.902344 392.421875 C 166.332031 386.433594 98.382812 300.8125 131.507812 307.617188 L 197.550781 321.195312 C 183.226562 288.03125 173.894531 254.386719 174.195312 217.964844 C 174.222656 214.867188 175.148438 211.890625 176.574219 211.367188 C 190.253906 206.367188 238.164062 230.421875 253.394531 240.976562 C 255.910156 213.203125 258.785156 187.703125 274.039062 164.742188 C 299.625 174.257812 318.195312 193.207031 336.160156 212.710938 C 348.886719 184.710938 361.359375 158.855469 384.144531 138.996094 C 406.839844 159.164062 419.796875 184.449219 432.226562 212.0625 C 442.570312 198.609375 480.226562 163.433594 493.390625 166.492188 C 504.945312 169.175781 513.300781 224.832031 514.910156 240.0625 C 528.007812 232.136719 582.675781 204.605469 591.90625 211.734375 C 593.703125 213.117188 594.296875 217.148438 594.378906 220.820312 C 595.128906 256.457031 583.4375 288.5 570.488281 321.382812 C 586.375 319.40625 639.125 302.980469 643.492188 309.867188 C 651.933594 323.179688 605.734375 379.441406 590.960938 392.121094 C 619.28125 405.039062 644.1875 418.234375 665.3125 438.128906 C 697.472656 468.402344 700.511719 512.53125 668.882812 544.679688 C 646.335938 567.585938 617.796875 584.03125 586.6875 595.667969 C 551.933594 577.746094 520.972656 558.511719 483.8125 543.867188 Z M 384.910156 230.785156 C 402.699219 247.53125 412.027344 265.667969 422.480469 284.285156 C 451.453125 272.484375 402.914062 171.8125 384.070312 155.917969 C 355.878906 189.699219 340.71875 230.4375 335.367188 272.097656 C 337.425781 276.6875 341.207031 281.710938 346.277344 284.851562 C 356.867188 265.007812 366.40625 245.492188 384.917969 230.78125 Z M 294 244.308594 C 306.191406 244.742188 312.679688 255.996094 322.332031 260.9375 C 325.875 250.054688 328.878906 238.828125 331.101562 226.644531 C 316.636719 208.085938 300.300781 192.632812 279.027344 181.628906 C 270.269531 204.691406 255.425781 255.585938 282.597656 263.539062 C 286.339844 256.335938 285.867188 244.011719 293.992188 244.308594 Z M 485.460938 264.328125 C 490.007812 259.804688 500.113281 254.984375 500.472656 247.992188 C 501.691406 224.789062 497.167969 201.894531 488.175781 180.480469 C 466 193.410156 450.167969 209.230469 436.996094 228.144531 C 441.28125 239.539062 441.164062 250.371094 446.371094 259.984375 C 456.21875 252.550781 463.511719 243.820312 474.601562 242.800781 C 480.878906 249.085938 480.621094 256.382812 485.460938 264.339844 Z M 548.113281 291.964844 C 552.789062 305.171875 548.222656 314.796875 549.773438 325.746094 C 570.996094 296.066406 579.148438 261.863281 581.230469 224.722656 C 546.039062 233.984375 515.40625 252.832031 488.402344 277.867188 C 489.195312 290.820312 488.164062 303.25 490.71875 315.234375 C 511.398438 306.488281 527.066406 295.417969 548.121094 291.964844 Z M 278.027344 315.472656 L 278.511719 277.453125 C 252.699219 252.816406 222.695312 233.785156 186.871094 224.917969 C 188.195312 262.417969 198.203125 296.652344 216.898438 327.066406 C 221.800781 313.796875 213.347656 302.617188 220.042969 291.578125 C 242.015625 295.375 258.828125 307.414062 278.03125 315.46875 Z M 384.589844 446.359375 C 450.894531 399.554688 431.339844 303.328125 383.8125 248.882812 C 337.683594 304.117188 316.207031 401.1875 384.589844 446.359375 Z M 326.734375 353.261719 C 330.453125 331.625 333.167969 316.335938 339.027344 298.894531 C 327.558594 283.285156 315.703125 269.652344 297.992188 259.460938 C 292.640625 279.507812 284.890625 305.050781 295.300781 324.105469 C 302.070312 336.503906 318.984375 342.632812 326.742188 353.261719 Z M 440.523438 353.929688 C 452.644531 342.554688 462.105469 333.671875 474.253906 324.835938 C 477.8125 302.535156 477.824219 280.96875 469.25 258.320312 C 452.933594 269.738281 440.695312 283.460938 428.9375 298.507812 C 435.277344 316.839844 438.171875 333.34375 440.523438 353.929688 Z M 292.648438 340.253906 C 272.65625 328.035156 254.445312 316.9375 231.042969 309.117188 C 236.605469 381.769531 289.546875 440.730469 363.933594 447.359375 C 310.71875 389.71875 354.945312 387.285156 292.648438 340.253906 Z M 406.300781 446.78125 C 480.164062 438.371094 531.398438 379.625 536.710938 308.527344 C 498.359375 322.550781 465.21875 343.019531 440.394531 373.816406 C 437.5 402.59375 423.144531 424.933594 406.292969 446.789062 Z M 296.445312 440.113281 C 261.273438 414.5625 234.996094 384.257812 223.808594 342.472656 C 196.128906 333.449219 169.933594 327.230469 139.941406 323.160156 C 169.582031 381.691406 231.257812 425.453125 296.445312 440.113281 Z M 626.972656 323.003906 C 596.824219 327.332031 570.589844 334.113281 544.25 343.835938 C 530.53125 384.738281 505.535156 418.523438 471 438.402344 C 534.832031 427.789062 599.699219 380.210938 626.972656 323.003906 Z M 93.132812 512.113281 C 102.554688 534.640625 121.726562 550.015625 142.65625 562.222656 C 234.835938 615.980469 395.425781 628.789062 500.492188 604.710938 C 501.1875 592.40625 451.152344 526.3125 463.84375 523.152344 C 465.042969 522.851562 468.289062 521.25 470.53125 522.304688 C 510.445312 541.183594 548.382812 559.90625 587.019531 581.582031 C 616.757812 569.996094 643.339844 554.445312 663.714844 530.984375 C 683.863281 507.777344 683.671875 477.644531 662.988281 454.398438 C 640.707031 429.355469 610.632812 414.050781 579.160156 402.042969 C 565.136719 413.492188 550.914062 421.097656 536.484375 430.277344 C 549.613281 434.234375 623.355469 474.796875 593.984375 485.519531 C 546.472656 502.871094 492.96875 508.808594 444.675781 485.417969 C 434.890625 516.777344 412.179688 539.132812 384.277344 556.09375 C 355.988281 538.992188 332.964844 516.789062 322.816406 485.246094 C 275.644531 507.5625 222.863281 504.535156 174.667969 485.753906 C 143.503906 473.617188 216.558594 435.730469 230.554688 430.511719 L 188.332031 402.277344 C 145.515625 417.320312 70.90625 458.988281 93.132812 512.113281 Z M 327.171875 457.644531 C 298.476562 455.371094 274.960938 448.214844 250.332031 437.488281 C 225.71875 444.976562 202.269531 456.253906 183.308594 475.207031 C 226.382812 492.101562 272.160156 493.382812 313.074219 476.40625 C 321.273438 473 328.683594 466.871094 327.171875 457.644531 Z M 583.941406 474.949219 C 564.816406 456.152344 543.082031 445.738281 519.347656 437.5 C 493.914062 447.292969 468.8125 454.085938 440.53125 458.007812 C 444.222656 496.242188 556.863281 492.8125 583.933594 474.949219 Z M 425 461.21875 L 346.222656 461.183594 C 315.574219 481.902344 362.574219 528.484375 383.613281 541.613281 C 406.097656 529.664062 448.828125 482.480469 424.996094 461.226562 Z M 425 461.21875 " fill-opacity="1" fill-rule="nonzero"/></g></svg>