<svg xmlns="http://www.w3.org/2000/svg" xmlns:xlink="http://www.w3.org/1999/xlink" width="1024" zoomAndPan="magnify" viewBox="0 0 768 767.999994" height="1024" preserveAspectRatio="xMidYMid meet" version="1.0"><defs><clipPath id="c6ff2d943c"><path d="M 95.085938 105.558594 L 672.585938 105.558594 L 672.585938 662.808594 L 95.085938 662.808594 Z M 95.085938 105.558594 " clip-rule="nonzero"/></clipPath></defs><g clip-path="url(#c6ff2d943c)"><path fill="#9b4722" d="M 273.054688 189.199219 C 288.808594 159.992188 323.972656 149.328125 366.246094 145.6875 C 374.480469 144.980469 371.183594 134.789062 364.304688 134.535156 C 285.34375 131.597656 270.921875 162.90625 230.460938 156.839844 C 230.597656 165.113281 244.894531 168.550781 243.554688 173.8125 C 205.519531 181.691406 191.894531 133.699219 166.832031 130.464844 C 154.128906 128.824219 140.027344 138.570312 142.203125 157.8125 C 150.644531 149.410156 159.1875 151.128906 165.707031 155.976562 C 178.402344 165.417969 183.875 179.109375 198.15625 188.296875 C 204.203125 192.191406 211.9375 193.671875 197.566406 194.855469 C 192.09375 195.304688 186.585938 194.347656 181.863281 191.980469 C 186.292969 197.222656 192.515625 200.535156 199.785156 202.617188 C 207.402344 204.800781 210.722656 203.496094 201.253906 211.296875 C 192.050781 218.882812 180.238281 219.976562 166.867188 214.773438 C 169.695312 222.261719 176.433594 226.183594 183.421875 228.128906 C 177.777344 235.941406 171.679688 242.691406 161.183594 247.039062 C 140.882812 217.910156 122.089844 192.535156 121.835938 161.207031 C 121.515625 122.011719 137.878906 103.347656 162.125 105.992188 C 189.546875 108.980469 216.625 139.183594 240.644531 146.171875 C 256.109375 150.671875 272.328125 145.035156 288.167969 137.445312 C 318.074219 123.109375 348 115.976562 383.992188 116.042969 C 419.980469 115.976562 449.90625 123.109375 479.816406 137.445312 C 495.65625 145.035156 511.878906 150.671875 527.339844 146.171875 C 551.363281 139.183594 578.4375 108.980469 605.859375 105.992188 C 630.109375 103.347656 646.46875 122.011719 646.148438 161.207031 C 645.894531 192.535156 627.101562 217.910156 606.800781 247.039062 C 596.308594 242.691406 590.207031 235.941406 584.5625 228.128906 C 591.550781 226.183594 598.289062 222.261719 601.121094 214.773438 C 587.746094 219.972656 575.933594 218.882812 566.730469 211.296875 C 557.257812 203.496094 560.582031 204.800781 568.199219 202.617188 C 575.46875 200.535156 581.691406 197.222656 586.121094 191.980469 C 581.398438 194.347656 575.890625 195.304688 570.417969 194.855469 C 556.046875 193.671875 563.78125 192.191406 569.828125 188.296875 C 584.109375 179.105469 589.582031 165.417969 602.28125 155.976562 C 608.796875 151.128906 617.34375 149.410156 625.78125 157.8125 C 627.957031 138.570312 613.855469 128.824219 601.152344 130.464844 C 576.089844 133.699219 562.464844 181.691406 524.429688 173.8125 C 523.089844 168.546875 537.386719 165.113281 537.523438 156.839844 C 497.0625 162.90625 482.640625 131.597656 403.679688 134.535156 C 396.804688 134.789062 393.503906 144.980469 401.738281 145.6875 C 444.015625 149.328125 479.175781 159.996094 494.929688 189.199219 C 503.746094 205.546875 500.214844 201.667969 488.894531 194.90625 C 465.617188 181.015625 435.566406 167.371094 397.476562 168.390625 C 391.578125 168.546875 390.277344 173.964844 393.007812 177.691406 C 395.628906 181.265625 404.453125 187.339844 409.085938 187.878906 C 437.5 191.195312 460.390625 198.960938 473.527344 212.113281 C 486.003906 224.609375 483.550781 223.460938 471.273438 219.65625 C 445.347656 211.617188 415.007812 214.8125 394.460938 202.421875 C 380.992188 218.105469 390.894531 235.847656 400.765625 249.460938 C 406.636719 257.554688 426.773438 255.253906 437.410156 289.472656 C 439.714844 296.890625 437.070312 310.203125 433.691406 318.609375 C 429.105469 330 423.21875 333.523438 425.046875 318.296875 C 428.460938 289.832031 420.503906 265.320312 401.253906 264.496094 C 408.648438 276.589844 413.632812 288.304688 414.261719 299.328125 C 415.085938 313.75 413.335938 310.144531 408.921875 300.386719 C 401.710938 284.453125 394.570312 267.480469 387.835938 250.824219 C 383.1875 239.324219 384.761719 239.398438 380.113281 250.902344 C 373.386719 267.535156 366.253906 284.476562 359.058594 300.386719 C 354.644531 310.140625 352.894531 313.75 353.714844 299.328125 C 354.34375 288.304688 359.332031 276.589844 366.726562 264.496094 C 347.476562 265.320312 339.519531 289.832031 342.933594 318.296875 C 344.757812 333.523438 338.875 330 334.285156 318.609375 C 330.902344 310.203125 328.261719 296.890625 330.566406 289.472656 C 341.207031 255.253906 361.339844 257.554688 367.210938 249.460938 C 377.085938 235.847656 386.988281 218.101562 373.515625 202.421875 C 352.96875 214.8125 322.632812 211.617188 296.703125 219.65625 C 284.425781 223.460938 281.972656 224.609375 294.449219 212.113281 C 307.585938 198.960938 330.476562 191.195312 358.890625 187.878906 C 363.523438 187.339844 372.347656 181.265625 374.96875 177.691406 C 377.699219 173.964844 376.402344 168.546875 370.503906 168.390625 C 332.410156 167.367188 302.363281 181.011719 279.085938 194.90625 C 267.761719 201.664062 264.234375 205.546875 273.046875 189.199219 Z M 445.730469 245.425781 C 425.015625 249.15625 399.515625 245.648438 403.679688 222.308594 C 424.035156 227.347656 437.886719 232.195312 446.496094 236.886719 C 457.257812 242.75 456.800781 243.4375 445.730469 245.425781 Z M 450.171875 255.480469 C 468.597656 256.78125 485.953125 280.539062 464.535156 305.148438 C 457.511719 313.214844 454.847656 309.003906 458.210938 302.320312 C 467.074219 284.703125 457.929688 272.667969 448.199219 262.101562 C 443.5 257.003906 441.734375 254.886719 450.175781 255.480469 Z M 477.1875 295.519531 C 481.113281 290.300781 486.074219 285.933594 490 280.34375 C 487.882812 262.886719 481.195312 257.96875 470.667969 254.191406 C 464.855469 252.101562 469.238281 245.382812 475.191406 246.917969 C 487.351562 250.046875 494.417969 262.542969 493.777344 277.621094 C 495.589844 273.417969 501.730469 273.144531 505.449219 270.476562 C 510.339844 266.960938 507.558594 257.550781 517.121094 267.699219 C 521.640625 272.496094 523.847656 279.347656 521.089844 284.671875 C 515.113281 296.21875 494.574219 295.683594 479.601562 300.644531 C 473.011719 302.828125 473.503906 300.417969 477.1875 295.515625 Z M 441.726562 379.804688 C 436.453125 357.25 439.316406 332.914062 464.625 317.839844 C 484.464844 306.023438 513.15625 312.621094 526.320312 304.4375 C 529.503906 302.457031 534.941406 305.945312 529.28125 312.992188 C 524.558594 318.875 516.027344 321.179688 513.277344 328.996094 C 509.808594 338.855469 505.914062 350.128906 497.050781 355.667969 C 486.164062 362.472656 474.949219 365.191406 458.964844 362.941406 C 454.132812 368.273438 450.667969 374.289062 448.308594 380.855469 C 444.535156 391.34375 445.777344 397.121094 441.726562 379.808594 Z M 498.242188 322.691406 C 500.082031 335.871094 492.871094 345.03125 483.765625 348.460938 C 475.25 351.664062 454.894531 352.546875 457.023438 338.207031 C 457.925781 332.144531 465.367188 327.320312 469.632812 333.359375 C 474.75 340.601562 480.722656 340.152344 482.242188 330.933594 C 482.746094 327.855469 482.082031 324.671875 484.855469 323.242188 C 488.59375 321.316406 494.039062 322.53125 498.242188 322.6875 Z M 526.144531 329.582031 C 527.5 321.917969 534.5 325.726562 535.84375 331.523438 C 541.460938 355.78125 531.507812 378.445312 498.730469 379.429688 C 492.519531 379.617188 491.355469 372.511719 497.273438 370.703125 C 516.421875 364.851562 523.246094 345.980469 526.144531 329.585938 Z M 502.339844 397.660156 C 516.207031 403.09375 527.246094 409.917969 538.492188 403.675781 C 565.414062 388.738281 557.386719 333.769531 543.410156 303.328125 C 539.339844 294.460938 548.757812 291.605469 552.625 298.964844 C 567.515625 327.296875 575.195312 358.15625 562.152344 398.792969 C 555.714844 418.84375 549.488281 434.269531 526.109375 423.628906 C 514.285156 418.246094 505.515625 409.679688 498.789062 403.515625 C 493.410156 398.585938 494.003906 394.398438 502.339844 397.660156 Z M 484.398438 412.574219 C 499.207031 426.925781 512.933594 442.941406 513.882812 459.902344 C 514.199219 465.539062 517.722656 465.34375 519.785156 460.066406 C 522.503906 453.097656 523.285156 444.15625 519.894531 438.90625 C 510.558594 424.457031 496.144531 415.832031 486.742188 407.675781 C 480.757812 402.488281 480.722656 409.015625 484.398438 412.574219 Z M 442.578125 513.316406 C 463.984375 513 483.09375 508.140625 504.269531 496.339844 C 510.910156 492.636719 511.820312 489.632812 510.34375 481.839844 C 508.710938 473.226562 510.429688 475.421875 502.757812 481.03125 C 483.921875 494.796875 463.488281 502.21875 442.902344 507.371094 C 438.542969 508.464844 433.964844 513.441406 442.578125 513.316406 Z M 459.71875 487.105469 C 473.375 485.273438 485.582031 478.425781 497.074219 468.117188 C 501.945312 463.746094 504.464844 460.277344 497.882812 454.558594 C 492.449219 449.828125 492.1875 452.265625 489.140625 456.449219 C 480.730469 467.984375 470.441406 477.234375 458.148438 484.023438 C 452.503906 487.140625 452.332031 488.097656 459.71875 487.105469 Z M 440.953125 527.375 C 462.554688 527.40625 482.222656 521.242188 500.730469 510.121094 C 507.542969 506.03125 506.402344 504.964844 505.902344 512.804688 C 505.492188 519.171875 505.460938 520.84375 497.070312 524.144531 C 475.480469 532.644531 456.3125 535.746094 440.898438 530.480469 C 436.433594 528.957031 435.148438 527.367188 440.953125 527.375 Z M 490.195312 542.171875 C 467.664062 570.378906 447.382812 570.71875 430.351562 565.644531 C 415.867188 561.332031 398.863281 553.851562 383.996094 552.941406 C 369.125 553.851562 352.117188 561.332031 337.636719 565.644531 C 320.605469 570.71875 300.324219 570.378906 277.792969 542.171875 C 273.816406 537.195312 270.335938 530.882812 279.753906 537.046875 C 312.109375 558.222656 350.777344 556.089844 374.542969 533.855469 C 380.449219 528.332031 375.902344 518.851562 372.066406 514.242188 C 359.25 498.867188 345.394531 489.332031 330.628906 477.28125 C 323.242188 471.253906 315.453125 453.71875 320.691406 443.746094 C 326.859375 432.015625 326.875 443.628906 327.929688 448.046875 C 329.039062 452.699219 331.054688 456.851562 335.421875 459.5 C 341.308594 463.066406 348.386719 458.609375 355.253906 459.070312 C 364.738281 459.707031 375.042969 464.910156 383.992188 464.910156 C 392.941406 464.910156 403.246094 459.707031 412.734375 459.070312 C 419.597656 458.609375 426.675781 463.066406 432.5625 459.5 C 436.929688 456.851562 438.945312 452.699219 440.054688 448.046875 C 441.105469 443.628906 441.125 432.015625 447.289062 443.746094 C 452.53125 453.71875 444.738281 471.253906 437.355469 477.28125 C 422.585938 489.332031 408.730469 498.867188 395.917969 514.242188 C 392.078125 518.851562 387.535156 528.332031 393.441406 533.855469 C 417.203125 556.089844 455.871094 558.222656 488.230469 537.046875 C 497.648438 530.886719 494.167969 537.195312 490.191406 542.171875 Z M 519.773438 481.011719 C 519.574219 473.183594 518.292969 474.863281 523.835938 469.855469 C 545.15625 450.578125 560.65625 422.488281 584.078125 419.679688 C 588.390625 399.746094 591.628906 331.382812 568.453125 295.75 C 563.734375 288.496094 570.285156 283.140625 577.289062 288.800781 C 599.027344 306.371094 602.933594 330.792969 608.972656 358.628906 C 610.046875 363.59375 613.316406 368.816406 616.496094 373.617188 C 622.476562 382.644531 615.964844 384.578125 609.078125 377.433594 C 609.925781 398.285156 608.503906 420.621094 603.316406 443.289062 C 601.25 452.308594 601.984375 451.808594 591.144531 450.011719 C 581.9375 448.484375 574.785156 445 565.976562 446.832031 C 548.886719 471.726562 536.109375 488.753906 525.242188 491.554688 C 518.828125 493.207031 519.929688 487.0625 519.777344 481.007812 Z M 559.832031 267.894531 C 564.152344 273.871094 559.066406 278.472656 551.101562 276.621094 C 534.050781 272.667969 527.667969 257.734375 529.761719 243.160156 C 532.457031 224.433594 523.984375 216.101562 515.285156 204.277344 C 511.667969 199.363281 516.601562 197.652344 520.621094 199.914062 C 532.867188 206.800781 550.097656 220.460938 549.441406 238.796875 C 548.859375 255.023438 553.976562 259.789062 559.832031 267.890625 Z M 574.300781 256.71875 C 606.316406 296.0625 628.332031 337.226562 629.539062 378.339844 C 629.847656 388.769531 627.6875 385.636719 635.453125 392.421875 C 647.511719 402.964844 658.023438 416.339844 667.613281 431.40625 C 674.6875 442.519531 672.710938 437.941406 672.460938 426.035156 C 671.699219 389.644531 661.710938 356.945312 647.121094 326.089844 C 652.890625 327.554688 658.660156 330.839844 664.425781 335.121094 C 673.796875 342.078125 673.476562 342.371094 668.253906 329.402344 C 655.625 298.058594 620.6875 272.375 577.070312 248.898438 C 564.015625 241.875 565.261719 245.609375 574.304688 256.722656 Z M 663.195312 473.601562 C 668.15625 450.527344 660.832031 430.304688 641 416.3125 C 621.019531 402.214844 621.546875 410.320312 620.320312 422.792969 C 618.863281 437.601562 617.195312 453.945312 611.394531 470.007812 C 591.777344 467.828125 580.390625 460.566406 568.890625 474.804688 C 559.414062 486.539062 549.570312 497.210938 535.199219 505.183594 C 522.703125 512.117188 525.464844 509.953125 516.816406 521.992188 C 507.089844 535.523438 496.636719 549.214844 483.519531 563.5 C 478.121094 569.378906 477.371094 568.101562 476.910156 576.152344 C 476.191406 588.585938 477.039062 595.851562 478.753906 601.171875 C 483.050781 614.523438 483.15625 609.617188 486.917969 602.078125 C 502.449219 570.96875 535.945312 556.742188 575.789062 549.441406 C 584.445312 547.855469 584.6875 548.363281 575.523438 544.628906 C 562.9375 539.507812 548.804688 537.488281 532.675781 539.460938 C 535.71875 531.203125 561.667969 522.679688 584.652344 507.417969 C 602.984375 495.246094 614.132812 488.613281 625.6875 516.519531 C 629.808594 526.46875 628.230469 528.792969 632.996094 516.96875 C 641.363281 496.226562 646.234375 475.015625 646.148438 453.140625 C 650.636719 454.707031 654.320312 463.445312 657.695312 473.523438 C 660.824219 482.859375 660.535156 485.988281 663.195312 473.601562 Z M 454.136719 578.296875 C 449.671875 578.683594 451.40625 578.597656 450.878906 584.214844 C 449.71875 596.539062 442.539062 610.804688 429.707031 618.074219 C 429.496094 608.867188 429.847656 594.640625 421.667969 608.765625 C 414.898438 620.464844 407.144531 628.480469 398.347656 632.570312 C 397.164062 620.089844 370.828125 620.089844 369.640625 632.570312 C 360.84375 628.480469 353.089844 620.464844 346.320312 608.765625 C 338.140625 594.640625 338.492188 608.867188 338.28125 618.074219 C 325.449219 610.804688 318.269531 596.539062 317.109375 584.214844 C 316.582031 578.597656 318.316406 578.683594 313.851562 578.296875 C 306.558594 577.667969 306.140625 572.085938 305.695312 580.171875 C 304.367188 604.296875 315.085938 624.832031 339.796875 641.199219 C 346.734375 645.789062 345.1875 645.484375 344.507812 638.65625 C 344.101562 634.589844 344.3125 631.601562 345.394531 630.144531 C 356.328125 639.574219 368.664062 654.347656 377.417969 659.722656 C 385.859375 664.914062 383.285156 661.546875 382.671875 654.554688 C 382.144531 648.582031 375.851562 632.175781 383.996094 632.175781 C 392.140625 632.175781 385.847656 648.582031 385.320312 654.554688 C 384.707031 661.546875 382.132812 664.914062 390.574219 659.722656 C 399.324219 654.34375 411.664062 639.570312 422.59375 630.144531 C 423.679688 631.601562 423.890625 634.589844 423.484375 638.65625 C 422.804688 645.484375 421.257812 645.789062 428.195312 641.199219 C 452.902344 624.832031 463.621094 604.296875 462.296875 580.171875 C 461.851562 572.085938 461.433594 577.664062 454.140625 578.296875 Z M 322.257812 245.429688 C 342.972656 249.15625 368.472656 245.648438 364.308594 222.308594 C 343.957031 227.347656 330.101562 232.195312 321.492188 236.890625 C 310.730469 242.753906 311.191406 243.4375 322.257812 245.429688 Z M 317.816406 255.484375 C 299.390625 256.78125 282.035156 280.542969 303.453125 305.148438 C 310.476562 313.214844 313.140625 309.003906 309.777344 302.320312 C 300.914062 284.703125 310.058594 272.671875 319.792969 262.105469 C 324.488281 257.003906 326.257812 254.890625 317.816406 255.484375 Z M 290.800781 295.519531 C 286.875 290.300781 281.914062 285.933594 277.988281 280.347656 C 280.105469 262.886719 286.792969 257.972656 297.320312 254.191406 C 303.132812 252.105469 298.75 245.386719 292.796875 246.917969 C 280.636719 250.050781 273.570312 262.542969 274.210938 277.625 C 272.398438 273.421875 266.257812 273.148438 262.542969 270.476562 C 257.648438 266.964844 260.429688 257.550781 250.867188 267.703125 C 246.347656 272.496094 244.144531 279.351562 246.898438 284.675781 C 252.875 296.21875 273.414062 295.6875 288.386719 300.644531 C 294.980469 302.832031 294.488281 300.421875 290.800781 295.519531 Z M 326.261719 379.804688 C 331.535156 357.25 328.667969 332.917969 303.359375 317.84375 C 283.523438 306.027344 254.828125 312.621094 241.664062 304.4375 C 238.480469 302.460938 233.042969 305.945312 238.707031 312.996094 C 243.429688 318.875 251.960938 321.179688 254.710938 329 C 258.179688 338.855469 262.074219 350.132812 270.9375 355.671875 C 281.824219 362.472656 293.039062 365.191406 309.023438 362.945312 C 313.851562 368.273438 317.316406 374.292969 319.675781 380.855469 C 323.449219 391.347656 322.210938 397.125 326.261719 379.808594 Z M 269.746094 322.691406 C 267.90625 335.871094 275.117188 345.035156 284.222656 348.460938 C 292.738281 351.667969 313.089844 352.550781 310.964844 338.210938 C 310.0625 332.144531 302.621094 327.324219 298.355469 333.359375 C 293.238281 340.601562 287.265625 340.152344 285.746094 330.933594 C 285.242188 327.855469 285.90625 324.675781 283.132812 323.246094 C 279.394531 321.320312 273.949219 322.53125 269.746094 322.691406 Z M 241.84375 329.585938 C 240.488281 321.921875 233.484375 325.726562 232.144531 331.527344 C 226.527344 355.78125 236.480469 378.445312 269.257812 379.433594 C 275.46875 379.621094 276.632812 372.511719 270.714844 370.703125 C 251.566406 364.851562 244.742188 345.984375 241.84375 329.585938 Z M 265.648438 397.664062 C 251.78125 403.097656 240.742188 409.917969 229.496094 403.679688 C 202.574219 388.742188 210.601562 333.769531 224.578125 303.332031 C 228.648438 294.460938 219.230469 291.609375 215.363281 298.964844 C 200.472656 327.296875 192.792969 358.160156 205.835938 398.792969 C 212.273438 418.84375 218.5 434.269531 241.878906 423.628906 C 253.703125 418.25 262.472656 409.679688 269.199219 403.519531 C 274.578125 398.589844 273.984375 394.398438 265.648438 397.664062 Z M 283.589844 412.578125 C 268.78125 426.929688 255.054688 442.941406 254.105469 459.902344 C 253.789062 465.539062 250.265625 465.34375 248.203125 460.066406 C 245.484375 453.101562 244.703125 444.15625 248.09375 438.90625 C 257.429688 424.460938 271.84375 415.832031 281.246094 407.679688 C 287.230469 402.492188 287.265625 409.019531 283.589844 412.578125 Z M 325.410156 513.316406 C 304.003906 513.003906 284.894531 508.140625 263.71875 496.339844 C 257.078125 492.640625 256.167969 489.636719 257.644531 481.84375 C 259.277344 473.230469 257.558594 475.425781 265.230469 481.035156 C 284.066406 494.796875 304.5 502.21875 325.085938 507.375 C 329.445312 508.464844 334.023438 513.445312 325.410156 513.316406 Z M 308.269531 487.109375 C 294.613281 485.273438 282.40625 478.425781 270.914062 468.117188 C 266.042969 463.746094 263.523438 460.28125 270.101562 454.558594 C 275.539062 449.828125 275.796875 452.269531 278.84375 456.449219 C 287.257812 467.988281 297.542969 477.234375 309.835938 484.027344 C 315.484375 487.144531 315.65625 488.097656 308.269531 487.109375 Z M 327.035156 527.375 C 305.433594 527.410156 285.769531 521.246094 267.257812 510.125 C 260.445312 506.03125 261.589844 504.964844 262.089844 512.804688 C 262.496094 519.171875 262.53125 520.84375 270.917969 524.144531 C 292.503906 532.644531 311.671875 535.746094 327.089844 530.484375 C 331.554688 528.957031 332.835938 527.367188 327.035156 527.375 Z M 248.214844 481.011719 C 248.414062 473.183594 249.695312 474.867188 244.152344 469.855469 C 222.832031 450.582031 207.332031 422.492188 183.910156 419.679688 C 179.597656 399.75 176.355469 331.382812 199.535156 295.75 C 204.25 288.496094 197.699219 283.140625 190.695312 288.800781 C 168.957031 306.375 165.050781 330.792969 159.011719 358.632812 C 157.9375 363.59375 154.671875 368.820312 151.492188 373.617188 C 145.507812 382.644531 152.023438 384.578125 158.90625 377.433594 C 158.058594 398.289062 159.484375 420.621094 164.671875 443.289062 C 166.738281 452.3125 166.003906 451.808594 176.84375 450.015625 C 186.050781 448.488281 193.203125 445 202.011719 446.835938 C 219.097656 471.726562 231.875 488.757812 242.742188 491.554688 C 249.160156 493.210938 248.058594 487.0625 248.210938 481.011719 Z M 208.15625 267.894531 C 203.835938 273.871094 208.921875 278.472656 216.886719 276.625 C 233.9375 272.667969 240.320312 257.738281 238.222656 243.164062 C 235.527344 224.433594 244 216.101562 252.703125 204.277344 C 256.320312 199.367188 251.382812 197.65625 247.367188 199.914062 C 235.117188 206.804688 217.886719 220.460938 218.546875 238.796875 C 219.128906 255.027344 214.011719 259.792969 208.15625 267.890625 Z M 193.6875 256.722656 C 161.671875 296.066406 139.65625 337.230469 138.449219 378.34375 C 138.140625 388.773438 140.300781 385.636719 132.535156 392.425781 C 120.476562 402.964844 109.964844 416.34375 100.375 431.410156 C 93.300781 442.519531 95.277344 437.945312 95.527344 426.039062 C 96.289062 389.648438 106.277344 356.949219 120.867188 326.089844 C 115.101562 327.558594 109.332031 330.84375 103.5625 335.125 C 94.191406 342.078125 94.511719 342.371094 99.734375 329.40625 C 112.363281 298.058594 147.304688 272.378906 190.917969 248.902344 C 203.972656 241.878906 202.730469 245.609375 193.683594 256.722656 Z M 104.792969 473.601562 C 99.832031 450.527344 107.15625 430.308594 126.988281 416.3125 C 146.96875 402.214844 146.441406 410.320312 147.667969 422.796875 C 149.125 437.605469 150.792969 453.949219 156.59375 470.011719 C 176.210938 467.828125 187.597656 460.570312 199.097656 474.808594 C 208.574219 486.539062 218.417969 497.214844 232.789062 505.1875 C 245.285156 512.121094 242.523438 509.957031 251.171875 521.992188 C 260.898438 535.523438 271.351562 549.21875 284.46875 563.5 C 289.867188 569.378906 290.617188 568.105469 291.082031 576.15625 C 291.796875 588.589844 290.949219 595.851562 289.238281 601.171875 C 284.941406 614.527344 284.835938 609.617188 281.074219 602.078125 C 265.542969 570.96875 232.046875 556.742188 192.203125 549.445312 C 183.546875 547.859375 183.300781 548.367188 192.46875 544.632812 C 205.050781 539.507812 219.1875 537.488281 235.316406 539.460938 C 232.273438 531.207031 206.324219 522.683594 183.339844 507.421875 C 165.007812 495.25 153.859375 488.613281 142.304688 516.519531 C 138.183594 526.472656 139.761719 528.796875 134.996094 516.972656 C 126.628906 496.226562 121.757812 475.015625 121.839844 453.140625 C 117.355469 454.707031 113.671875 463.445312 110.292969 473.527344 C 107.164062 482.863281 107.457031 485.988281 104.796875 473.601562 Z M 104.792969 473.601562 " fill-opacity="1" fill-rule="evenodd"/></g></svg>