<svg xmlns="http://www.w3.org/2000/svg" xmlns:xlink="http://www.w3.org/1999/xlink" width="1024" zoomAndPan="magnify" viewBox="0 0 768 767.999994" height="1024" preserveAspectRatio="xMidYMid meet" version="1.0"><defs><clipPath id="3b11b7ea46"><path d="M 382 612 L 492 612 L 492 715.03125 L 382 715.03125 Z M 382 612 " clip-rule="nonzero"/></clipPath><clipPath id="40ec3d75a6"><path d="M 360 52.78125 L 416 52.78125 L 416 94 L 360 94 Z M 360 52.78125 " clip-rule="nonzero"/></clipPath></defs><path fill="#b13b3b" d="M 266.433594 459.15625 C 263.59375 459.734375 263.621094 459.886719 261.910156 462.273438 C 254.378906 472.703125 254.472656 494.511719 255.824219 506.402344 C 261.289062 554.519531 299.03125 585.585938 348.902344 593.988281 C 399.875 602.566406 448.375 584.054688 476.351562 544.988281 C 485.277344 532.515625 490.148438 520.335938 495.761719 504.140625 C 518.980469 437.109375 478.378906 403.601562 473.316406 359.542969 C 471.015625 339.46875 475.59375 325.398438 480.699219 308.375 C 491.003906 273.957031 497.445312 245.609375 519.3125 226.53125 C 541.382812 207.257812 582.476562 202.71875 610.191406 221.21875 C 607.390625 226.199219 603.058594 228.503906 597.101562 237.691406 C 577.746094 267.515625 583.925781 312.183594 542.167969 332.972656 C 530.207031 338.917969 518.304688 340.875 504.535156 338.722656 C 500.964844 338.171875 489.472656 334.449219 491.96875 342.351562 C 492.90625 345.332031 497.308594 347.402344 500.136719 348.808594 C 514 355.652344 537.300781 352.148438 550.472656 346.90625 C 566.351562 340.574219 583.015625 322.5 590.394531 307.242188 C 595.253906 297.214844 597.652344 290.457031 601.085938 278.621094 C 607.652344 256.035156 617.046875 238.160156 636.980469 225.371094 C 645.785156 219.726562 650.613281 219.605469 638.429688 211.300781 C 622.828125 200.648438 605.613281 190.910156 581.71875 188.425781 C 555.382812 185.695312 535.175781 191.007812 517.1875 201.960938 C 480.492188 224.308594 474.792969 267.789062 463.675781 307.4375 C 453.246094 344.601562 451.824219 370.355469 467.011719 406.015625 C 471.386719 416.265625 474.933594 423.578125 478.230469 434.917969 C 494.976562 492.25 455.675781 566.066406 386.449219 573.945312 C 341.453125 579.074219 298.785156 564.5625 277.828125 525.34375 C 260.847656 493.574219 271.757812 467.335938 266.433594 459.15625 Z M 266.433594 459.15625 " fill-opacity="1" fill-rule="evenodd"/><path fill="#b13b3b" d="M 256.527344 342.726562 C 251.039062 338.074219 213.683594 343.179688 195.085938 297.285156 C 186.3125 275.613281 187.25 237.964844 166.722656 218.472656 C 181.402344 209.214844 210.867188 207.394531 229.367188 213.21875 C 274.160156 227.300781 267.800781 284.578125 274.875 319.453125 C 280.972656 349.5 294.824219 373.914062 314.289062 394.070312 C 321.144531 401.175781 325.1875 405.683594 333.738281 412.390625 C 351.121094 426.03125 361.109375 430.335938 376.449219 445.980469 C 398.050781 467.996094 402.578125 509.191406 380.546875 527.125 C 369.785156 535.882812 361.441406 535.882812 356.074219 540.960938 C 359.039062 548.132812 373.359375 545.996094 379.691406 543.9375 C 388.035156 541.207031 394.175781 537.566406 399.582031 532.488281 C 409.542969 523.136719 416.71875 506.527344 415.765625 486.484375 C 414.066406 450.65625 392.933594 429.605469 366.917969 410.515625 C 326.910156 381.15625 298.699219 352.683594 291.773438 299.351562 C 287.402344 265.679688 287.210938 229.535156 260.542969 206.070312 C 249.507812 196.347656 233.917969 191.132812 215.171875 188.757812 C 191.625 185.777344 158.695312 193.65625 140.789062 207.023438 C 138.085938 209.039062 134.800781 212.03125 133.3125 214.84375 C 128.539062 223.878906 137.769531 220.609375 153.824219 238.144531 C 179.316406 265.984375 162.570312 314.941406 207.570312 340.160156 C 219.007812 346.574219 232.207031 349.140625 246.003906 348.367188 C 251.109375 348.078125 256.128906 347.320312 256.527344 342.726562 Z M 256.527344 342.726562 " fill-opacity="1" fill-rule="evenodd"/><path fill="#b13b3b" d="M 294.90625 701.714844 C 298.023438 712.183594 353.011719 714.335938 350.375 666.371094 C 349.8125 656.050781 343.105469 648.628906 338.140625 644.078125 C 300.785156 609.824219 226.730469 643.703125 172.035156 605.421875 C 134.386719 579.074219 142.140625 534.738281 176.214844 522.734375 C 203.40625 513.175781 228.816406 524.265625 236.789062 521.46875 C 238.707031 515.6875 233.738281 512.859375 230.761719 510.542969 C 211.046875 495.144531 182.296875 496.25 159.316406 505.863281 C 149.867188 509.824219 143.753906 515.90625 138.445312 521.894531 C 108.175781 556.023438 124.222656 599.808594 152.488281 621.757812 C 190.203125 651.058594 231.878906 644.820312 272.40625 645.789062 C 294.285156 646.3125 319.144531 649.058594 327.089844 663.957031 C 332.746094 674.550781 326.015625 685.601562 319.820312 689.640625 C 316.21875 692 311.765625 693.808594 307.292969 695.574219 C 303.128906 697.230469 297.265625 698.445312 294.90625 701.714844 Z M 294.90625 701.714844 " fill-opacity="1" fill-rule="evenodd"/><path fill="#b13b3b" d="M 511.820312 544.269531 C 524.730469 544.878906 571.316406 527.359375 595.929688 553.375 C 604.066406 561.984375 608.648438 577.449219 603.210938 592.375 C 598.671875 604.859375 588.78125 615.203125 580.117188 621.46875 C 560.613281 635.566406 535.300781 645.332031 507.53125 651.652344 C 492.203125 655.128906 435.394531 660.175781 435.917969 684.207031 C 443.589844 684.082031 454.265625 680.359375 462.417969 678.828125 C 491.996094 673.253906 507.183594 675.683594 542.871094 665.335938 C 571.027344 657.167969 604.21875 641.167969 619.695312 616.886719 C 627.835938 604.097656 633.050781 584.664062 628.46875 565.816406 C 623.960938 547.320312 614.730469 537.46875 602.480469 529.097656 C 590.078125 520.613281 568.957031 516.875 549.851562 519.769531 C 537.628906 521.617188 511.15625 528.128906 511.820312 544.269531 Z M 511.820312 544.269531 " fill-opacity="1" fill-rule="evenodd"/><path fill="#b13b3b" d="M 243.644531 384.484375 C 226.042969 385.515625 223.171875 438.585938 203.886719 453.238281 C 192.007812 462.246094 175.164062 461.222656 161.9375 454.050781 C 158.695312 452.285156 156.984375 450.367188 154.460938 447.941406 C 152.085938 445.636719 150.652344 443.015625 148.941406 439.730469 C 145.671875 433.453125 144.238281 426.253906 143.546875 417.90625 C 141.917969 398.222656 147.546875 386.882812 157.039062 377.460938 C 163.273438 371.253906 166.945312 369.847656 173.730469 376.453125 C 184.285156 386.773438 182.53125 413.824219 186.285156 418.527344 C 195.101562 429.605469 212.027344 385.117188 191.597656 363.417969 C 184.175781 355.527344 168.324219 345.953125 152.941406 353.277344 C 142.761719 358.132812 133.105469 371.597656 127.960938 382.9375 C 121.40625 397.410156 121.035156 412.445312 124.277344 429.949219 C 135.628906 491.339844 213.667969 506.332031 239.574219 430.308594 C 243.753906 418.046875 249.6875 397.175781 243.644531 384.480469 Z M 243.644531 384.484375 " fill-opacity="1" fill-rule="evenodd"/><path fill="#b13b3b" d="M 643.453125 448.0625 C 627.824219 447.140625 614.71875 478.675781 587.238281 481.515625 C 555.289062 484.8125 546.75 439.636719 568.585938 411.546875 C 570.546875 409.039062 576.917969 401.3125 581.238281 402.566406 C 591.292969 405.492188 587.085938 430.253906 585.003906 437.691406 C 581.347656 450.753906 595.320312 442.226562 601.777344 423.824219 C 605.652344 412.789062 605.265625 395.171875 598.785156 386.675781 C 586.480469 370.535156 555.910156 388.828125 544.445312 409.894531 C 532.789062 431.316406 532.347656 461.84375 544.695312 482.539062 C 555.855469 501.242188 582.824219 509.894531 608.328125 497.878906 C 620.179688 492.289062 626.925781 487.476562 633.628906 478.179688 C 638.003906 472.109375 650.144531 455.871094 643.453125 448.0625 Z M 643.453125 448.0625 " fill-opacity="1" fill-rule="evenodd"/><path fill="#b13b3b" d="M 283.472656 210.390625 C 288.90625 208.210938 301.238281 186.632812 323.105469 176.589844 C 339.09375 169.238281 362.53125 163.128906 384.121094 163.335938 C 465.386719 164.09375 479.941406 205.878906 487.871094 206.527344 C 488.175781 205.890625 488.203125 206.429688 488.519531 204.5 C 489.25 199.945312 486.851562 193.378906 485.238281 189.421875 C 479.320312 174.851562 468.449219 164.339844 454.804688 156.394531 C 412.246094 131.578125 319.035156 138.199219 292.394531 177.929688 C 287.03125 185.929688 280.65625 198.015625 283.46875 210.390625 Z M 283.472656 210.390625 " fill-opacity="1" fill-rule="evenodd"/><g clip-path="url(#3b11b7ea46)"><path fill="#b13b3b" d="M 439.796875 707.878906 C 423.1875 702.996094 400.453125 704.925781 404.273438 681.738281 C 409.117188 652.382812 458.0625 632.214844 483.582031 622.101562 C 486.230469 621.054688 493.25 619.507812 491.429688 615.464844 C 489.015625 610.074219 469.898438 613.148438 464.542969 614.28125 C 432.152344 621.121094 401.679688 640.089844 389.304688 662.726562 C 367.578125 702.457031 403.347656 723.441406 435.574219 712.238281 C 438.484375 711.21875 439.148438 710.886719 439.796875 707.878906 Z M 439.796875 707.878906 " fill-opacity="1" fill-rule="evenodd"/></g><path fill="#b13b3b" d="M 308.578125 146.226562 C 316.9375 144.546875 345.078125 118.707031 386.503906 121.371094 C 404.148438 122.5 432.761719 128.765625 447.632812 137.082031 C 452.679688 139.910156 458.804688 144.628906 463.578125 146.726562 C 463.867188 133.300781 445.398438 118.472656 436.152344 113.203125 C 409.917969 98.234375 362.777344 97.671875 336.707031 113.023438 C 326.511719 119.011719 309.460938 131.496094 308.578125 146.226562 Z M 308.578125 146.226562 " fill-opacity="1" fill-rule="evenodd"/><path fill="#b13b3b" d="M 301.363281 251.179688 C 307.804688 258.105469 337.601562 248.835938 350.5 277.875 C 341.90625 272.671875 332.015625 262.023438 311.199219 264.988281 C 312.152344 269.238281 315.957031 270.507812 322.261719 272.644531 C 321.144531 276.855469 319.117188 280.785156 320.316406 286.082031 C 322.773438 296.996094 335.203125 299.1875 340.554688 293.53125 C 343.492188 290.429688 343.699219 285.777344 345.574219 281.558594 C 354.210938 286.277344 353.730469 295.050781 358.460938 296.898438 C 364.269531 286.398438 358.957031 248.917969 326.332031 247.070312 C 318.925781 246.65625 304.964844 246.53125 301.363281 251.179688 Z M 301.363281 251.179688 " fill-opacity="1" fill-rule="evenodd"/><path fill="#b13b3b" d="M 408.964844 295.351562 C 413.890625 293.65625 413.929688 285.804688 423.378906 280.949219 C 423.324219 291.078125 427.738281 296.84375 437.09375 293.765625 C 444.347656 291.394531 445.988281 282.21875 442.84375 273.75 C 447.535156 271.597656 453.703125 270.410156 454.820312 265.582031 C 448.761719 264.6875 438.96875 266.300781 433.769531 267.902344 C 426.277344 270.191406 424.167969 272.714844 418.980469 275.957031 C 423.683594 267.460938 428.648438 262.355469 438.679688 258.355469 C 446.652344 255.167969 454.171875 255.222656 462.378906 254.007812 C 466.667969 253.375 467.578125 253.582031 468.460938 250.160156 C 450.113281 242.378906 420.441406 246.144531 410.855469 270.660156 C 408.300781 277.15625 406.082031 288.484375 408.964844 295.351562 Z M 408.964844 295.351562 " fill-opacity="1" fill-rule="evenodd"/><g clip-path="url(#40ec3d75a6)"><path fill="#b13b3b" d="M 405.804688 92.992188 C 420.675781 92.992188 415.945312 80.300781 405.734375 72.964844 C 401.335938 69.804688 397.183594 69.363281 393.925781 65.472656 C 390.824219 61.773438 389.71875 54.464844 386.300781 52.792969 C 384.90625 55.527344 383.152344 59.5 381.761719 62.519531 C 377.082031 72.671875 358.28125 72.230469 360.613281 86.46875 C 362.625 98.648438 378.890625 90.9375 380.175781 90.621094 C 391.898438 87.765625 395.789062 92.992188 405.804688 92.992188 Z M 405.804688 92.992188 " fill-opacity="1" fill-rule="evenodd"/></g><path fill="#b13b3b" d="M 345.546875 220.652344 C 354.734375 229.675781 412.828125 226.640625 425.105469 221.742188 C 424.746094 215.519531 415.929688 215.398438 408.234375 215.023438 C 393.457031 214.335938 367.277344 213.285156 353.039062 216.074219 C 349.109375 216.84375 346.515625 217.328125 345.546875 220.652344 Z M 345.546875 220.652344 " fill-opacity="1" fill-rule="evenodd"/><path fill="#b13b3b" d="M 351.976562 200.179688 C 361.480469 202.855469 409.542969 202.707031 419.710938 200.179688 C 419.722656 200.125 421.53125 199.835938 419.394531 196.71875 C 418.925781 196.042969 417.089844 194.925781 415.957031 194.402344 C 401.875 187.863281 356.335938 186.453125 351.976562 200.179688 Z M 351.976562 200.179688 " fill-opacity="1" fill-rule="evenodd"/><path fill="#b13b3b" d="M 386.671875 233.632812 C 376.050781 237.289062 371.691406 262.753906 382.90625 265.222656 C 398.867188 268.757812 393.691406 239.289062 386.671875 233.632812 Z M 386.671875 233.632812 " fill-opacity="1" fill-rule="evenodd"/></svg>