<svg xmlns="http://www.w3.org/2000/svg" xmlns:xlink="http://www.w3.org/1999/xlink" width="1024" zoomAndPan="magnify" viewBox="0 0 768 767.999994" height="1024" preserveAspectRatio="xMidYMid meet" version="1.0"><defs><clipPath id="1c16dd6ea6"><path d="M 142 131 L 626 131 L 626 691.050781 L 142 691.050781 Z M 142 131 " clip-rule="nonzero"/></clipPath></defs><g clip-path="url(#1c16dd6ea6)"><path fill="#ff9933" d="M 529.90625 427.652344 C 527.988281 415.683594 531.457031 401.601562 542.746094 395.375 C 552.277344 390.117188 564.773438 392.460938 571.835938 400.707031 C 588.1875 419.796875 569.449219 450.089844 545.703125 447.972656 C 557.769531 444.273438 569.199219 434.375 566.113281 420.433594 C 563.65625 409.339844 550.285156 401.449219 540.316406 409 C 551.152344 410.082031 560.953125 415.628906 558.5 428.148438 C 555.6875 442.496094 538.753906 446.25 528.488281 437.316406 C 528.757812 448.425781 523.210938 458.257812 521.238281 468.953125 C 519.652344 477.546875 521.210938 486.570312 526.175781 493.828125 C 537.699219 510.671875 559.441406 509.828125 573.746094 497.222656 C 590.921875 503.9375 608.105469 510.652344 625.285156 517.371094 C 621.535156 519.125 615.730469 516.507812 611.835938 515.929688 C 607.042969 515.222656 602.191406 514.824219 597.347656 515.042969 C 588.667969 515.433594 580.121094 517.855469 572.792969 522.589844 C 561.988281 529.566406 554.679688 541.050781 552.320312 553.636719 C 550.03125 565.855469 552.449219 578.851562 559.648438 589.070312 C 568 600.917969 584.617188 609.691406 598.890625 603.0625 C 585.476562 602.65625 574.625 598.191406 567.820312 585.941406 C 561.894531 575.269531 562.226562 562.671875 566.617188 551.507812 C 570.292969 542.152344 577.140625 534.472656 586.164062 529.992188 C 597.839844 524.199219 610.1875 524.769531 622.804688 525.8125 C 620.925781 527.648438 617.683594 528.066406 615.316406 529.027344 C 612.621094 530.117188 609.984375 531.382812 607.449219 532.804688 C 602.625 535.507812 598.128906 538.824219 594.273438 542.796875 C 586.933594 550.355469 580.5 561.707031 580.257812 572.472656 C 580.003906 583.578125 588.011719 593.578125 599.195312 595.019531 C 612.582031 596.746094 619.847656 586.136719 624.582031 575.429688 C 629.058594 604.023438 600.382812 629.09375 572.824219 622.914062 C 559.71875 619.976562 548.699219 611.011719 542.300781 599.3125 C 538.542969 592.449219 536.519531 584.890625 535.738281 577.132812 C 534.835938 568.171875 535.402344 559.859375 530.96875 551.664062 C 521.957031 535.003906 506.289062 522.917969 502.339844 503.53125 C 500.277344 511.976562 504.160156 520.265625 507.839844 527.652344 C 511.636719 535.277344 514.832031 542.996094 516.109375 551.476562 C 517.285156 559.28125 516.890625 567.265625 514.910156 574.90625 C 513.28125 581.210938 509.941406 593.085938 504.160156 596.832031 C 506.207031 584.453125 503.121094 573.4375 496.179688 563.328125 C 503.101562 589.714844 493.261719 616.847656 476.941406 637.75 C 463.980469 654.347656 442.769531 670.277344 421.386719 673.339844 C 430.332031 663.828125 436.625 653.816406 435.191406 639.707031 C 427.476562 650.242188 418.773438 658.054688 408.914062 666.527344 C 399.101562 674.957031 390.179688 684.496094 383.746094 695.785156 C 377.082031 684.734375 368.75 675.402344 359.050781 666.945312 C 349.695312 658.785156 339.28125 651.308594 333.121094 640.238281 C 330.300781 648.679688 333.601562 657.296875 345.117188 672.277344 C 314.34375 669.757812 257.847656 620.742188 271.679688 563.125 C 264.449219 572.667969 262.476562 585.152344 263.953125 596.808594 C 253.175781 584.460938 249.609375 566.382812 252.089844 550.453125 C 253.429688 541.851562 256.859375 534.382812 260.703125 526.667969 C 262.410156 523.242188 263.996094 519.738281 265.007812 516.035156 C 265.707031 513.464844 267.726562 506.496094 265.425781 504.40625 C 262.121094 520.542969 250.417969 531.644531 241.582031 544.792969 C 237.265625 551.210938 234.0625 558.398438 233.140625 566.132812 C 232.191406 574.070312 232.734375 581.660156 230.28125 589.421875 C 225.839844 603.449219 214.835938 616.644531 200.847656 621.867188 C 187.433594 626.875 171.441406 623.457031 160.183594 614.910156 C 147.476562 605.265625 143.152344 589.960938 143.152344 574.640625 C 147.792969 584.96875 153.9375 595.429688 166.855469 595.0625 C 178.628906 594.726562 187.925781 584.703125 187.753906 573.019531 C 187.597656 562.023438 181.292969 550.355469 173.777344 542.617188 C 170.121094 538.855469 165.882812 535.699219 161.328125 533.097656 C 158.816406 531.664062 156.210938 530.402344 153.539062 529.285156 C 151.546875 528.457031 147.050781 527.789062 145.671875 526.226562 C 167.207031 521.816406 191.695312 528.730469 201.082031 550.207031 C 205.925781 561.292969 206.246094 574.40625 200.597656 585.257812 C 198.015625 590.222656 194.261719 594.527344 189.675781 597.734375 C 183.003906 602.402344 177.375 601.941406 169.734375 603.117188 C 186.21875 608.621094 202.355469 600.273438 210.765625 585.652344 C 217.480469 573.976562 217.9375 558.769531 213.671875 546.160156 C 209.726562 534.511719 201.242188 524.738281 190.066406 519.515625 C 174.164062 512.085938 159.242188 516.976562 142.710938 517.558594 C 159.578125 510.921875 176.445312 504.28125 193.675781 497.5 C 201.902344 503.433594 210.375 508.234375 220.917969 506.804688 C 229.808594 505.597656 237.980469 499.75 242.582031 492.117188 C 246.90625 484.945312 247.84375 476.039062 246.296875 467.902344 C 245.332031 462.824219 243.246094 458.066406 241.785156 453.128906 C 240.253906 447.949219 239.742188 442.515625 238.972656 437.1875 C 229.492188 447.308594 211.800781 442 209.125 428.273438 C 206.625 415.449219 217.191406 408.15625 228.730469 409.902344 C 220.929688 402.34375 207.679688 406.890625 203.25 415.761719 C 195.726562 430.835938 207.796875 443.207031 221.140625 448.03125 C 196.835938 450.5 180.035156 418.230469 196.40625 399.945312 C 203.335938 392.203125 215.167969 390.039062 224.285156 395.175781 C 235.796875 401.667969 239.246094 415.503906 237.71875 427.824219 C 251.964844 396.789062 213.839844 359.933594 184.273438 379.167969 C 170.84375 387.90625 166.789062 404.53125 168.261719 419.703125 C 169.855469 436.148438 178.96875 450.558594 191.078125 461.390625 C 187.050781 468.035156 186.058594 475.339844 187.800781 483.582031 C 162.023438 466.003906 145.457031 433.179688 149.949219 401.910156 C 153.964844 373.96875 178.171875 351.851562 206.972656 354.027344 C 223.945312 355.308594 236.902344 365.679688 246.625 378.960938 C 245.769531 367.371094 235.121094 355.5625 218.90625 347.9375 C 219.332031 320.328125 249.832031 297.910156 286.105469 298.542969 C 282.984375 292.277344 271.109375 290.496094 265.140625 289.867188 C 255.375 288.835938 245.496094 290.835938 236.871094 295.535156 C 218.78125 305.382812 208.777344 324.851562 207.671875 344.953125 C 204.179688 344.953125 200.96875 344.953125 197.636719 344.953125 C 197.636719 305.988281 205.957031 267.707031 226.308594 234.03125 C 243.761719 205.148438 269.394531 182.542969 299.273438 167.113281 C 318.765625 157.050781 336.457031 146.34375 352.628906 131.414062 C 373.175781 138.019531 393.921875 138.140625 414.878906 131.609375 C 429.210938 146.445312 447.425781 156.484375 465.566406 165.882812 C 481.046875 173.90625 495.683594 183.199219 508.726562 194.832031 C 533.386719 216.828125 550.765625 245.488281 560.605469 276.917969 C 567.480469 298.894531 570.890625 321.707031 570.890625 344.722656 C 567.191406 345.375 563.886719 345.128906 560.523438 345.015625 C 558.769531 327.929688 552.457031 311.042969 538.316406 300.449219 C 520.796875 287.324219 498.25 285.871094 479.910156 298.128906 C 520.582031 300.078125 544.675781 317.277344 549.421875 347.667969 C 534.875 353.191406 524.746094 363.144531 520.539062 379.636719 C 529.320312 368.839844 538.105469 359.535156 551.96875 355.667969 C 563.78125 352.371094 576.597656 353.65625 587.554688 359.144531 C 618.097656 374.441406 624.121094 412.636719 612.609375 442.042969 C 606.015625 458.882812 594.226562 472.785156 579.996094 483.742188 C 581.195312 475.726562 580.765625 468.464844 576.671875 461.730469 C 589.65625 450.449219 598.585938 434.113281 599.824219 416.816406 C 600.890625 401.945312 594.589844 385.03125 580.8125 377.792969 C 567.367188 370.726562 550.988281 373.332031 540.136719 383.746094 C 534.09375 389.550781 529.539062 397.050781 527.769531 405.28125 C 526.539062 410.996094 525.296875 423.152344 529.90625 427.652344 Z M 443.898438 541.46875 C 451.574219 540.464844 458.144531 537.300781 464.316406 533.324219 C 484.644531 520.238281 491.402344 495.792969 480.347656 475.542969 C 475.066406 465.871094 466.980469 458.996094 457.777344 453.265625 C 455.570312 451.890625 453.402344 450.449219 451.21875 449.035156 C 452.601562 448.570312 453.675781 448.628906 454.746094 448.746094 C 483.121094 451.882812 506.375 427.941406 502.625 399.613281 C 501.953125 394.554688 499.527344 390.109375 498.421875 385.261719 C 495.980469 374.554688 499.523438 364.960938 504.695312 355.839844 C 506.671875 352.347656 509.113281 349.117188 511.386719 345.699219 C 499.96875 336.363281 488.871094 326.84375 476.632812 318.800781 C 467.289062 312.660156 457.523438 307.65625 446.066406 306.664062 C 436.617188 305.84375 427.8125 308.082031 419.171875 311.449219 C 404.605469 317.125 389.703125 320.324219 373.9375 318.410156 C 364.164062 317.226562 354.992188 314.089844 345.902344 310.601562 C 330.09375 304.542969 314.738281 305 299.769531 313.355469 C 283.945312 322.183594 270.578125 334.230469 256.496094 345.640625 C 258.867188 349.09375 261.21875 352.214844 263.25 355.535156 C 270.269531 367.023438 271.632812 378.488281 266.894531 391.824219 C 258.46875 415.542969 272.285156 441.625 296.578125 447.574219 C 302.960938 449.140625 309.460938 449.464844 316.078125 448.777344 C 315.363281 449.636719 314.617188 450.167969 313.84375 450.65625 C 306.171875 455.496094 298.542969 460.335938 292.570312 467.398438 C 278.117188 484.476562 278.140625 507.265625 292.910156 524.054688 C 301.226562 533.507812 311.757812 539.191406 324.027344 541.550781 C 334.417969 565.886719 362.492188 576.519531 383.933594 563.890625 C 400.988281 574.929688 431.332031 569.554688 443.898438 541.46875 Z M 242.578125 274.394531 C 265.453125 267.28125 289.476562 259.460938 313.660156 264.511719 C 322.640625 266.386719 331.128906 270.039062 338.894531 274.890625 C 347.042969 279.976562 353.796875 287.121094 362.378906 291.503906 C 378.5625 299.769531 398.5 297.265625 412.878906 286.414062 C 420.648438 280.550781 427.632812 274.277344 436.53125 270.0625 C 444.699219 266.195312 453.539062 263.914062 462.546875 263.203125 C 484.132812 261.492188 504.96875 268.109375 525.257812 274.546875 C 495.121094 251.949219 461.058594 244.632812 424.464844 247.113281 C 419.96875 265.554688 409.71875 283.140625 389.285156 285.601562 C 365.03125 288.519531 345.742188 270.769531 343.015625 247.234375 C 306.050781 244.507812 272.332031 251.914062 242.578125 274.394531 Z M 357.003906 166.714844 C 346.667969 176.152344 335.1875 198.941406 351.6875 208.628906 C 349.140625 213.878906 343.769531 211.886719 341.109375 207.921875 C 338.433594 203.933594 338.734375 198.816406 338.453125 194.238281 C 333.089844 201.066406 329.175781 209.121094 330.558594 218 C 331.78125 225.832031 336.355469 232.613281 344.402344 234.410156 C 350.902344 216.800781 364.683594 204.757812 384 204.832031 C 403.136719 204.90625 416.664062 217.089844 423.0625 234.496094 C 431.285156 232.464844 436.386719 225.980469 437.277344 217.652344 C 438.023438 210.644531 435.75 199.515625 429.21875 195.488281 C 429.15625 201.136719 429.007812 209.246094 422.617188 211.683594 C 420.4375 212.511719 415.789062 212.613281 416.160156 209.078125 C 416.386719 206.933594 420.804688 204.425781 421.875 202.351562 C 428.265625 189.976562 419.15625 174.996094 410.453125 166.601562 C 411.683594 174.003906 412.886719 181.445312 408.367188 188.039062 C 406.261719 191.109375 393.9375 201.332031 391.730469 194.363281 C 395.085938 191.542969 397.699219 189.761719 399.125 185.371094 C 400.632812 180.730469 400.351562 175.984375 398.644531 171.441406 C 394.988281 161.691406 388.753906 152.429688 383.824219 143.265625 C 379.144531 153.050781 372.3125 162.117188 368.859375 172.457031 C 367.539062 176.414062 367.066406 180.609375 368.484375 184.613281 C 370.007812 188.933594 373.511719 191.117188 375.992188 194.675781 C 373.773438 201.523438 360.945312 190.667969 358.949219 187.714844 C 354.554688 181.210938 355.410156 173.941406 357.003906 166.714844 Z M 383.273438 278.601562 C 399.011719 278.667969 413.328125 267.296875 416.40625 251.785156 C 422.375 221.675781 386.085938 199.9375 362.433594 219.570312 C 339.144531 238.902344 352.742188 278.476562 383.273438 278.601562 Z M 383.273438 278.601562 " fill-opacity="1" fill-rule="nonzero"/></g><path fill="#ff9933" d="M 383.976562 84.402344 C 394.515625 97.539062 405.308594 109.90625 418.433594 121.160156 C 395.023438 128.363281 372.445312 128.269531 348.75 121.089844 C 362.222656 110.074219 373.28125 97.671875 383.976562 84.402344 Z M 383.976562 84.402344 " fill-opacity="1" fill-rule="nonzero"/><path fill="#ff9933" d="M 217.023438 460.453125 C 238.691406 460.636719 237.738281 494.582031 216.09375 493.691406 C 195.144531 492.828125 195.945312 460.273438 217.023438 460.453125 Z M 217.023438 460.453125 " fill-opacity="1" fill-rule="nonzero"/><path fill="#ff9933" d="M 550.992188 460.414062 C 572.496094 460.894531 571.722656 493.957031 550.339844 493.636719 C 529.175781 493.316406 529.804688 459.941406 550.992188 460.414062 Z M 550.992188 460.414062 " fill-opacity="1" fill-rule="nonzero"/><path fill="#ff9933" d="M 367.867188 348.210938 C 371.503906 338.675781 381.464844 333.199219 383.53125 322.453125 C 385.519531 333.152344 394.984375 338.878906 399.46875 348.375 C 414.789062 338.644531 429.464844 328.96875 448.441406 330.230469 C 456.742188 330.785156 465.191406 333.179688 472.5625 337.03125 C 477.355469 339.535156 489.785156 346.316406 486.679688 353.320312 C 483.007812 361.605469 472.753906 351.757812 468.5625 349.4375 C 461.339844 345.441406 453.140625 343.292969 444.875 343.40625 C 436.394531 343.527344 428.449219 346.644531 421.371094 351.148438 C 414.03125 355.820312 406.839844 360.921875 397.75 360.9375 C 387.898438 373.652344 375.25 370.167969 369.453125 360.824219 C 361.046875 361.089844 354.269531 356.675781 347.636719 352.097656 C 340.503906 347.179688 332.398438 343.855469 323.671875 343.417969 C 315.960938 343.03125 308.300781 344.902344 301.417969 348.332031 C 296.6875 350.683594 286.707031 360.878906 281.628906 354.882812 C 271.398438 342.816406 311.070312 330.753906 318.238281 330.175781 C 326.617188 329.496094 335.027344 330.996094 342.824219 334.058594 C 351.921875 337.632812 359.128906 344.082031 367.867188 348.210938 Z M 383.574219 359.992188 C 395.511719 360.089844 394.941406 341.65625 383.0625 342.265625 C 371.828125 342.839844 372.417969 359.90625 383.574219 359.992188 Z M 383.574219 359.992188 " fill-opacity="1" fill-rule="nonzero"/><path fill="#ff9933" d="M 468.109375 506.128906 C 453.980469 508.992188 439.996094 507.726562 426.035156 505.792969 C 398.261719 501.953125 370.492188 501.738281 342.707031 505.664062 C 333.058594 507.027344 323.386719 508.144531 313.609375 507.945312 C 308.769531 507.847656 303.957031 507.535156 298.070312 506.40625 C 326.078125 494.605469 354.089844 487.285156 383.558594 487.03125 C 413.144531 486.78125 441.175781 494.214844 468.109375 506.128906 Z M 468.109375 506.128906 " fill-opacity="1" fill-rule="nonzero"/><path fill="#ff9933" d="M 294.4375 379.613281 C 288.359375 379.636719 283.152344 377.867188 278.886719 373.558594 C 279.945312 372.234375 281.222656 372.9375 282.300781 373.011719 C 289.117188 373.457031 295.308594 372.148438 301.101562 368.148438 C 312.507812 360.277344 324.949219 358.441406 338.152344 363.089844 C 344.953125 365.484375 350.441406 369.792969 355.257812 375.0625 C 363.445312 384.015625 363.460938 384.003906 375.035156 385.480469 C 370.765625 389.777344 365.859375 391.246094 360.382812 390.804688 C 341.363281 411.757812 307.660156 409.296875 294.4375 379.613281 Z M 346.464844 377.148438 C 345.320312 385.632812 339.765625 393.175781 330.53125 392.730469 C 318.71875 392.15625 314.453125 380.839844 317.359375 370.710938 C 311.621094 372.292969 306.726562 374.316406 301.878906 377.050781 C 312.082031 398.191406 338.984375 402.386719 354.828125 384.984375 C 351.910156 382.25 349.277344 379.785156 346.464844 377.148438 Z M 346.464844 377.148438 " fill-opacity="1" fill-rule="nonzero"/><path fill="#ff9933" d="M 406.558594 390.753906 C 401.371094 391.171875 396.6875 389.777344 392.136719 384.859375 C 401.738281 386.65625 406.5625 380.980469 411.710938 375.488281 C 425.566406 360.703125 441.5 356.808594 458.59375 363.824219 C 460.949219 364.792969 463.351562 365.921875 465.332031 367.480469 C 471.097656 372.019531 477.625 373.425781 484.746094 372.96875 C 485.929688 372.890625 487.125 372.957031 488.914062 372.957031 C 484.300781 378.003906 478.695312 379.332031 472.816406 379.925781 C 459.242188 409.628906 425.5625 411.535156 406.558594 390.753906 Z M 450.265625 370.710938 C 452.96875 382.066406 448.660156 390.378906 439.410156 392.367188 C 429.601562 394.472656 423.15625 389.167969 420.828125 377.671875 C 418.316406 379.980469 415.519531 382.554688 412.734375 385.117188 C 430.160156 405.636719 458.769531 394.578125 465.246094 377.046875 C 460.851562 373.894531 455.964844 371.835938 450.265625 370.710938 Z M 450.265625 370.710938 " fill-opacity="1" fill-rule="nonzero"/><path fill="#ff9933" d="M 422.933594 525.589844 C 422.097656 526.859375 418.46875 526.652344 417.136719 526.964844 C 415.082031 527.445312 413.074219 528.117188 411.164062 529.015625 C 407.84375 530.574219 404.878906 532.796875 402.398438 535.5 C 396.78125 541.613281 392.492188 550.023438 382.789062 549.191406 C 373.84375 548.421875 370.699219 540.34375 365.246094 534.675781 C 359.464844 528.667969 352.617188 527.292969 344.75 525.804688 C 361.46875 515.507812 406.128906 515.679688 422.933594 525.589844 Z M 422.933594 525.589844 " fill-opacity="1" fill-rule="nonzero"/><path fill="#ff9933" d="M 361.964844 443.359375 C 361.058594 448.429688 357.496094 454.402344 351.59375 450.050781 C 346.546875 446.328125 345.101562 437.113281 348.929688 432.25 C 353.984375 425.824219 360.980469 429.535156 365.941406 433.78125 C 372.121094 439.070312 378.054688 444.660156 384.105469 450.097656 C 390.351562 444.453125 396.464844 438.613281 402.839844 433.117188 C 407.453125 429.136719 414.390625 426.160156 419.183594 431.679688 C 423.4375 436.574219 422.046875 444.429688 417.816406 448.804688 C 412.320312 454.484375 407.574219 449.570312 406.71875 443.128906 C 399.03125 450.054688 391.6875 456.671875 384.003906 463.59375 C 376.71875 456.90625 369.515625 450.289062 361.964844 443.359375 Z M 361.964844 443.359375 " fill-opacity="1" fill-rule="nonzero"/><path fill="#ff9933" d="M 364.839844 245.285156 C 365.050781 221.453125 401.804688 221.78125 402.382812 245.375 C 402.636719 255.710938 393.574219 264.382812 383.351562 264.332031 C 373.128906 264.28125 364.753906 255.425781 364.839844 245.285156 Z M 364.839844 245.285156 " fill-opacity="1" fill-rule="nonzero"/></svg>