<svg xmlns="http://www.w3.org/2000/svg" xmlns:xlink="http://www.w3.org/1999/xlink" width="1024" zoomAndPan="magnify" viewBox="0 0 768 767.999994" height="1024" preserveAspectRatio="xMidYMid meet" version="1.0"><defs><clipPath id="b22ab08659"><path d="M 100.542969 101.25 L 667.542969 101.25 L 667.542969 666.75 L 100.542969 666.75 Z M 100.542969 101.25 " clip-rule="nonzero"/></clipPath></defs><g clip-path="url(#b22ab08659)"><path fill="#d4af37" d="M 654.796875 455.566406 L 654.796875 430.222656 C 655.105469 428.671875 655.261719 427.097656 655.261719 425.5 C 655.261719 400.273438 615.289062 380.511719 564.230469 380.511719 C 552.421875 380.511719 541.199219 381.578125 530.941406 383.511719 C 513.617188 333.257812 482.542969 273.933594 432.234375 239.988281 C 432.914062 239.386719 433.535156 238.761719 434.101562 238.152344 C 443.214844 228.050781 442.433594 220.53125 440.191406 216.003906 C 438.539062 212.707031 435.675781 210.25 432.121094 209.085938 C 429.957031 208.359375 427.65625 208.191406 425.425781 208.519531 C 426.003906 207.328125 426.648438 206.105469 427.339844 204.871094 C 445.695312 172.441406 462.988281 136.828125 452.09375 118.699219 C 439.515625 97.761719 392.960938 108.960938 368.230469 118.472656 C 364.382812 116.003906 360.238281 113.242188 355.777344 110.183594 C 327.230469 90.640625 304.957031 106.730469 281.628906 124.769531 C 259.207031 113.09375 208.808594 102.40625 187.699219 128.96875 C 170.160156 151.050781 201.492188 192.382812 220.449219 213.816406 C 218.332031 214.179688 216.394531 214.835938 214.492188 215.832031 C 208.851562 218.765625 205.964844 224.722656 207.140625 230.972656 C 208.230469 236.78125 212.148438 241.550781 217.652344 245.46875 C 214.152344 249.5 209.917969 253.859375 204.992188 258.464844 C 171.089844 290.253906 79.988281 400.304688 105.265625 486.273438 C 130.921875 573.488281 196.238281 616.335938 304.242188 616.335938 C 312.292969 616.335938 320.582031 616.097656 329.109375 615.625 L 329.109375 624.421875 C 329.109375 632.847656 333.070312 640.910156 339.730469 646.003906 C 356.671875 659.003906 386.167969 666.773438 418.632812 666.773438 C 451.097656 666.773438 483.402344 657.703125 500.84375 643.648438 C 507.09375 638.609375 510.683594 630.96875 510.683594 622.679688 L 510.683594 597.335938 C 525.6875 602.113281 543.601562 604.753906 562.511719 604.753906 C 595.019531 604.753906 627.28125 595.683594 644.71875 581.628906 C 650.96875 576.589844 654.558594 568.949219 654.558594 560.660156 L 654.558594 536.109375 C 655.320312 535.554688 656.042969 534.988281 656.757812 534.421875 C 663.007812 529.382812 666.597656 521.738281 666.597656 513.449219 L 666.597656 483.207031 C 666.902344 481.65625 667.0625 480.082031 667.0625 478.484375 C 667.0625 470.058594 662.609375 462.246094 654.773438 455.585938 Z M 656.359375 478.460938 C 656.359375 479.605469 656.203125 480.75 655.894531 481.902344 C 654.253906 488.144531 648.207031 494.371094 638.652344 499.570312 C 635.207031 501.4375 631.300781 503.179688 626.988281 504.742188 C 613.601562 509.589844 596.222656 512.703125 576.066406 512.703125 C 550.871094 512.703125 530.011719 507.835938 515.878906 500.8125 C 514.917969 500.339844 514 499.851562 513.105469 499.351562 C 511.226562 498.3125 509.480469 497.234375 507.875 496.125 C 523.476562 501.539062 542.546875 504.550781 562.761719 504.550781 C 595.269531 504.550781 627.53125 495.46875 644.96875 481.429688 C 648.851562 478.292969 651.707031 474.160156 653.316406 469.492188 C 655.320312 472.449219 656.371094 475.472656 656.371094 478.460938 Z M 485.339844 519.136719 C 486.3125 525.703125 489.675781 531.785156 494.785156 536.042969 C 495.066406 536.289062 495.363281 536.515625 495.667969 536.753906 C 512.609375 549.765625 542.105469 557.523438 574.570312 557.523438 C 585.40625 557.523438 596.210938 556.515625 606.445312 554.644531 C 594.5 557.917969 580.152344 559.921875 564.015625 559.921875 C 547.878906 559.921875 533.136719 557.875 521.101562 554.511719 C 517.046875 553.660156 497.398438 548.269531 487.867188 533.222656 C 484.207031 527.445312 484.59375 522.328125 485.351562 519.136719 Z M 420.128906 621.941406 C 372.839844 621.941406 340.839844 604.789062 339.84375 588.46875 C 339.832031 588.222656 339.820312 587.949219 339.820312 587.6875 C 339.820312 571.144531 372.09375 553.421875 420.128906 553.421875 C 441.28125 553.421875 459.375 556.867188 473.007812 562.121094 C 477.335938 563.785156 481.21875 565.640625 484.605469 567.632812 C 491.410156 571.632812 496.199219 576.148438 498.625 580.792969 C 499.8125 583.078125 500.433594 585.390625 500.433594 587.6875 C 500.433594 588.820312 500.277344 589.976562 499.96875 591.132812 C 499.800781 591.765625 499.585938 592.398438 499.335938 593.035156 C 493.324219 607.832031 463.011719 621.941406 420.140625 621.941406 Z M 483.734375 547.183594 C 489.9375 552.9375 498.589844 557.894531 509.050781 561.757812 L 509.050781 577.835938 C 505.203125 569.003906 496.246094 561.203125 483.734375 555.222656 Z M 483.960938 447.015625 C 490.300781 452.894531 499.1875 457.941406 509.957031 461.839844 L 509.957031 485.46875 C 504.679688 483.566406 499.902344 481.359375 495.757812 478.914062 C 495.507812 478.765625 495.261719 478.621094 495.023438 478.460938 C 494.601562 478.210938 494.195312 477.953125 493.800781 477.691406 C 493.664062 477.601562 493.515625 477.511719 493.378906 477.417969 C 492.328125 476.730469 491.332031 476.015625 490.378906 475.289062 C 488.738281 474.035156 487.355469 472.460938 486.3125 470.703125 C 484.796875 468.167969 483.960938 465.222656 483.960938 462.199219 Z M 614.542969 485.503906 C 610.523438 486.921875 606.253906 488.175781 601.816406 489.253906 L 601.816406 466.605469 C 606.265625 465.632812 610.523438 464.488281 614.542969 463.1875 Z M 595.882812 490.566406 C 585.394531 492.671875 574.117188 493.828125 562.75 493.828125 C 545.253906 493.828125 528.4375 491.371094 514.542969 487.011719 L 514.542969 463.390625 C 528.742188 467.886719 545.761719 470.476562 564.242188 470.476562 C 575.417969 470.476562 586.074219 469.527344 595.894531 467.785156 L 595.894531 490.578125 Z M 626.351562 538.464844 C 622.332031 539.878906 618.0625 541.136719 613.625 542.214844 L 613.625 519.566406 C 618.074219 518.59375 622.332031 517.449219 626.351562 516.144531 Z M 607.703125 543.539062 C 597.21875 545.644531 585.929688 546.800781 574.570312 546.800781 C 557.347656 546.800781 540.804688 544.421875 527.035156 540.1875 L 527.035156 516.566406 C 541.097656 520.9375 557.878906 523.4375 576.066406 523.4375 C 587.242188 523.4375 597.898438 522.488281 607.714844 520.742188 L 607.714844 543.539062 Z M 521.101562 538.183594 C 513.625 535.429688 507.195312 532.078125 502.203125 528.25 C 498.238281 525.207031 495.835938 520.402344 495.78125 515.363281 C 495.78125 515.296875 495.78125 515.230469 495.78125 515.171875 L 495.78125 499.988281 C 497.492188 501.574219 499.382812 503.089844 501.441406 504.550781 C 502.609375 505.378906 503.832031 506.179688 505.113281 506.960938 C 509.777344 509.816406 515.144531 512.375 521.101562 514.570312 L 521.101562 538.203125 Z M 601.589844 566.773438 C 606.039062 565.800781 610.296875 564.65625 614.316406 563.355469 L 614.316406 585.660156 C 610.296875 587.078125 606.027344 588.335938 601.589844 589.410156 L 601.589844 566.761719 Z M 644.074219 460.46875 C 644.074219 460.535156 644.074219 460.59375 644.074219 460.660156 C 644.019531 465.609375 641.902344 470.128906 638.230469 473.082031 C 634.042969 476.46875 628.84375 479.527344 622.898438 482.1875 L 622.898438 460.140625 C 631.472656 456.605469 638.660156 452.304688 644.074219 447.414062 Z M 644.539062 425.5 C 644.539062 426.644531 644.378906 427.789062 644.074219 428.941406 C 639.996094 444.410156 608.949219 459.753906 564.242188 459.753906 C 516.957031 459.753906 484.957031 442.597656 483.960938 426.28125 C 483.949219 426.023438 483.9375 425.761719 483.9375 425.5 C 483.9375 408.957031 516.207031 391.234375 564.242188 391.234375 C 612.277344 391.234375 644.550781 408.957031 644.550781 425.5 Z M 451.890625 333.371094 C 452.773438 336.882812 450.746094 340.574219 447.292969 341.75 C 445.378906 342.410156 443.351562 342.238281 441.5625 341.242188 C 439.796875 340.246094 438.5625 338.605469 438.109375 336.621094 C 438.109375 336.589844 438.097656 336.554688 438.085938 336.519531 C 442.910156 330.222656 446.117188 324.855469 448.234375 320.484375 C 449.523438 324.5625 450.757812 328.855469 451.890625 333.371094 Z M 436.367188 329.792969 C 434.394531 322.726562 431.9375 315.796875 429.289062 309.253906 C 433.386719 303.613281 436.128906 298.789062 437.972656 294.847656 C 440.644531 300.238281 443.226562 306.21875 445.640625 312.84375 C 444.28125 316.703125 441.609375 322.410156 436.367188 329.792969 Z M 426.84375 303.433594 C 424.351562 297.726562 421.757812 292.390625 419.289062 287.613281 C 422.496094 282.609375 424.726562 278.453125 426.277344 275.179688 C 429.074219 279.109375 431.9375 283.59375 434.746094 288.6875 C 433.457031 292.222656 431.101562 297.171875 426.84375 303.433594 Z M 416.390625 282.132812 C 411.839844 273.777344 408.035156 267.785156 406.539062 265.488281 C 406.539062 265.441406 406.539062 265.40625 406.550781 265.363281 C 409.347656 264.027344 411.828125 262.304688 413.605469 260.210938 C 416.335938 262.882812 419.390625 266.210938 422.597656 270.265625 C 421.40625 273.074219 419.472656 277.046875 416.390625 282.132812 Z M 275.320312 251.433594 C 268.449219 250.675781 262.332031 249.734375 256.898438 248.671875 C 249.796875 241.1875 245.8125 231.84375 243.988281 226.636719 C 245.078125 226.828125 246.199219 227.019531 247.375 227.234375 C 254.011719 228.414062 262.265625 229.886719 272.605469 231.515625 C 274.914062 237.347656 279.003906 245.511719 285.570312 252.398438 C 282.105469 252.125 278.683594 251.808594 275.3125 251.433594 Z M 294.230469 252.984375 C 294.230469 252.984375 294.222656 252.984375 294.210938 252.984375 C 286.679688 247.1875 281.800781 238.921875 278.890625 232.492188 C 286.746094 233.65625 295.660156 234.902344 305.757812 236.136719 C 307.867188 241.1875 311.195312 247.652344 316.167969 253.53125 C 308.792969 253.550781 301.445312 253.382812 294.222656 252.996094 Z M 323.457031 253.40625 C 323.457031 253.40625 323.445312 253.40625 323.4375 253.40625 C 318.160156 248.296875 314.46875 242.082031 312.023438 236.871094 C 312.078125 236.871094 312.125 236.882812 312.179688 236.882812 C 322.347656 238.074219 332.472656 238.582031 342.492188 238.433594 C 343.941406 242.195312 346.171875 247.050781 349.390625 251.945312 C 340.851562 252.703125 332.175781 253.191406 323.492188 253.394531 Z M 355.480469 251.34375 C 352.1875 246.816406 349.820312 242.09375 348.222656 238.277344 C 354.722656 238.027344 361.175781 237.460938 367.5625 236.613281 C 368.445312 240.53125 369.488281 245.09375 370.496094 249.40625 C 365.59375 250.167969 360.578125 250.8125 355.492188 251.355469 Z M 405.78125 252.714844 C 405.589844 253.292969 404.457031 254.617188 401.386719 255.976562 C 395 258.796875 386.9375 259.179688 383.800781 258.671875 C 382.285156 253.132812 378.671875 237.269531 376.25 226.363281 C 377.992188 223.308594 382.691406 216.941406 390.742188 218.925781 C 394.253906 219.796875 397.796875 223.171875 400.707031 228.449219 C 405.804688 237.6875 407.105469 248.808594 405.792969 252.726562 Z M 381.1875 269.078125 C 383.203125 269.519531 385.183594 269.574219 386.519531 269.574219 L 387.277344 269.574219 C 389.734375 269.550781 392.578125 269.292969 395.5 268.78125 C 395.351562 270.492188 395.195312 272.191406 395.023438 273.867188 C 392.375 276.3125 387.414062 280.027344 378.785156 283.957031 C 379.757812 278.101562 380.574219 272.984375 381.1875 269.078125 Z M 372.875 316.671875 C 380.980469 313.328125 386.597656 309.964844 390.414062 307.148438 C 389.304688 313.375 388.128906 319.171875 386.949219 324.472656 C 383.472656 327.167969 377.867188 330.675781 369.160156 334.234375 C 370.441406 328.582031 371.6875 322.636719 372.875 316.671875 Z M 366.261719 346.144531 C 366.738281 344.34375 367.203125 342.476562 367.664062 340.5625 C 375.21875 337.742188 380.914062 334.84375 385.148438 332.21875 C 383.40625 339.441406 381.742188 345.464844 380.371094 350.0625 C 379.273438 353.800781 375.421875 356.019531 371.617188 355.078125 C 369.691406 354.59375 368.0625 353.402344 367.042969 351.707031 C 366.035156 350.019531 365.753906 348.046875 366.25 346.15625 Z M 391.808594 298.871094 C 389.632812 301.167969 384.515625 305.59375 374.109375 310.292969 C 375.433594 303.351562 376.644531 296.523438 377.722656 290.273438 C 385.160156 287.171875 390.472656 284.070312 394.207031 281.410156 C 393.496094 287.488281 392.679688 293.332031 391.796875 298.878906 Z M 415.574219 237.6875 C 414.625 233.65625 413.199219 229.546875 411.410156 225.796875 C 413.128906 225.152344 414.75 224.507812 416.234375 223.882812 C 417.910156 226.613281 420.230469 230.023438 423.195312 233.476562 C 421.5 234.6875 419.050781 236.125 415.566406 237.699219 Z M 425.878906 219.480469 C 426.761719 219.027344 427.816406 218.949219 428.769531 219.265625 C 429.34375 219.457031 430.136719 219.863281 430.589844 220.78125 C 431.859375 223.351562 429.140625 227.382812 427.136719 229.808594 C 424.679688 226.929688 422.710938 224.101562 421.214844 221.734375 C 423.027344 220.90625 424.589844 220.136719 425.890625 219.480469 Z M 442.898438 124.214844 C 443.386719 125.019531 443.773438 125.933594 444.078125 126.933594 C 419.097656 138.378906 406.699219 140.679688 379.996094 125.597656 C 409.632812 115.652344 437.214844 114.726562 442.898438 124.214844 Z M 238.429688 123.601562 C 250.976562 124.769531 263.261719 128.257812 272.082031 132.085938 C 267.484375 135.570312 262.753906 139.015625 257.816406 142.183594 C 245.449219 150.144531 231.441406 150.429688 216.15625 143.035156 C 208.964844 139.546875 203.113281 135.085938 199.542969 132.050781 C 210.496094 122.675781 228.191406 122.640625 238.417969 123.601562 Z M 215.75 191.136719 C 215.75 191.136719 215.738281 191.125 215.726562 191.113281 C 212.613281 187.039062 209.507812 182.667969 206.621094 178.207031 C 194.402344 159.328125 192.171875 147.984375 193.589844 141.1875 C 203.882812 149.863281 220.039062 159 237.476562 159 C 246.074219 159 254.960938 156.792969 263.636719 151.199219 C 271.664062 146.023438 279.035156 140.316406 286.171875 134.789062 C 309.769531 116.527344 326.808594 103.320312 349.71875 119.027344 C 394.390625 149.648438 410.082031 153.441406 444.292969 138.574219 C 442.300781 151.230469 434.40625 170.039062 420.695312 194.78125 C 419.820312 196.367188 418.9375 197.964844 418.011719 199.585938 C 415.167969 204.613281 413.128906 209.46875 411.917969 214.042969 C 409.972656 214.847656 407.832031 215.675781 405.496094 216.535156 C 401.917969 212.335938 397.785156 209.605469 393.300781 208.507812 C 378.175781 204.78125 368.617188 216.683594 365.671875 223.511719 L 364.992188 225.097656 L 365.21875 226.105469 C 362.921875 226.398438 360.601562 226.648438 358.277344 226.863281 C 363.929688 212.910156 369.339844 198.894531 372.886719 184.207031 C 373.496094 181.320312 369.296875 180.164062 368.332031 182.9375 C 362.605469 198.441406 354.53125 213.148438 346.546875 227.609375 C 335.632812 227.996094 324.546875 227.542969 313.402344 226.238281 C 310.300781 225.878906 307.300781 225.515625 304.414062 225.140625 C 304.414062 225.140625 304.402344 225.140625 304.390625 225.140625 C 294.3125 210.976562 287.710938 193.957031 281.300781 177.820312 C 279.558594 173.335938 272.921875 175.589844 274.234375 180.199219 C 279.125 194.964844 283.859375 209.683594 291.140625 223.398438 C 272.648438 220.839844 259.117188 218.4375 249.265625 216.683594 C 243.863281 215.71875 239.347656 214.917969 235.484375 214.351562 C 231.625 210.261719 223.71875 201.589844 215.75 191.125 Z M 219.460938 225.324219 C 222.894531 223.523438 227.910156 223.917969 238.011719 225.605469 C 239.097656 229.273438 242.15625 238.253906 248.359375 246.78125 C 226.324219 241.222656 218.546875 233.554688 217.695312 228.980469 C 217.300781 226.804688 218.636719 225.753906 219.460938 225.324219 Z M 187.394531 579.613281 C 152.222656 559.492188 128.726562 527.96875 115.582031 483.21875 C 102.910156 440.152344 123.210938 390.691406 142.460938 356.777344 C 166.421875 314.585938 197.675781 280.039062 212.363281 266.269531 C 218.21875 260.777344 223.199219 255.566406 227.183594 250.789062 C 238.496094 255.917969 252.492188 258.953125 263.601562 260.6875 C 259.027344 268.589844 255.175781 276.765625 251.78125 285.269531 C 247.714844 295.414062 244.644531 305.96875 242.734375 316.738281 C 242.425781 318.355469 243.433594 319.976562 245.054688 320.394531 C 246.796875 320.859375 248.5625 319.761719 248.960938 318.007812 C 250.273438 312.96875 251.679688 307.949219 253.535156 303.082031 C 258.867188 288.644531 266.207031 274.714844 275.152344 262.214844 C 287.765625 263.574219 301.039062 264.242188 314.433594 264.242188 C 333.796875 264.242188 353.421875 262.835938 371.707031 260.074219 C 371.3125 262.734375 369.601562 274.128906 367.132812 288.519531 C 367.078125 288.542969 367.019531 288.554688 366.964844 288.574219 L 367.078125 288.90625 C 364.109375 306.128906 360.078125 327.550781 355.910156 343.425781 C 354.6875 348.117188 355.378906 352.996094 357.859375 357.1875 C 360.363281 361.386719 364.347656 364.332031 369.09375 365.496094 C 370.542969 365.847656 372.003906 366.019531 373.417969 366.019531 C 381.242188 366.019531 388.375 360.921875 390.699219 353.109375 C 394.636719 339.816406 401.058594 314.890625 404.808594 283.390625 C 409.144531 291.066406 414.601562 301.585938 419.359375 313.296875 C 422.675781 321.472656 425.664062 330.234375 427.679688 339.011719 C 428.800781 343.9375 431.984375 348.148438 436.378906 350.605469 C 439.0625 352.089844 442.039062 352.847656 445.039062 352.847656 C 446.988281 352.847656 448.925781 352.542969 450.792969 351.898438 C 459.476562 348.917969 464.550781 339.644531 462.320312 330.757812 C 457.210938 310.417969 444.542969 272.769531 417.003906 248.761719 C 418.925781 247.96875 420.726562 247.164062 422.394531 246.351562 C 467.484375 274.929688 495.632812 325.140625 511.328125 362.234375 C 514.738281 370.289062 517.769531 378.214844 520.464844 385.878906 C 492.089844 393.421875 473.222656 408.164062 473.222656 425.5 C 473.222656 425.886719 473.234375 426.292969 473.246094 426.679688 L 473.246094 462.199219 C 473.246094 470.625 477.210938 478.6875 483.867188 483.785156 C 484.265625 484.078125 484.660156 484.382812 485.070312 484.679688 L 485.070312 502.953125 C 477.367188 509.578125 473.007812 517.324219 473.007812 525.667969 C 473.007812 526.054688 473.019531 526.460938 473.03125 526.847656 L 473.03125 550.84375 C 458.21875 545.691406 440.023438 542.699219 420.152344 542.699219 C 369.09375 542.699219 329.121094 562.460938 329.121094 587.699219 C 329.121094 588.085938 329.132812 588.492188 329.144531 588.878906 L 329.144531 604.84375 C 270.078125 608.140625 222.496094 599.679688 187.40625 579.625 Z M 346.277344 637.488281 C 342.253906 634.410156 339.855469 629.507812 339.855469 624.410156 L 339.855469 609.226562 C 346.195312 615.101562 355.085938 620.152344 365.855469 624.046875 L 365.855469 647.679688 C 358.097656 644.882812 351.429688 641.453125 346.277344 637.5 Z M 370.429688 649.210938 L 370.429688 625.589844 C 384.628906 630.085938 401.660156 632.675781 420.128906 632.675781 C 431.304688 632.675781 441.960938 631.726562 451.777344 629.980469 L 451.777344 652.765625 C 441.292969 654.871094 430.003906 656.027344 418.644531 656.027344 C 401.136719 656.027344 384.335938 653.570312 370.429688 649.210938 Z M 457.710938 651.453125 L 457.710938 628.804688 C 462.613281 627.730469 467.269531 626.449219 471.648438 624.988281 L 471.648438 647.261719 C 467.269531 648.859375 462.601562 650.25 457.710938 651.441406 Z M 499.96875 622.65625 C 499.96875 627.683594 497.839844 632.28125 494.128906 635.269531 C 489.65625 638.882812 484.039062 642.121094 477.582031 644.90625 L 477.582031 622.824219 C 486.6875 619.203125 494.308594 614.730469 499.96875 609.609375 Z M 562.523438 593.996094 C 545.300781 593.996094 528.753906 591.617188 514.984375 587.382812 L 514.984375 563.761719 C 529.050781 568.132812 545.832031 570.636719 564.003906 570.636719 C 575.183594 570.636719 585.835938 569.683594 595.65625 567.941406 L 595.65625 590.722656 C 585.167969 592.828125 573.890625 593.984375 562.523438 593.984375 Z M 643.847656 560.625 C 643.847656 565.652344 641.71875 570.25 638.003906 573.238281 C 633.816406 576.613281 628.617188 579.671875 622.671875 582.34375 L 622.671875 560.308594 C 631.246094 556.773438 638.433594 552.472656 643.847656 547.582031 Z M 655.886719 513.429688 C 655.886719 515.875 655.375 518.21875 654.4375 520.324219 C 653.519531 522.375 652.183594 524.199219 650.484375 525.667969 C 650.335938 525.792969 650.1875 525.917969 650.042969 526.042969 C 648.171875 527.550781 646.101562 529 643.847656 530.367188 C 643.679688 530.46875 643.507812 530.574219 643.339844 530.675781 C 640.6875 532.269531 637.800781 533.765625 634.710938 535.148438 L 634.710938 513.101562 C 635.558594 512.75 636.398438 512.398438 637.210938 512.023438 C 640.757812 510.449219 644.050781 508.742188 647.042969 506.90625 C 650.359375 504.878906 653.316406 502.695312 655.875 500.382812 L 655.875 513.429688 Z M 655.886719 513.429688 " fill-opacity="1" fill-rule="nonzero"/></g><path fill="#d4af37" d="M 564.230469 452.496094 C 594.78125 452.496094 618.722656 440.628906 618.722656 425.488281 C 618.722656 410.351562 594.792969 398.484375 564.230469 398.484375 C 533.667969 398.484375 509.730469 410.339844 509.730469 425.488281 C 509.730469 440.640625 533.679688 452.496094 564.230469 452.496094 Z M 564.230469 405.199219 C 586.832031 405.199219 612.015625 413.519531 612.015625 425.488281 C 612.015625 437.457031 586.832031 445.792969 564.230469 445.792969 C 541.628906 445.792969 516.433594 437.457031 516.433594 425.488281 C 516.433594 413.519531 541.628906 405.199219 564.230469 405.199219 Z M 564.230469 405.199219 " fill-opacity="1" fill-rule="nonzero"/><path fill="#d4af37" d="M 420.128906 560.691406 C 389.578125 560.691406 365.628906 572.550781 365.628906 587.699219 C 365.628906 602.851562 389.578125 614.707031 420.128906 614.707031 C 450.679688 614.707031 474.617188 602.839844 474.617188 587.699219 C 474.617188 572.558594 450.679688 560.691406 420.128906 560.691406 Z M 420.128906 607.992188 C 397.527344 607.992188 372.332031 599.65625 372.332031 587.699219 C 372.332031 575.742188 397.527344 567.398438 420.128906 567.398438 C 442.730469 567.398438 467.914062 575.71875 467.914062 587.699219 C 467.914062 599.679688 442.742188 607.992188 420.128906 607.992188 Z M 420.128906 607.992188 " fill-opacity="1" fill-rule="nonzero"/></svg>