<svg xmlns="http://www.w3.org/2000/svg" xmlns:xlink="http://www.w3.org/1999/xlink" width="1024" zoomAndPan="magnify" viewBox="0 0 768 767.999994" height="1024" preserveAspectRatio="xMidYMid meet" version="1.0"><defs><clipPath id="96bb9dbc62"><path d="M 100.246094 108 L 665 108 L 665 661 L 100.246094 661 Z M 100.246094 108 " clip-rule="nonzero"/></clipPath></defs><path fill="#c2b8a3" d="M 628.46875 129.46875 C 626.910156 130.609375 625.210938 131.53125 623.398438 132.253906 C 624.957031 131.113281 626.65625 130.164062 628.46875 129.46875 Z M 628.46875 129.46875 " fill-opacity="1" fill-rule="nonzero"/><path fill="#c2b8a3" d="M 628.46875 129.46875 C 626.910156 130.609375 625.210938 131.53125 623.398438 132.253906 C 624.957031 131.113281 626.65625 130.164062 628.46875 129.46875 Z M 628.46875 129.46875 " fill-opacity="1" fill-rule="nonzero"/><path fill="#c2b8a3" d="M 623.398438 132.253906 C 625.210938 131.53125 626.910156 130.609375 628.46875 129.46875 C 626.65625 130.164062 624.957031 131.113281 623.398438 132.253906 Z M 623.398438 132.253906 " fill-opacity="1" fill-rule="nonzero"/><path fill="#c2b8a3" d="M 628.46875 129.46875 C 626.910156 130.609375 625.210938 131.53125 623.398438 132.253906 C 624.957031 131.113281 626.65625 130.164062 628.46875 129.46875 Z M 628.46875 129.46875 " fill-opacity="1" fill-rule="nonzero"/><path fill="#c2b8a3" d="M 157.023438 507.230469 C 157.023438 507.34375 157.023438 507.425781 157.023438 507.511719 C 156.941406 506.84375 156.882812 506.507812 156.882812 506.453125 C 156.882812 506.453125 156.910156 506.589844 156.941406 506.8125 C 156.941406 506.953125 156.996094 507.09375 157.023438 507.230469 Z M 157.023438 507.230469 " fill-opacity="1" fill-rule="nonzero"/><path fill="#c2b8a3" d="M 156.996094 505.199219 C 156.996094 505.253906 156.96875 505.28125 156.96875 505.339844 C 156.941406 505.449219 156.828125 505.949219 156.828125 506.035156 C 156.828125 506.007812 156.855469 505.867188 156.910156 505.53125 C 157.023438 504.921875 157.023438 505.003906 156.996094 505.199219 Z M 156.996094 505.199219 " fill-opacity="1" fill-rule="nonzero"/><path fill="#c2b8a3" d="M 157.46875 503.667969 C 157.46875 503.722656 157.441406 503.75 157.414062 503.804688 C 157.414062 503.832031 157.386719 503.863281 157.386719 503.863281 C 156.746094 505.003906 157.859375 502.46875 157.46875 503.667969 Z M 157.46875 503.667969 " fill-opacity="1" fill-rule="nonzero"/><path fill="#c2b8a3" d="M 157.359375 508.570312 C 157.386719 508.625 157.441406 508.707031 157.46875 508.765625 C 157.496094 508.847656 157.523438 508.929688 157.550781 509.015625 C 157.914062 510.128906 156.941406 507.871094 157.359375 508.570312 Z M 157.359375 508.570312 " fill-opacity="1" fill-rule="nonzero"/><path fill="#c2b8a3" d="M 159 501.214844 C 158.972656 501.269531 158.917969 501.328125 158.890625 501.382812 C 158.863281 501.410156 158.863281 501.410156 158.832031 501.4375 C 157.96875 502.414062 159.503906 500.519531 159 501.214844 Z M 159 501.214844 " fill-opacity="1" fill-rule="nonzero"/><path fill="#c2b8a3" d="M 158.863281 511.269531 C 158.917969 511.328125 158.972656 511.410156 159.027344 511.464844 L 159.058594 511.496094 C 159.726562 512.46875 158.164062 510.40625 158.863281 511.269531 Z M 158.863281 511.269531 " fill-opacity="1" fill-rule="nonzero"/><path fill="#c2b8a3" d="M 163.289062 515.5625 C 163.261719 515.535156 163.261719 515.535156 163.234375 515.503906 C 163.179688 515.476562 163.125 515.421875 163.066406 515.394531 C 163.039062 515.367188 163.039062 515.367188 163.011719 515.367188 C 164.15625 516.144531 163.707031 515.867188 163.289062 515.5625 Z M 163.289062 515.5625 " fill-opacity="1" fill-rule="nonzero"/><path stroke-linecap="round" transform="matrix(0.278566, 0, 0, 0.278566, 63.480746, 35.480687)" fill-opacity="1" fill="#c2b8a3" fill-rule="nonzero" stroke-linejoin="miter" d="M 456.606453 1852.300911 C 453.998229 1850.099346 460.294426 1854.993271 456.606453 1852.300911 Z M 456.606453 1852.300911 " stroke="#000000" stroke-width="1" stroke-opacity="1" stroke-miterlimit="10"/><path fill="#c2b8a3" d="M 190.675781 551.46875 C 189.949219 550.855469 191.703125 552.21875 190.675781 551.46875 Z M 190.675781 551.46875 " fill-opacity="1" fill-rule="nonzero"/><g clip-path="url(#96bb9dbc62)"><path fill="#c2b8a3" d="M 660.894531 334.550781 C 657.1875 328.644531 651.28125 324.996094 644.902344 323.964844 C 647.355469 323.40625 649.722656 322.429688 651.980469 321.011719 C 662.816406 314.214844 666.101562 299.894531 659.304688 289.058594 C 654.261719 281.035156 645.125 277.164062 636.324219 278.417969 C 636.9375 278.113281 637.523438 277.777344 638.132812 277.386719 C 649 270.589844 652.257812 256.273438 645.460938 245.40625 C 640.113281 236.855469 630.085938 233.011719 620.753906 235.101562 C 628.246094 227.636719 629.859375 215.742188 623.984375 206.382812 C 617.1875 195.542969 602.867188 192.257812 592.03125 199.054688 C 591.808594 199.195312 591.613281 199.332031 591.390625 199.472656 C 596.574219 192.0625 597.128906 182.007812 592.03125 173.871094 C 585.234375 163.035156 570.917969 159.75 560.082031 166.546875 C 559.941406 166.628906 559.800781 166.714844 559.691406 166.796875 C 561.5 160.640625 560.777344 153.789062 557.101562 147.9375 C 550.300781 137.101562 535.984375 133.816406 525.121094 140.613281 C 523.171875 141.835938 521.441406 143.3125 519.996094 144.984375 C 519.9375 140.863281 518.796875 136.710938 516.457031 132.949219 C 509.660156 122.113281 495.339844 118.828125 484.476562 125.625 C 482.054688 127.128906 480.019531 129.023438 478.378906 131.167969 C 478.320312 127.046875 477.179688 122.867188 474.839844 119.105469 C 468.042969 108.269531 453.722656 104.984375 442.886719 111.78125 C 436.480469 115.792969 432.71875 122.421875 432.105469 129.441406 C 431.550781 127.9375 430.855469 126.460938 429.960938 125.066406 C 423.164062 114.230469 408.847656 110.945312 397.984375 117.742188 C 392.4375 121.222656 388.875 126.65625 387.621094 132.617188 C 380.738281 122.03125 366.617188 118.882812 355.863281 125.625 C 346.921875 131.222656 343.132812 141.921875 345.863281 151.585938 C 338.789062 141.726562 325.164062 138.941406 314.71875 145.488281 C 303.855469 152.285156 300.597656 166.601562 307.394531 177.4375 C 314.191406 188.273438 328.507812 191.5625 339.34375 184.765625 C 348.285156 179.164062 352.101562 168.46875 349.34375 158.800781 C 356.421875 168.664062 370.070312 171.449219 380.488281 164.902344 C 386.03125 161.421875 389.625 155.988281 390.851562 150.027344 C 397.730469 160.613281 411.855469 163.761719 422.609375 157.019531 C 429.015625 153.007812 432.804688 146.351562 433.386719 139.359375 C 433.945312 140.863281 434.640625 142.339844 435.535156 143.730469 C 442.332031 154.59375 456.648438 157.855469 467.484375 151.058594 C 469.910156 149.554688 471.941406 147.660156 473.585938 145.515625 C 473.640625 149.636719 474.785156 153.816406 477.125 157.546875 C 483.921875 168.382812 498.238281 171.671875 509.074219 164.875 C 511.023438 163.648438 512.753906 162.171875 514.199219 160.5 C 514.257812 164.625 515.398438 168.773438 517.738281 172.535156 C 524.535156 183.371094 538.855469 186.660156 549.691406 179.863281 C 549.828125 179.777344 549.96875 179.695312 550.078125 179.609375 C 548.269531 185.765625 548.992188 192.621094 552.671875 198.46875 C 559.46875 209.304688 573.785156 212.59375 584.621094 205.796875 C 584.84375 205.65625 585.039062 205.515625 585.234375 205.378906 C 580.054688 212.789062 579.496094 222.84375 584.59375 230.976562 C 589.941406 239.53125 599.972656 243.375 609.304688 241.285156 C 601.835938 248.75 600.222656 260.644531 606.070312 270.003906 C 611.113281 278.027344 620.25 281.898438 629.054688 280.648438 C 628.441406 280.953125 627.828125 281.289062 627.242188 281.675781 C 616.378906 288.472656 613.121094 302.792969 619.917969 313.628906 C 623.621094 319.535156 629.527344 323.183594 635.90625 324.214844 C 633.453125 324.769531 631.085938 325.746094 628.832031 327.167969 C 617.996094 333.964844 614.707031 348.28125 621.503906 359.117188 C 623.761719 362.738281 626.851562 365.496094 630.390625 367.335938 C 626.296875 367.449219 622.144531 368.644531 618.410156 370.984375 C 607.324219 377.949219 603.925781 392.492188 610.808594 403.496094 C 611.921875 405.277344 613.257812 406.863281 614.734375 408.230469 C 608.382812 406.335938 601.222656 407.085938 595.152344 410.902344 C 583.953125 417.925781 580.527344 432.660156 587.519531 443.804688 C 589.023438 446.199219 590.863281 448.203125 592.949219 449.847656 C 586.070312 446.644531 577.742188 446.867188 570.804688 451.210938 C 561.332031 457.175781 557.628906 468.847656 561.390625 478.929688 C 553.894531 471.910156 542.363281 470.515625 533.253906 476.226562 C 525.09375 481.351562 521.21875 490.714844 522.695312 499.65625 C 522.5 499.292969 522.277344 498.957031 522.082031 498.597656 C 515.285156 487.761719 500.96875 484.472656 490.132812 491.269531 C 486.621094 493.472656 483.921875 496.453125 482.082031 499.824219 C 482.527344 494.949219 481.441406 489.878906 478.628906 485.421875 C 471.832031 474.585938 457.511719 471.296875 446.675781 478.09375 C 445.785156 478.652344 444.921875 479.292969 444.113281 479.933594 C 448.011719 472.800781 448.070312 463.832031 443.445312 456.449219 C 436.648438 445.585938 422.328125 442.328125 411.492188 449.125 C 407.898438 451.378906 405.113281 454.472656 403.277344 457.980469 C 402.828125 454.890625 401.742188 451.851562 399.988281 449.039062 C 393.191406 438.203125 378.875 434.917969 368.035156 441.714844 C 364.582031 443.886719 361.910156 446.785156 360.070312 450.125 C 359.707031 449.375 359.289062 448.621094 358.84375 447.898438 C 352.046875 437.035156 337.730469 433.773438 326.894531 440.570312 C 319.929688 444.917969 316.085938 452.382812 316.027344 460.015625 C 308.785156 450.878906 295.664062 448.453125 285.554688 454.804688 C 277.140625 460.070312 273.296875 469.820312 275.136719 479.011719 C 267.667969 471.4375 255.691406 469.792969 246.332031 475.671875 C 239.03125 480.238281 235.160156 488.234375 235.46875 496.257812 C 228.195312 487.203125 215.160156 484.835938 205.074219 491.160156 C 197.21875 496.089844 193.320312 504.949219 194.351562 513.582031 C 187.75 505.113281 176.132812 502.328125 166.410156 506.785156 C 168.835938 500.269531 168.304688 492.746094 164.320312 486.421875 C 161.84375 482.496094 158.386719 479.542969 154.460938 477.730469 C 156.019531 477.175781 157.550781 476.449219 159.027344 475.53125 C 169.894531 468.734375 173.179688 454.417969 166.355469 443.578125 C 165.046875 441.492188 163.457031 439.707031 161.703125 438.203125 C 167.582031 439.652344 174.042969 438.816406 179.585938 435.335938 C 190.449219 428.539062 193.710938 414.21875 186.914062 403.382812 C 186.382812 402.546875 185.828125 401.765625 185.214844 401.015625 C 190.0625 401.433594 195.101562 400.347656 199.558594 397.5625 C 210.425781 390.765625 213.683594 376.445312 206.886719 365.609375 C 205.160156 362.851562 202.957031 360.59375 200.453125 358.867188 C 204.378906 358.730469 208.308594 357.585938 211.871094 355.332031 C 222.738281 348.53125 226.023438 334.214844 219.199219 323.378906 C 218.308594 321.957031 217.304688 320.675781 216.191406 319.535156 C 221.09375 320.007812 226.164062 318.921875 230.675781 316.082031 C 241.511719 309.285156 244.800781 294.964844 238.003906 284.128906 C 237.863281 283.878906 237.695312 283.65625 237.527344 283.433594 C 242.347656 283.851562 247.363281 282.734375 251.761719 279.976562 C 262.152344 273.460938 265.609375 260.0625 259.898438 249.390625 C 265.359375 250.367188 271.207031 249.390625 276.277344 246.214844 C 286.75 239.640625 290.179688 226.074219 284.273438 215.378906 C 290.066406 216.714844 296.363281 215.851562 301.792969 212.425781 C 312.65625 205.628906 315.917969 191.308594 309.121094 180.472656 C 302.324219 169.636719 288.003906 166.351562 277.140625 173.148438 C 266.667969 179.722656 263.242188 193.289062 269.144531 203.984375 C 263.351562 202.648438 257.054688 203.511719 251.625 206.9375 C 241.234375 213.457031 237.78125 226.855469 243.488281 237.523438 C 238.03125 236.550781 232.179688 237.523438 227.109375 240.699219 C 216.273438 247.496094 212.988281 261.816406 219.785156 272.652344 C 219.921875 272.902344 220.089844 273.125 220.257812 273.347656 C 215.4375 272.929688 210.425781 274.042969 205.996094 276.800781 C 195.132812 283.597656 191.871094 297.917969 198.667969 308.753906 C 199.558594 310.175781 200.5625 311.457031 201.675781 312.597656 C 196.773438 312.125 191.703125 313.210938 187.191406 316.050781 C 176.355469 322.847656 173.070312 337.167969 179.867188 348.003906 C 181.59375 350.761719 183.792969 353.019531 186.300781 354.746094 C 182.371094 354.882812 178.445312 356.027344 174.878906 358.28125 C 164.015625 365.078125 160.757812 379.398438 167.554688 390.234375 C 168.082031 391.070312 168.640625 391.851562 169.253906 392.601562 C 164.378906 392.15625 159.363281 393.269531 154.90625 396.054688 C 144.070312 402.855469 140.78125 417.171875 147.578125 428.007812 C 148.890625 430.097656 150.476562 431.878906 152.230469 433.382812 C 146.355469 431.9375 139.890625 432.773438 134.347656 436.253906 C 123.511719 443.050781 120.226562 457.367188 127.023438 468.207031 C 129.5 472.132812 132.957031 475.085938 136.882812 476.894531 C 135.324219 477.453125 133.789062 478.207031 132.3125 479.125 C 121.449219 485.921875 118.191406 500.238281 124.988281 511.078125 C 127.632812 515.3125 131.421875 518.375 135.683594 520.15625 C 126.6875 524.417969 118.441406 530.101562 110.78125 536.566406 C 105.320312 541.1875 100.53125 547.179688 100.417969 554.644531 C 100.308594 561.105469 103.84375 567.066406 108.441406 571.386719 C 110.417969 573.253906 112.648438 574.980469 114.960938 576.457031 C 113.484375 579.546875 112.675781 582.972656 112.675781 586.59375 C 112.675781 599.800781 123.539062 610.496094 136.910156 610.496094 C 142.816406 610.496094 148.21875 608.40625 152.425781 604.953125 C 153.570312 605.871094 154.710938 606.792969 155.882812 607.65625 C 157.164062 608.601562 158.527344 609.4375 159.921875 610.132812 C 159.53125 616.097656 162.457031 622.085938 167.941406 625.261719 L 225.605469 658.550781 C 233.292969 663.007812 243.238281 660.332031 247.667969 652.644531 C 252.097656 644.957031 249.453125 635.011719 241.761719 630.582031 L 184.101562 597.292969 C 181.566406 595.84375 178.808594 595.148438 176.078125 595.148438 C 172.261719 595.148438 168.527344 596.484375 165.574219 598.992188 C 164.265625 598.269531 162.957031 597.488281 161.757812 596.566406 C 161.5625 596.402344 161.203125 596.09375 161.117188 596.039062 C 160.726562 595.734375 160.339844 595.398438 159.949219 595.0625 C 159.835938 594.980469 159.753906 594.898438 159.640625 594.8125 C 160.589844 592.277344 161.089844 589.519531 161.089844 586.652344 C 161.089844 573.449219 150.226562 562.75 136.855469 562.75 C 131.8125 562.75 127.105469 564.28125 123.234375 566.875 C 123.039062 566.761719 122.871094 566.679688 122.703125 566.566406 C 122.007812 566.148438 121.3125 565.703125 120.640625 565.257812 C 120.226562 564.980469 119.808594 564.671875 119.390625 564.394531 C 119.359375 564.367188 119.304688 564.339844 119.277344 564.308594 C 119.277344 564.308594 119.277344 564.308594 119.25 564.28125 L 119.222656 564.253906 C 119.167969 564.226562 119.109375 564.171875 119.054688 564.144531 C 119.027344 564.117188 119 564.085938 118.941406 564.058594 C 118.972656 564.058594 118.972656 564.085938 119 564.085938 C 118.164062 563.390625 117.328125 562.667969 116.546875 561.886719 C 116.15625 561.496094 115.796875 561.105469 115.433594 560.71875 C 115.265625 560.550781 115.125 560.355469 114.960938 560.1875 L 114.988281 560.214844 C 115.65625 561.191406 114.097656 559.128906 114.792969 559.992188 C 114.847656 560.046875 114.902344 560.132812 114.960938 560.1875 C 114.375 559.296875 113.902344 558.40625 113.371094 557.484375 C 113.398438 557.570312 113.425781 557.652344 113.457031 557.734375 C 113.816406 558.851562 112.871094 556.59375 113.261719 557.289062 C 113.289062 557.347656 113.34375 557.429688 113.371094 557.484375 C 113.289062 557.261719 113.234375 557.039062 113.148438 556.816406 C 113.09375 556.621094 113.039062 556.398438 112.980469 556.175781 C 112.953125 556.09375 112.953125 556.007812 112.925781 555.925781 C 112.925781 556.035156 112.925781 556.121094 112.925781 556.203125 C 112.84375 555.535156 112.785156 555.203125 112.785156 555.144531 C 112.785156 555.144531 112.816406 555.285156 112.84375 555.507812 C 112.871094 555.648438 112.898438 555.785156 112.925781 555.898438 C 112.925781 555.425781 112.84375 554.921875 112.84375 554.449219 C 112.84375 554.335938 112.898438 554.058594 112.898438 553.890625 C 112.898438 553.949219 112.871094 553.976562 112.871094 554.03125 C 112.84375 554.144531 112.730469 554.644531 112.730469 554.726562 C 112.730469 554.699219 112.757812 554.5625 112.816406 554.226562 C 112.925781 553.613281 112.925781 553.667969 112.898438 553.890625 C 113.011719 553.417969 113.148438 552.945312 113.316406 552.5 C 113.316406 552.527344 113.289062 552.554688 113.289062 552.554688 C 112.675781 553.695312 113.761719 551.132812 113.371094 552.359375 C 113.371094 552.414062 113.34375 552.445312 113.316406 552.5 C 113.484375 552.21875 113.621094 551.914062 113.789062 551.609375 C 114.097656 551.078125 114.457031 550.578125 114.792969 550.074219 C 114.765625 550.105469 114.765625 550.105469 114.738281 550.132812 C 113.84375 551.132812 115.378906 549.210938 114.875 549.910156 C 114.847656 549.964844 114.792969 550.019531 114.765625 550.074219 C 115.015625 549.796875 115.238281 549.519531 115.488281 549.238281 C 116.519531 548.097656 117.660156 547.039062 118.832031 546.007812 C 119.390625 545.507812 119.972656 545.035156 120.558594 544.558594 C 120.921875 544.28125 121.28125 543.976562 121.644531 543.695312 C 121.839844 543.558594 121.953125 543.445312 122.007812 543.417969 C 121.980469 543.417969 121.953125 543.445312 121.925781 543.472656 C 123.261719 542.386719 124.710938 541.414062 126.074219 540.410156 C 129.109375 538.179688 132.175781 536.0625 135.433594 534.199219 C 137.078125 533.25 138.777344 532.386719 140.503906 531.550781 C 141.3125 531.160156 142.121094 530.800781 142.929688 530.4375 C 143.066406 530.382812 143.207031 530.324219 143.316406 530.269531 C 143.375 530.242188 143.457031 530.214844 143.484375 530.1875 C 143.375 530.242188 143.207031 530.296875 142.984375 530.410156 C 143.234375 530.1875 143.792969 530.074219 144.125 529.933594 C 146.855469 528.847656 149.640625 527.929688 152.484375 527.148438 C 152.566406 527.121094 152.648438 527.09375 152.734375 527.066406 C 152.566406 531.550781 153.707031 536.121094 156.242188 540.214844 C 163.039062 551.050781 177.359375 554.335938 188.195312 547.539062 C 196.050781 542.609375 199.949219 533.75 198.917969 525.117188 C 206.132812 534.363281 219.339844 536.84375 229.507812 530.464844 C 236.804688 525.894531 240.675781 517.902344 240.371094 509.878906 C 247.640625 518.933594 260.675781 521.300781 270.761719 514.976562 C 279.148438 509.710938 283.019531 499.960938 281.179688 490.769531 C 288.644531 498.347656 300.625 499.988281 309.984375 494.113281 C 316.949219 489.765625 320.792969 482.300781 320.847656 474.667969 C 328.089844 483.804688 341.210938 486.226562 351.324219 479.878906 C 354.777344 477.703125 357.453125 474.808594 359.289062 471.464844 C 359.652344 472.214844 360.070312 472.96875 360.515625 473.691406 C 367.3125 484.558594 381.632812 487.816406 392.46875 481.019531 C 396.0625 478.761719 398.847656 475.671875 400.683594 472.160156 C 401.128906 475.253906 402.21875 478.289062 403.972656 481.101562 C 410.769531 491.9375 425.085938 495.226562 435.921875 488.429688 C 436.816406 487.871094 437.679688 487.257812 438.484375 486.589844 C 434.585938 493.722656 434.53125 502.691406 439.15625 510.074219 C 445.953125 520.9375 460.269531 524.195312 471.105469 517.398438 C 474.617188 515.199219 477.320312 512.21875 479.15625 508.847656 C 478.710938 513.722656 479.796875 518.792969 482.609375 523.25 C 489.40625 534.113281 503.726562 537.375 514.589844 530.574219 C 522.753906 525.449219 526.625 516.089844 525.148438 507.148438 C 525.34375 507.511719 525.566406 507.871094 525.761719 508.207031 C 532.558594 519.070312 546.875 522.332031 557.710938 515.535156 C 567.210938 509.570312 570.917969 497.898438 567.15625 487.816406 C 574.648438 494.835938 586.183594 496.230469 595.292969 490.519531 C 606.15625 483.722656 609.414062 469.402344 602.617188 458.566406 C 601.167969 456.253906 599.386719 454.304688 597.351562 452.6875 C 604.484375 456.03125 613.121094 455.78125 620.304688 451.296875 C 631.53125 444.277344 634.929688 429.539062 627.9375 418.398438 C 626.796875 416.558594 625.402344 414.914062 623.871094 413.523438 C 630.167969 415.359375 637.1875 414.609375 643.203125 410.847656 C 654.292969 403.882812 657.71875 389.34375 650.808594 378.339844 C 648.523438 374.691406 645.378906 371.878906 641.785156 370.011719 C 645.738281 369.871094 649.722656 368.730469 653.316406 366.472656 C 664.402344 359.703125 667.691406 345.386719 660.894531 334.550781 Z M 579.414062 180.976562 C 580.972656 179.832031 582.671875 178.914062 584.484375 178.191406 C 582.921875 179.304688 581.222656 180.25 579.414062 180.976562 Z M 146.660156 600.191406 C 145.9375 599.578125 147.691406 600.941406 146.660156 600.191406 Z M 616.964844 410.152344 C 618.746094 410.875 620.445312 411.824219 622.035156 412.964844 C 620.222656 412.242188 618.523438 411.320312 616.964844 410.152344 Z M 616.964844 410.152344 " fill-opacity="1" fill-rule="nonzero"/></g></svg>