<svg xmlns="http://www.w3.org/2000/svg" xmlns:xlink="http://www.w3.org/1999/xlink" width="1024" zoomAndPan="magnify" viewBox="0 0 768 767.999994" height="1024" preserveAspectRatio="xMidYMid meet" version="1.0"><defs><clipPath id="5842d20b3d"><path d="M 107 71.742188 L 660 71.742188 L 660 673 L 107 673 Z M 107 71.742188 " clip-rule="nonzero"/></clipPath></defs><g clip-path="url(#5842d20b3d)"><path fill="#7fb5ff" d="M 592.917969 634.167969 C 523.046875 696.257812 464.765625 664.953125 464.765625 664.953125 C 440.207031 653.019531 428.789062 632.09375 423.601562 613.414062 C 418.585938 595.253906 418.933594 576.058594 423.949219 557.898438 C 430.691406 532.820312 441.242188 502.902344 441.242188 502.902344 C 451.101562 468.3125 416.511719 437.179688 416.511719 437.179688 L 374.484375 389.964844 L 369.46875 393.945312 C 367.046875 395.847656 365.492188 398.785156 365.320312 401.726562 C 365.144531 404.320312 364.109375 406.742188 361.859375 408.472656 C 357.882812 411.757812 352 411.066406 348.714844 407.085938 C 345.429688 402.9375 346.292969 396.363281 350.792969 393.425781 C 352.867188 392.042969 355.289062 391.695312 357.535156 392.042969 C 360.476562 392.558594 363.589844 391.523438 366.011719 389.621094 L 370.679688 385.816406 L 352.695312 365.753906 L 347.503906 369.902344 C 345.082031 371.804688 343.527344 374.746094 343.355469 377.6875 C 343.179688 380.28125 342.144531 382.703125 339.894531 384.429688 C 335.917969 387.71875 330.039062 387.027344 326.75 383.046875 C 323.464844 378.898438 324.332031 372.324219 328.828125 369.386719 C 330.902344 368 333.324219 367.65625 335.570312 368 C 338.511719 368.519531 341.625 367.484375 344.046875 365.582031 L 348.890625 361.601562 L 334.359375 345.34375 L 329.519531 349.324219 C 327.097656 351.226562 325.539062 354.164062 325.367188 357.105469 C 325.195312 359.699219 324.15625 362.121094 321.910156 363.851562 C 317.929688 367.136719 312.050781 366.445312 308.765625 362.46875 C 305.480469 358.316406 306.34375 351.746094 310.839844 348.804688 C 312.914062 347.421875 315.335938 347.074219 317.585938 347.421875 C 320.523438 347.941406 323.636719 346.902344 326.058594 345 L 330.730469 341.195312 L 314.644531 323.207031 L 310.320312 326.667969 C 307.898438 328.570312 306.34375 331.507812 306.171875 334.449219 C 305.996094 337.042969 304.960938 339.464844 302.710938 341.195312 C 298.734375 344.480469 292.855469 343.789062 289.566406 339.8125 C 286.28125 335.660156 287.144531 329.089844 291.644531 326.148438 C 293.71875 324.765625 296.140625 324.417969 298.386719 324.765625 C 301.328125 325.285156 304.441406 324.246094 306.863281 322.34375 L 311.011719 319.058594 L 296.660156 302.972656 L 292.855469 306.085938 C 290.433594 307.988281 288.875 310.929688 288.703125 313.867188 C 288.53125 316.464844 287.492188 318.882812 285.242188 320.613281 C 281.265625 323.898438 275.386719 323.207031 272.101562 319.230469 C 268.8125 315.078125 269.679688 308.507812 274.175781 305.566406 C 276.25 304.183594 278.671875 303.835938 280.921875 304.183594 C 283.859375 304.703125 286.972656 303.664062 289.394531 301.761719 L 293.027344 298.824219 L 278.324219 282.566406 L 273.828125 286.195312 C 271.40625 288.097656 269.851562 291.039062 269.679688 293.980469 C 269.503906 296.574219 268.46875 298.996094 266.21875 300.726562 C 262.242188 304.011719 256.363281 303.320312 253.074219 299.339844 C 249.789062 295.191406 250.65625 288.617188 255.152344 285.679688 C 257.226562 284.292969 259.648438 283.949219 261.894531 284.292969 C 264.835938 284.8125 267.949219 283.777344 270.371094 281.875 L 274.695312 278.414062 L 254.804688 256.277344 L 249.445312 260.601562 C 247.023438 262.503906 245.464844 265.445312 245.292969 268.382812 C 245.121094 270.976562 244.082031 273.398438 241.832031 275.128906 C 237.855469 278.414062 231.976562 277.722656 228.691406 273.746094 C 225.402344 269.59375 226.269531 263.023438 230.765625 260.082031 C 232.839844 258.699219 235.261719 258.351562 237.511719 258.699219 C 240.449219 259.21875 243.5625 258.179688 245.984375 256.277344 L 251.171875 252.125 L 238.546875 238.117188 L 233.707031 242.09375 C 231.285156 243.996094 229.726562 246.9375 229.554688 249.878906 C 229.382812 252.472656 228.34375 254.894531 226.09375 256.621094 C 222.117188 259.910156 216.238281 259.21875 212.953125 255.238281 C 209.664062 251.089844 210.53125 244.515625 215.027344 241.578125 C 217.101562 240.191406 219.523438 239.847656 221.773438 240.191406 C 224.710938 240.710938 227.824219 239.675781 230.246094 237.773438 L 234.917969 233.964844 L 223.5 221.339844 L 218.484375 225.492188 C 216.066406 227.394531 214.507812 230.335938 214.335938 233.273438 C 214.164062 235.871094 213.125 238.289062 210.875 240.019531 C 206.898438 243.304688 201.019531 242.613281 197.730469 238.636719 C 194.445312 234.484375 195.3125 227.914062 199.808594 224.972656 C 201.882812 223.589844 204.304688 223.242188 206.550781 223.589844 C 209.492188 224.109375 212.605469 223.070312 215.027344 221.167969 L 219.871094 217.191406 L 207.246094 203.183594 L 202.230469 207.160156 C 199.808594 209.0625 198.25 212.003906 198.078125 214.941406 C 197.90625 217.535156 196.867188 219.957031 194.617188 221.6875 C 190.640625 224.972656 184.761719 224.28125 181.476562 220.304688 C 178.1875 216.152344 179.054688 209.582031 183.550781 206.640625 C 185.625 205.257812 188.046875 204.910156 190.296875 205.257812 C 193.234375 205.777344 196.347656 204.738281 198.769531 202.835938 L 203.613281 199.03125 L 148.441406 137.808594 L 145.675781 140.054688 C 143.425781 141.957031 141.695312 144.726562 141.695312 147.839844 C 141.523438 150.433594 140.488281 152.855469 138.238281 154.582031 C 134.261719 157.871094 128.378906 157.179688 125.09375 153.199219 C 121.808594 149.050781 122.671875 142.476562 127.167969 139.539062 C 129.246094 138.152344 131.664062 137.808594 133.914062 138.152344 C 136.855469 138.671875 139.96875 137.632812 142.390625 135.730469 L 144.808594 133.65625 L 132.183594 119.648438 L 129.761719 121.894531 C 127.34375 123.800781 125.785156 126.738281 125.613281 129.679688 C 125.441406 132.273438 124.402344 134.695312 122.152344 136.425781 C 118.175781 139.710938 112.296875 139.191406 109.183594 135.214844 C 105.898438 131.0625 106.761719 124.492188 111.257812 121.550781 C 113.332031 120.167969 115.753906 119.820312 118.003906 120.167969 C 120.941406 120.6875 124.054688 119.648438 126.476562 117.746094 L 128.898438 115.84375 L 119.039062 104.949219 L 121.460938 98.03125 L 419.105469 432.683594 C 447.640625 462.777344 449.027344 483.183594 449.027344 483.183594 C 450.582031 496.328125 443.664062 523.828125 437.785156 542.679688 C 427.925781 574.328125 435.015625 611.859375 458.882812 634.6875 C 465.976562 641.605469 471.855469 644.71875 471.855469 644.71875 C 517.339844 677.234375 592.917969 634.167969 592.917969 634.167969 Z M 658.464844 553.402344 C 657.253906 561.183594 654.140625 568.449219 649.644531 575.019531 C 641 587.644531 621.109375 612.722656 590.324219 630.882812 C 520.453125 672.21875 481.195312 646.449219 481.195312 646.449219 C 439.859375 624.828125 437.09375 582.628906 437.09375 582.628906 C 435.707031 567.757812 437.09375 551.328125 442.800781 532.820312 C 448.507812 514.144531 452.65625 485.433594 452.65625 485.433594 C 452.3125 465.371094 432.941406 441.332031 432.941406 441.332031 L 125.265625 95.609375 L 169.367188 71.742188 C 169.367188 71.742188 177.324219 80.214844 190.8125 94.742188 L 193.0625 92.839844 C 195.484375 90.9375 197.039062 88 197.214844 85.058594 C 197.386719 82.464844 198.425781 80.042969 200.671875 78.3125 C 204.648438 75.027344 210.53125 75.71875 213.816406 79.695312 C 217.101562 83.847656 216.238281 90.417969 211.742188 93.359375 C 209.664062 94.742188 207.246094 95.089844 204.996094 94.742188 C 202.054688 94.226562 198.941406 95.261719 196.523438 97.164062 L 194.617188 98.722656 C 198.597656 102.871094 202.921875 107.542969 207.589844 112.558594 L 209.320312 111.171875 C 211.742188 109.269531 213.296875 106.332031 213.46875 103.390625 C 213.644531 100.796875 214.679688 98.375 216.929688 96.644531 C 220.90625 93.359375 226.789062 94.050781 230.074219 98.03125 C 233.359375 102.179688 232.496094 108.753906 228 111.691406 C 225.921875 113.074219 223.5 113.421875 221.253906 113.074219 C 218.3125 112.558594 215.199219 113.59375 212.777344 115.496094 L 211.394531 116.707031 C 303.402344 214.769531 515.785156 441.332031 518.378906 443.925781 C 520.800781 446.519531 527.71875 447.902344 531.003906 448.941406 C 541.207031 452.226562 552.277344 451.707031 562.652344 453.4375 C 570.433594 454.648438 578.21875 456.378906 585.828125 458.625 C 606.0625 464.507812 626.46875 474.363281 639.960938 491.140625 C 653.625 508.433594 662.097656 531.089844 658.464844 553.402344 Z M 163.140625 131.753906 L 196.175781 109.269531 L 191.851562 103.046875 L 158.992188 125.527344 Z M 187.875 158.042969 L 220.90625 135.558594 L 216.582031 129.332031 L 183.550781 151.816406 Z M 211.394531 185.023438 L 244.429688 162.539062 L 240.277344 156.140625 L 207.246094 178.625 Z M 237.683594 213.386719 L 270.714844 190.902344 L 266.394531 184.675781 L 233.359375 207.160156 Z M 260.859375 239.847656 L 293.890625 217.363281 L 289.566406 211.136719 L 256.535156 233.621094 Z M 290.433594 270.457031 L 323.464844 247.976562 L 319.140625 241.75 L 286.109375 264.234375 Z M 318.96875 301.761719 L 352 279.277344 L 347.679688 273.054688 L 314.644531 295.535156 Z M 345.777344 330.300781 L 378.808594 307.816406 L 374.484375 301.589844 L 341.453125 324.074219 Z M 373.792969 362.640625 L 406.828125 340.15625 L 402.503906 333.929688 L 369.46875 356.414062 Z M 440.722656 373.015625 L 436.402344 366.789062 L 403.367188 389.273438 L 407.691406 395.5 Z M 472.546875 408.644531 L 468.222656 402.417969 L 435.191406 424.902344 L 439.511719 431.128906 Z M 531.347656 544.753906 C 545.011719 544.753906 556.082031 533.6875 556.082031 520.023438 C 556.082031 506.359375 545.011719 495.292969 531.347656 495.292969 C 517.6875 495.292969 506.617188 506.359375 506.617188 520.023438 C 506.617188 533.6875 517.6875 544.753906 531.347656 544.753906 Z M 608.65625 542.679688 L 599.835938 532.992188 L 546.570312 581.59375 L 555.390625 591.277344 Z M 608.65625 542.679688 " fill-opacity="1" fill-rule="nonzero"/></g></svg>