<svg xmlns="http://www.w3.org/2000/svg" xmlns:xlink="http://www.w3.org/1999/xlink" width="1024" zoomAndPan="magnify" viewBox="0 0 768 767.999994" height="1024" preserveAspectRatio="xMidYMid meet" version="1.0"><defs><clipPath id="63fea00a12"><path d="M 65.613281 111 L 701 111 L 701 676 L 65.613281 676 Z M 65.613281 111 " clip-rule="nonzero"/></clipPath></defs><g clip-path="url(#63fea00a12)"><path fill="#5f6f94" d="M 265.984375 378.863281 C 267.039062 371.839844 268.300781 364.898438 268.714844 357.832031 C 208.121094 341.511719 141.699219 339.195312 79.042969 338.867188 C 79 338.992188 78.917969 339.074219 78.878906 339.195312 C 78.671875 339.609375 78.421875 340.042969 78.175781 340.375 C 78.175781 343.554688 78.175781 347.6875 78.175781 352.003906 C 140.730469 361.507812 202.789062 374.316406 265.984375 378.863281 Z M 380.457031 276.25 C 380.375 271.269531 380.417969 266.085938 380.582031 260.691406 C 356.71875 257.882812 328.976562 266.414062 305.835938 270.855469 C 284.105469 275.007812 262.351562 279.222656 240.328125 281.621094 C 197.480469 286.308594 154.550781 284.039062 111.558594 283.75 C 111.476562 283.832031 111.4375 283.871094 111.394531 283.953125 C 109.925781 285.546875 108.6875 287.175781 107.511719 288.890625 C 154.46875 294.59375 203.636719 299.324219 250.761719 296.144531 C 294.496094 293.210938 336.804688 277.757812 380.457031 276.25 Z M 546.082031 469.761719 C 552.238281 468.316406 558.144531 466.414062 563.953125 464.328125 C 533.789062 468.234375 503.359375 470.527344 472.949219 469.761719 C 440.078125 469.019531 404.585938 466.972656 371.699219 459.265625 C 402.460938 471.910156 436.445312 477.011719 469.457031 477.179688 C 495.117188 477.34375 521.023438 475.753906 546.082031 469.761719 Z M 538.4375 336.78125 C 555.460938 331.324219 553.703125 310.316406 553.621094 294.59375 C 521.230469 309.738281 492.410156 313.085938 455.449219 308.953125 C 433.304688 306.472656 408.121094 304.511719 390.375 290.027344 C 389.484375 301.246094 388.617188 312.464844 388.453125 323.683594 C 417.832031 341.964844 451.8125 344.714844 485.902344 344.507812 C 503.875 344.382812 521.230469 342.253906 538.4375 336.78125 Z M 554.71875 284.285156 C 554.179688 249.0625 561.78125 212.472656 549.738281 178.285156 C 536.886719 141.71875 500.175781 113.703125 459.828125 126.59375 C 397.976562 146.304688 391.675781 226.027344 393.082031 280.566406 C 393.082031 280.609375 393.082031 280.609375 393.082031 280.648438 C 411.300781 298.105469 441.050781 298.601562 464.765625 301.289062 C 497.925781 305.046875 525.296875 299.097656 554.71875 284.285156 Z M 592.542969 461.3125 C 570.066406 469.058594 549.492188 477.425781 525.007812 481.269531 C 501.601562 484.925781 477.371094 485.710938 453.777344 484.160156 C 416.074219 481.703125 378.308594 473.707031 345.421875 454.785156 C 358.351562 500.277344 425.226562 501.164062 465.574219 502.074219 C 499.847656 502.878906 585.890625 508.476562 592.542969 461.3125 Z M 610.042969 527.8125 C 617.914062 515.292969 620.804688 502.628906 618.078125 491.371094 C 616.40625 490.648438 614.980469 489.367188 614.566406 487.425781 C 612.933594 480.070312 609.585938 475.503906 604.980469 471.3125 C 604.484375 470.941406 603.925781 470.566406 603.429688 470.195312 C 588.371094 521.824219 499.679688 515.851562 457.785156 514.425781 C 426.898438 513.375 394.09375 512.03125 366.265625 496.929688 C 348.148438 487.09375 338.148438 476.375 333.582031 459.847656 C 328.808594 464.453125 323.707031 469.679688 319.140625 475.421875 C 318.851562 476.972656 317.964844 478.355469 316.332031 479.101562 C 307.925781 490.773438 302.53125 504.140625 307.632812 517.816406 C 312.53125 530.914062 324.078125 539.15625 336.597656 544.425781 C 360.066406 554.382812 385.394531 557.75 410.453125 561.136719 C 455.863281 567.230469 504.949219 576.320312 550.070312 563.636719 C 572.464844 557.355469 596.902344 548.578125 610.042969 527.8125 Z M 586.511719 353.222656 C 602.996094 349.445312 650.429688 336.058594 623.84375 311.164062 C 608.453125 296.722656 586.140625 295.007812 566.183594 290.855469 C 565.851562 307.238281 569.902344 329.445312 557.382812 341.71875 C 546.558594 352.335938 520.402344 355.394531 506.210938 356.449219 C 463.238281 359.585938 415.722656 357.148438 378.949219 332.542969 C 376.925781 331.203125 376.140625 329.320312 376.097656 327.441406 C 375.933594 326.863281 375.808594 326.222656 375.808594 325.5625 C 375.933594 312.03125 377.195312 298.601562 378.183594 285.171875 C 332.777344 287.261719 289.101562 304.59375 243.21875 305.253906 C 196.34375 305.9375 149.179688 302.796875 102.695312 297.09375 C 100.300781 301.785156 98.253906 306.597656 95.796875 311.328125 C 94.535156 313.808594 93.109375 316.140625 91.601562 318.476562 C 147.175781 318.1875 203.039062 315.644531 258.589844 317.277344 C 277.886719 317.855469 299.886719 318.828125 317.261719 328.332031 C 342.777344 342.296875 364.964844 354.527344 394.507812 358.492188 C 455.945312 366.816406 526 367.148438 586.511719 353.222656 Z M 644.316406 426.128906 C 637.871094 428.339844 631.546875 430.179688 625.824219 431.644531 C 562.710938 448.050781 498.875 452.492188 434.234375 444.949219 C 392.089844 440.011719 349.488281 433.941406 310.980469 417.578125 C 324.742188 437.636719 360.109375 444.164062 381.65625 448.007812 C 414.296875 453.875 447.746094 457.46875 480.964844 457.304688 C 515.257812 457.140625 549.449219 454.453125 583.289062 449.0625 C 603.71875 445.796875 632.765625 444.949219 644.316406 426.128906 Z M 641.710938 554.011719 C 655.699219 535.972656 650.554688 498.933594 625.761719 492.839844 C 629.421875 515.769531 615.0625 541.636719 591.46875 555.351562 C 539.304688 585.699219 476.417969 577.789062 419.460938 569.875 C 386.054688 565.269531 345.046875 563.554688 317.304688 542.089844 C 294.371094 524.300781 296.25 501.785156 307.511719 481.457031 C 289.929688 486.683594 268.714844 499.820312 270.179688 519.613281 C 271.730469 541.160156 294.535156 558.328125 312.449219 567.109375 C 333.085938 577.1875 353.910156 580.414062 376.429688 583.613281 C 398.742188 586.734375 421.136719 591.835938 443.59375 593.261719 C 487.246094 596.113281 533.707031 599.542969 576.304688 587.703125 C 598.164062 581.632812 627.066406 572.851562 641.710938 554.011719 Z M 673.445312 556.945312 C 671.480469 548.121094 667.207031 539.691406 660.964844 532.050781 C 659.664062 547.6875 652.476562 563.183594 639.585938 572.519531 C 585.5625 611.648438 515.21875 610.472656 451.628906 606.359375 C 416.570312 604.109375 378.949219 599.253906 344.71875 591.507812 C 319.101562 585.699219 293.113281 574.566406 274.828125 554.980469 C 269.25 549.03125 265.324219 542.894531 262.804688 536.738281 C 261.9375 537.648438 261.046875 538.578125 260.261719 539.570312 C 260.304688 539.734375 260.347656 539.878906 260.347656 540.042969 C 255.90625 580.164062 313.316406 597.664062 343.621094 606.585938 C 384.382812 618.546875 426.445312 621.9375 468.714844 624.3125 C 511.394531 626.75 553.746094 626.214844 595.023438 613.527344 C 617.519531 606.628906 667.703125 583.945312 673.445312 556.945312 Z M 667.886719 597.125 C 672.183594 588.199219 674.394531 579.339844 674.703125 570.804688 C 664.023438 585.824219 649.625 598.675781 633.140625 606.792969 C 586.945312 629.476562 535.214844 635.074219 484.371094 632.699219 C 429.503906 630.097656 372.296875 627.410156 320.734375 606.585938 C 294.453125 595.90625 259.085938 583.304688 253.300781 554.09375 C 248.671875 570.972656 252.515625 591.464844 262.101562 604.398438 C 275.613281 622.679688 295.878906 634.167969 317.261719 640.941406 C 360.4375 654.660156 407.148438 658.132812 452.144531 660.898438 C 506.332031 664.246094 565.5625 665.09375 615.683594 640.984375 C 635.824219 631.316406 657.785156 618.054688 667.886719 597.125 Z M 671.648438 328.332031 C 683.238281 305.8125 658.03125 297.464844 644.605469 289.058594 C 644.191406 288.851562 643.902344 288.5625 643.652344 288.273438 C 619.460938 277.589844 589.878906 272.820312 567.402344 268.769531 C 567.277344 273.253906 567.214844 277.675781 567.277344 282.074219 C 587.441406 286.308594 616.445312 287.796875 630.082031 304.964844 C 639.007812 316.183594 644.933594 332.667969 631.796875 343.640625 C 615.847656 356.984375 593.679688 361.386719 573.703125 364.730469 C 540.730469 370.246094 507.839844 371.464844 474.4375 371.175781 C 439.957031 370.886719 404.175781 371.714844 370.582031 362.726562 C 357.773438 359.277344 344.59375 355.351562 333.085938 348.535156 C 319.84375 340.664062 308.417969 332.296875 292.820312 329.40625 C 261.007812 323.476562 227.746094 326.347656 195.558594 326.59375 C 158.972656 326.945312 122.40625 327.277344 85.820312 327.316406 C 85.238281 328.226562 84.621094 329.199219 84.019531 330.128906 C 146.96875 330.582031 213.386719 333.308594 273.941406 350.085938 C 274.0625 350.125 274.105469 350.207031 274.1875 350.25 C 274.476562 350.332031 274.746094 350.414062 274.992188 350.539062 C 310.132812 368.449219 347.050781 385.617188 386.550781 390.96875 C 429.542969 396.835938 473.859375 396.792969 517.222656 396.238281 C 556.96875 395.699219 607.957031 390.554688 642.601562 368.53125 C 658.839844 358.246094 663.320312 344.421875 671.648438 328.332031 Z M 660.71875 404.109375 C 684.144531 389.75 689.3125 365.640625 687.078125 339.671875 C 686.625 334.21875 685.40625 329.238281 683.566406 324.632812 C 680.984375 333.472656 675.285156 342.503906 672.265625 348.328125 C 652.683594 385.578125 601.800781 396.566406 563.289062 401.773438 C 510.941406 408.878906 452.847656 407.539062 400.414062 401.484375 C 356.265625 396.359375 316.621094 381.050781 277.246094 361.507812 C 276.542969 368.410156 275.199219 375.269531 274.269531 382.230469 C 319.511719 417.246094 378.660156 426.460938 434.234375 432.390625 C 459.582031 435.074219 485.796875 438.007812 511.3125 436.957031 C 536.765625 435.964844 562.214844 431.273438 587.316406 427 C 612.292969 422.679688 638.800781 417.535156 660.71875 404.109375 Z M 698.875 331.761719 C 702.242188 353.761719 699.804688 378.160156 687.761719 397.167969 C 681.6875 406.792969 671.566406 413.984375 660.304688 419.5 C 660.265625 419.765625 660.265625 420.054688 660.179688 420.347656 C 653.652344 446.417969 631.464844 453.277344 607.851562 457.59375 C 615.847656 463.914062 622.25 470.320312 625.515625 480.070312 C 644.234375 483.171875 655.449219 496.640625 659.5 512.796875 C 659.871094 513 660.304688 513.289062 660.675781 513.621094 C 670.429688 522.175781 677.203125 531.675781 681.398438 541.550781 C 681.398438 541.636719 681.441406 541.675781 681.480469 541.757812 C 697.078125 578.964844 675.863281 622.0625 637.125 643.9375 C 576.761719 678.066406 504.90625 677.921875 437.703125 672.40625 C 385.355469 668.089844 318.730469 666.972656 274.746094 634.125 C 241.585938 609.375 220.949219 553.101562 259.5 523.042969 C 257.578125 497.859375 278.214844 475.132812 308.171875 468.234375 C 312.367188 459.390625 320.050781 449.765625 329.304688 445.714844 C 312.738281 438.917969 298.378906 429.394531 293.894531 409.890625 C 293.894531 409.726562 293.894531 409.582031 293.855469 409.417969 C 284.144531 404.3125 274.828125 398.324219 265.863281 391.421875 C 201.40625 386.734375 138.1875 373.675781 74.394531 364.070312 C 72.636719 363.761719 71.441406 362.976562 70.714844 361.878906 C 68.03125 361.425781 65.613281 359.464844 65.613281 355.890625 C 65.613281 349.796875 65.613281 339.15625 65.613281 339.15625 C 65.613281 337.109375 66.378906 335.5625 67.492188 334.507812 C 67.617188 333.96875 67.78125 333.433594 68.03125 332.835938 C 73.238281 321.945312 81.316406 312.917969 86.417969 301.949219 C 90.902344 292.488281 95.15625 283.292969 102.222656 275.421875 C 102.902344 273.066406 104.824219 271.144531 107.964844 271.144531 C 159.738281 271.351562 211.425781 274.535156 262.761719 265.960938 C 286.625 261.996094 310.320312 256.789062 334.203125 252.902344 C 349.820312 250.40625 365.335938 247.015625 381.117188 248.296875 C 384.714844 189.253906 404.050781 116.597656 470.304688 111.949219 C 508.605469 109.28125 540.648438 128.308594 557.132812 162.769531 C 571.246094 192.269531 569.242188 224.394531 567.855469 256.167969 C 614.132812 264.699219 690.34375 275.960938 698.875 331.761719 " fill-opacity="1" fill-rule="nonzero"/></g><path fill="#5f6f94" d="M 455.53125 250.488281 C 453.695312 247.304688 452.351562 243.835938 451.980469 239.722656 C 441.007812 240.136719 426.859375 240.675781 416.527344 237.039062 C 413.800781 247.882812 436.609375 250.175781 455.53125 250.488281 Z M 452.1875 233.152344 C 452.640625 229.847656 453.613281 226.792969 454.808594 223.859375 C 448.117188 223.609375 441.503906 223.074219 434.9375 222.058594 C 430.96875 221.480469 422.972656 221.027344 416.570312 218.878906 C 414.855469 229.085938 418.574219 233.441406 427.871094 231.933594 C 433.261719 232.574219 438.695312 232.949219 444.148438 233.070312 C 446.835938 233.113281 449.5 233.152344 452.1875 233.152344 Z M 458.074219 217.246094 C 459.972656 213.816406 461.976562 210.511719 463.734375 206.957031 C 455.285156 206.234375 446.835938 205.574219 438.324219 205.492188 C 433.675781 205.367188 429.007812 204.890625 424.359375 205.203125 C 414.359375 205.820312 416.984375 212.144531 424.277344 213.734375 C 430.082031 215.203125 435.988281 216.109375 442 216.542969 C 447.371094 216.957031 452.722656 217.164062 458.074219 217.246094 Z M 474.828125 237.636719 C 476.625 224.457031 476.460938 215.035156 472.636719 204.4375 C 472.183594 206.113281 471.648438 207.742188 470.800781 209.210938 C 468.175781 213.734375 463.691406 218.050781 461.441406 222.679688 C 456.070312 233.734375 457.371094 244.867188 465.574219 254.125 C 466.875 255.632812 468.074219 257.097656 469.25 258.605469 C 471.648438 251.726562 473.734375 244.910156 474.828125 237.636719 Z M 506.125 250.054688 C 506.25 250.054688 537.300781 248.007812 526.332031 238.835938 C 526.207031 238.710938 526.125 238.546875 526 238.421875 C 513.625 241.398438 494.949219 241.230469 480.59375 240.589844 C 480.054688 243.855469 479.332031 247.058594 478.464844 250.175781 C 487.679688 250.21875 496.953125 250.609375 506.125 250.054688 Z M 524.699219 216.625 C 532.238281 210.347656 531.414062 207.949219 522.242188 209.417969 C 515.113281 209.726562 507.964844 209.769531 500.859375 209.625 C 493.980469 209.5 487.160156 209.003906 480.386719 208.464844 C 481.109375 211.359375 481.5625 214.230469 481.8125 217.164062 C 491.4375 217 501.105469 216.75 510.816406 216.75 C 515.03125 216.75 520.359375 217.121094 524.699219 216.625 Z M 510.011719 234.289062 C 513.480469 234.25 541.101562 234.664062 529.472656 221.605469 C 529.472656 221.5625 529.472656 221.523438 529.429688 221.480469 C 519.949219 223.652344 506.707031 223.074219 502.988281 223.15625 C 496.046875 223.363281 489.105469 223.652344 482.101562 223.859375 C 482.058594 226.996094 481.894531 230.21875 481.523438 233.691406 C 491.023438 233.9375 500.507812 234.332031 510.011719 234.289062 Z M 535.957031 205.945312 C 541.535156 212.640625 540.152344 216.75 535.628906 219.25 C 542.03125 227.636719 539.699219 232.90625 532.695312 236.171875 C 555.851562 258.378906 485.117188 256.457031 478.175781 256.457031 C 477.660156 256.457031 477.121094 256.457031 476.585938 256.5 C 475.53125 259.679688 474.394531 262.863281 473.238281 266.125 C 472.308594 268.6875 469.042969 269.226562 467.496094 266.890625 C 465.242188 263.335938 462.640625 260.238281 460.265625 257.222656 C 436.484375 258.089844 402.894531 257.222656 410.867188 234.332031 C 409.710938 233.566406 408.574219 232.742188 407.605469 231.769531 C 402.667969 226.875 405.722656 219.601562 410.164062 215.40625 C 409.113281 214.4375 408.328125 213.363281 407.871094 212.101562 C 402.085938 195.863281 429.710938 199.003906 438.324219 199.210938 C 447.660156 199.335938 456.957031 200.015625 466.234375 200.800781 C 467.039062 198.425781 467.617188 195.90625 467.867188 193.179688 C 468.175781 190.347656 472.144531 188.613281 473.734375 191.628906 C 475.613281 195.203125 477.082031 198.550781 478.300781 201.8125 C 488.214844 202.640625 498.171875 203.40625 508.171875 203.40625 C 514.164062 203.40625 531.226562 200.347656 535.957031 205.945312 " fill-opacity="1" fill-rule="nonzero"/></svg>