<svg xmlns="http://www.w3.org/2000/svg" xmlns:xlink="http://www.w3.org/1999/xlink" width="1024" zoomAndPan="magnify" viewBox="0 0 768 767.999994" height="1024" preserveAspectRatio="xMidYMid meet" version="1.0"><defs><clipPath id="bb85313b97"><path d="M 76.800781 68.023438 L 691 68.023438 L 691 700 L 76.800781 700 Z M 76.800781 68.023438 " clip-rule="nonzero"/></clipPath></defs><g clip-path="url(#bb85313b97)"><path fill="#52734d" d="M 691 383.996094 L 602.085938 373.996094 L 614.527344 381.476562 L 527.898438 381.476562 C 557.664062 180.75 339.917969 157.167969 338.394531 82.296875 L 338.242188 78.097656 C 338.085938 72.527344 333.738281 68.023438 328.394531 68.023438 C 326.257812 68.023438 324.195312 68.9375 322.746094 70.617188 C 321.296875 72.296875 320.382812 74.585938 320.6875 76.800781 C 321.21875 81.378906 322.136719 85.730469 323.511719 89.925781 C 323.890625 91.148438 324.273438 92.371094 324.730469 93.589844 L 157.203125 375.140625 C 113.472656 365.21875 97.445312 367.96875 97.445312 367.96875 C 97.140625 373.996094 92.867188 378.882812 89.734375 381.554688 L 76.992188 381.554688 L 76.992188 386.515625 L 89.734375 386.515625 C 92.867188 389.261719 97.140625 394.070312 97.445312 400.097656 C 97.445312 400.097656 113.472656 402.847656 157.203125 392.925781 C 181.398438 433.605469 296.722656 627.386719 324.730469 674.476562 C 322.746094 679.742188 321.375 685.3125 320.6875 691.191406 C 320.457031 693.480469 321.296875 695.695312 322.746094 697.375 C 324.195312 699.050781 326.257812 699.96875 328.394531 699.96875 C 333.738281 699.96875 338.011719 695.464844 338.242188 689.816406 L 338.394531 685.621094 C 339.917969 610.746094 557.742188 587.242188 527.898438 386.4375 L 614.601562 386.4375 L 602.160156 393.917969 Z M 327.25 99.695312 C 360.449219 170.445312 498.746094 199.21875 505.996094 381.554688 L 182.542969 381.554688 C 175.371094 379.570312 168.730469 377.890625 162.546875 376.441406 Z M 327.25 668.292969 L 162.625 391.628906 C 168.804688 390.175781 175.445312 388.421875 182.621094 386.515625 L 506.070312 386.515625 C 498.746094 568.769531 360.449219 597.542969 327.25 668.292969 Z M 327.25 668.292969 " fill-opacity="1" fill-rule="nonzero"/></g></svg>