<svg xmlns="http://www.w3.org/2000/svg" xmlns:xlink="http://www.w3.org/1999/xlink" width="1024" zoomAndPan="magnify" viewBox="0 0 768 767.999994" height="1024" preserveAspectRatio="xMidYMid meet" version="1.0"><defs><clipPath id="c602cb9d2b"><path d="M 77 92 L 673 92 L 673 685 L 77 685 Z M 77 92 " clip-rule="nonzero"/></clipPath><clipPath id="b9152f7393"><path d="M 114.296875 76.800781 L 691.296875 653.800781 L 653.644531 691.453125 L 76.644531 114.453125 Z M 114.296875 76.800781 " clip-rule="nonzero"/></clipPath><clipPath id="6866dce512"><path d="M 114.296875 76.800781 L 691.296875 653.800781 L 653.644531 691.453125 L 76.644531 114.453125 Z M 114.296875 76.800781 " clip-rule="nonzero"/></clipPath></defs><g clip-path="url(#c602cb9d2b)"><g clip-path="url(#b9152f7393)"><g clip-path="url(#6866dce512)"><path fill="#3e8e7e" d="M 668.25 658.445312 C 668.398438 657.996094 668.921875 657.769531 669.449219 657.847656 C 669.894531 657.996094 670.121094 658.519531 670.046875 659.042969 C 670.046875 659.042969 669.972656 659.269531 669.820312 659.71875 C 671.167969 661.8125 671.917969 664.207031 672.066406 666.601562 C 672.066406 666.601562 667.726562 679.027344 656.949219 684.117188 C 654.402344 684.265625 651.710938 683.816406 649.316406 682.617188 C 649.089844 682.695312 648.789062 682.84375 648.566406 682.917969 C 648.117188 683.066406 647.59375 682.84375 647.445312 682.394531 C 647.292969 681.945312 647.519531 681.421875 647.96875 681.273438 C 662.636719 675.582031 668.175781 658.519531 668.25 658.445312 Z M 602.914062 592.660156 L 619.078125 608.675781 L 615.035156 614.0625 L 626.789062 624.914062 L 630.828125 620.273438 L 643.101562 632.550781 C 641.15625 633.449219 639.136719 633.972656 637.265625 634.195312 C 632.773438 634.644531 628.285156 633.449219 624.167969 631.128906 C 619.976562 628.730469 616.160156 625.214844 612.941406 621.097656 C 607.777344 614.4375 604.183594 606.355469 603.4375 599.320312 C 603.210938 596.847656 603.0625 594.605469 602.914062 592.660156 Z M 575.59375 565.339844 L 601.042969 590.636719 C 601.191406 593.183594 601.339844 596.175781 601.789062 599.46875 C 602.613281 606.878906 606.28125 615.335938 611.667969 622.222656 C 615.035156 626.488281 619.078125 630.230469 623.417969 632.773438 C 627.910156 635.320312 632.699219 636.664062 637.640625 636.066406 C 639.960938 635.84375 642.355469 635.09375 644.675781 633.972656 L 667.277344 656.425781 C 662.039062 672.738281 650.363281 678.578125 645.796875 680.296875 C 645.496094 680 645.273438 679.773438 644.972656 679.476562 L 552.542969 587.792969 C 563.246094 582.03125 570.65625 573.125 575.59375 565.339844 Z M 539.148438 529.191406 L 573.800781 563.695312 C 569.007812 571.476562 561.675781 580.460938 550.824219 586.074219 L 516.84375 552.242188 C 527.398438 546.03125 534.582031 536.902344 539.148438 529.191406 Z M 361.320312 373.667969 C 362.820312 372.171875 363.640625 370.152344 363.640625 367.90625 C 363.640625 365.660156 362.667969 363.640625 361.171875 362.292969 C 359.675781 360.796875 357.65625 359.972656 355.410156 359.972656 C 353.164062 359.972656 351.144531 360.945312 349.796875 362.445312 C 348.300781 363.941406 347.476562 365.960938 347.476562 368.207031 C 347.476562 370.453125 348.449219 372.472656 350.019531 373.894531 C 351.515625 375.390625 353.539062 376.214844 355.785156 376.214844 C 357.878906 376.066406 359.972656 375.167969 361.320312 373.667969 Z M 387.292969 399.941406 C 388.789062 398.441406 389.613281 396.421875 389.613281 394.175781 C 389.613281 391.929688 388.640625 389.910156 387.140625 388.5625 C 385.644531 387.066406 383.625 386.242188 381.378906 386.242188 C 379.132812 386.242188 377.113281 387.214844 375.765625 388.714844 C 374.269531 390.210938 373.445312 392.230469 373.445312 394.476562 C 373.445312 396.722656 374.417969 398.742188 375.914062 400.089844 C 377.414062 401.585938 379.433594 402.410156 381.679688 402.410156 C 383.773438 402.410156 385.871094 401.511719 387.292969 399.941406 Z M 387.292969 394.25 C 387.367188 397.46875 384.746094 400.238281 381.453125 400.238281 C 378.234375 400.3125 375.464844 397.695312 375.464844 394.402344 C 375.390625 391.183594 378.011719 388.414062 381.304688 388.414062 C 384.597656 388.414062 387.292969 390.957031 387.292969 394.25 Z M 412.289062 424.9375 C 413.785156 423.441406 414.609375 421.417969 414.609375 419.175781 C 414.609375 416.929688 413.636719 414.90625 412.140625 413.5625 C 410.644531 412.0625 408.621094 411.242188 406.375 411.242188 C 404.132812 411.242188 402.109375 412.214844 400.761719 413.710938 C 399.265625 415.207031 398.441406 417.226562 398.441406 419.472656 C 398.441406 421.71875 399.417969 423.738281 400.988281 425.160156 C 402.484375 426.65625 404.503906 427.480469 406.75 427.480469 C 408.847656 427.332031 410.867188 426.359375 412.289062 424.9375 Z M 412.363281 419.175781 C 412.4375 422.390625 409.820312 425.160156 406.527344 425.160156 C 403.308594 425.234375 400.539062 422.617188 400.539062 419.324219 C 400.464844 416.105469 403.082031 413.335938 406.375 413.335938 C 409.667969 413.335938 412.289062 415.957031 412.363281 419.175781 Z M 438.035156 451.429688 C 439.53125 449.933594 440.355469 447.914062 440.355469 445.667969 C 440.355469 443.421875 439.382812 441.402344 437.886719 440.054688 C 436.386719 438.558594 434.367188 437.734375 432.121094 437.734375 C 429.878906 437.734375 427.855469 438.707031 426.507812 440.203125 C 425.011719 441.703125 424.1875 443.722656 424.1875 445.96875 C 424.1875 448.210938 425.160156 450.234375 426.660156 451.582031 C 428.15625 453.078125 430.175781 453.902344 432.421875 453.902344 C 434.59375 453.824219 436.613281 452.851562 438.035156 451.429688 Z M 438.109375 445.667969 C 438.183594 448.886719 435.566406 451.65625 432.273438 451.65625 C 429.054688 451.730469 426.285156 449.109375 426.285156 445.816406 C 426.210938 442.597656 428.828125 439.832031 432.121094 439.832031 C 435.414062 439.832031 438.035156 442.449219 438.109375 445.667969 Z M 361.394531 367.90625 C 361.472656 371.125 358.851562 373.894531 355.558594 373.894531 C 352.339844 373.96875 349.570312 371.351562 349.570312 368.058594 C 349.496094 364.839844 352.117188 362.070312 355.410156 362.070312 C 358.703125 362.070312 361.320312 364.6875 361.394531 367.90625 Z M 231.769531 223.3125 L 237.007812 218.074219 L 231.84375 212.910156 L 226.605469 218.148438 Z M 238.355469 229.75 L 243.59375 224.507812 L 240.675781 221.589844 L 235.4375 226.828125 Z M 249.207031 240.601562 L 254.445312 235.359375 L 250.855469 231.769531 L 245.617188 237.007812 Z M 298.976562 290.070312 L 304.21875 284.832031 L 261.855469 242.621094 L 256.617188 247.859375 Z M 307.882812 298.976562 L 313.125 293.738281 L 307.734375 288.347656 L 302.496094 293.589844 Z M 314.394531 305.488281 L 319.632812 300.25 L 316.714844 297.332031 L 311.476562 302.570312 Z M 318.289062 313.570312 L 314.695312 309.980469 L 310.804688 313.871094 L 314.394531 317.464844 Z M 325.324219 316.265625 L 330.5625 311.027344 L 326.96875 307.433594 L 321.730469 312.671875 Z M 326.820312 322.550781 L 323.226562 318.960938 L 319.558594 322.628906 L 323.152344 326.21875 Z M 232.144531 202.730469 L 248.910156 219.34375 L 252.875 215.378906 L 260.210938 222.714844 L 256.316406 226.605469 L 259.910156 230.195312 L 263.578125 226.53125 L 270.910156 233.863281 L 267.246094 237.53125 L 324.875 295.011719 L 327.640625 292.242188 L 334.976562 299.574219 L 332.207031 302.34375 L 335.800781 305.9375 L 338.34375 303.394531 L 345.679688 310.726562 L 343.210938 313.195312 L 348.523438 318.511719 L 343.359375 323.675781 L 337.972656 318.285156 L 332.730469 323.527344 L 354.4375 345.078125 L 361.097656 338.269531 L 373.070312 350.246094 L 361.84375 360.421875 C 360.125 359 357.878906 358.101562 355.410156 358.175781 C 352.714844 358.175781 350.320312 359.375 348.523438 361.171875 C 346.726562 362.96875 345.753906 365.4375 345.753906 368.132812 C 345.753906 370.824219 346.953125 373.222656 348.746094 375.015625 C 350.542969 376.8125 353.015625 377.785156 355.707031 377.785156 C 358.402344 377.785156 360.796875 376.589844 362.59375 374.792969 C 364.390625 372.996094 365.363281 370.527344 365.363281 367.832031 C 365.289062 365.363281 364.316406 363.042969 362.816406 361.394531 L 374.042969 351.21875 L 399.191406 376.214844 L 387.664062 386.691406 C 385.945312 385.269531 383.699219 384.523438 381.378906 384.597656 C 378.683594 384.597656 376.289062 385.792969 374.492188 387.589844 C 372.699219 389.386719 371.722656 391.855469 371.722656 394.550781 C 371.722656 397.246094 372.921875 399.640625 374.71875 401.4375 C 376.515625 403.234375 378.984375 404.207031 381.679688 404.207031 C 384.371094 404.207031 386.769531 403.007812 388.5625 401.210938 C 390.359375 399.414062 391.332031 396.945312 391.332031 394.25 C 391.332031 391.707031 390.210938 389.386719 388.640625 387.664062 L 400.089844 377.261719 L 424.339844 401.363281 L 412.738281 411.765625 C 411.015625 410.34375 408.773438 409.445312 406.300781 409.519531 C 403.609375 409.519531 401.210938 410.714844 399.417969 412.511719 C 397.621094 414.308594 396.648438 416.777344 396.648438 419.472656 C 396.648438 422.167969 397.84375 424.5625 399.640625 426.359375 C 401.4375 428.15625 403.90625 429.128906 406.601562 429.128906 C 409.296875 429.128906 411.691406 427.929688 413.488281 426.132812 C 415.28125 424.339844 416.253906 421.867188 416.253906 419.175781 C 416.179688 416.703125 415.28125 414.457031 413.710938 412.738281 L 425.238281 402.257812 L 450.085938 426.957031 L 438.035156 437.808594 C 436.386719 436.613281 434.292969 435.863281 432.046875 435.863281 C 429.351562 435.863281 426.957031 437.0625 425.160156 438.859375 C 423.367188 440.652344 422.394531 443.125 422.394531 445.816406 C 422.394531 448.511719 423.589844 450.90625 425.386719 452.703125 C 427.183594 454.5 429.652344 455.472656 432.347656 455.472656 C 435.042969 455.472656 437.4375 454.273438 439.230469 452.480469 C 441.027344 450.683594 442 448.210938 442 445.519531 C 442 442.824219 440.804688 440.429688 439.007812 438.632812 L 450.984375 427.855469 L 495.214844 471.9375 L 489.75 477.402344 L 452.03125 439.53125 L 450.757812 440.804688 L 537.5 527.394531 C 532.933594 535.105469 525.75 544.386719 515.121094 550.371094 L 83.132812 120.628906 L 105.734375 97.875 L 114.714844 106.855469 C 113.894531 107.230469 113.144531 107.679688 112.472656 108.355469 C 108.429688 112.246094 109.179688 119.582031 114.117188 124.820312 C 119.058594 130.058594 126.390625 131.253906 130.433594 127.363281 C 131.257812 126.539062 131.929688 125.566406 132.453125 124.445312 L 136.871094 128.859375 C 136.421875 129.160156 136.046875 129.382812 135.671875 129.757812 C 131.480469 133.652344 132.304688 141.210938 137.320312 146.523438 C 142.40625 151.910156 149.816406 153.035156 154.007812 149.144531 C 154.53125 148.617188 155.054688 147.945312 155.429688 147.273438 L 163.589844 155.429688 L 151.390625 168.226562 L 154.15625 170.847656 L 166.730469 157.675781 C 170.398438 156.253906 174.816406 156.925781 177.882812 159.84375 L 181.773438 163.585938 C 185.144531 166.804688 185.890625 171.746094 183.945312 175.785156 L 192.328125 184.167969 C 196.292969 182 201.308594 182.523438 204.75 185.816406 L 208.644531 189.558594 C 212.160156 192.925781 212.835938 198.238281 210.515625 202.355469 L 222.863281 214.703125 L 228.101562 209.464844 L 226.679688 208.042969 Z M 127.515625 112.171875 C 131.554688 116.511719 132.15625 122.5 128.785156 125.566406 C 125.492188 128.710938 119.507812 127.8125 115.464844 123.472656 C 111.421875 119.132812 110.824219 113.144531 114.191406 110.074219 C 117.484375 106.933594 123.398438 107.90625 127.515625 112.171875 Z M 150.863281 133.726562 C 154.90625 138.066406 155.503906 144.054688 152.136719 147.121094 C 148.84375 150.265625 142.855469 149.367188 138.816406 145.027344 C 134.773438 140.6875 134.175781 134.699219 137.542969 131.628906 C 140.910156 128.5625 146.824219 129.535156 150.863281 133.726562 Z M 229 242.84375 C 226.457031 245.539062 222.191406 245.613281 219.421875 242.996094 C 215.15625 238.878906 218 231.542969 223.984375 231.394531 C 230.046875 231.320312 233.117188 238.578125 229 242.84375 Z M 249.433594 272.558594 C 245.167969 268.441406 248.011719 261.105469 253.996094 260.957031 C 259.984375 260.808594 263.054688 268.066406 258.9375 272.332031 C 256.46875 275.101562 252.203125 275.175781 249.433594 272.558594 Z M 253.996094 259.160156 C 246.363281 259.3125 242.695312 268.667969 248.234375 273.90625 C 253.699219 279.21875 262.902344 275.253906 262.753906 267.617188 C 262.605469 262.828125 258.710938 259.085938 253.996094 259.160156 Z M 276.75 299.875 C 272.484375 295.757812 275.328125 288.425781 281.316406 288.273438 C 287.300781 288.125 290.371094 295.386719 286.328125 299.726562 C 283.636719 302.421875 279.371094 302.496094 276.75 299.875 Z M 281.316406 286.480469 C 273.679688 286.628906 270.015625 295.984375 275.550781 301.222656 C 281.015625 306.535156 290.222656 302.570312 290.070312 294.9375 C 289.921875 290.144531 286.03125 286.402344 281.316406 286.480469 Z M 218.222656 244.34375 C 223.6875 249.65625 232.890625 245.691406 232.742188 238.054688 C 232.667969 233.339844 228.699219 229.523438 223.984375 229.597656 C 216.351562 229.75 212.757812 239.027344 218.222656 244.34375 Z M 100.347656 92.488281 L 104.089844 96.230469 L 81.484375 118.980469 L 77.742188 115.238281 Z M 100.347656 92.488281 " fill-opacity="1" fill-rule="nonzero"/></g></g></g></svg>