<svg xmlns="http://www.w3.org/2000/svg" xmlns:xlink="http://www.w3.org/1999/xlink" width="1024" zoomAndPan="magnify" viewBox="0 0 768 767.999994" height="1024" preserveAspectRatio="xMidYMid meet" version="1.0"><defs><clipPath id="6d33badbf3"><path d="M 57.617188 58.84375 L 262 58.84375 L 262 262 L 57.617188 262 Z M 57.617188 58.84375 " clip-rule="nonzero"/></clipPath></defs><path fill="#6a5495" d="M 707.585938 706.523438 C 704.972656 709.148438 700.722656 709.15625 698.101562 706.539062 L 264.242188 274.085938 C 261.617188 271.472656 261.609375 267.222656 264.226562 264.597656 C 266.839844 261.976562 271.089844 261.96875 273.710938 264.582031 L 707.570312 697.039062 C 710.195312 699.652344 710.199219 703.902344 707.585938 706.523438 Z M 707.585938 706.523438 " fill-opacity="1" fill-rule="nonzero"/><path fill="#6a5495" d="M 250.847656 250.097656 L 250.742188 249.992188 L 250.210938 250.628906 L 249.574219 251.160156 L 249.679688 251.265625 L 242.964844 259.355469 L 268.0625 278.925781 L 272.730469 274.242188 L 273.898438 273.074219 L 278.566406 268.390625 L 258.914062 243.355469 Z M 250.847656 250.097656 " fill-opacity="1" fill-rule="nonzero"/><g clip-path="url(#6d33badbf3)"><path fill="#6a5495" d="M 245.078125 191.582031 C 247.46875 195.179688 249.804688 231.585938 251.285156 232.6875 C 252.300781 233.449219 257.390625 238.929688 260.464844 242.273438 C 261.792969 243.722656 261.734375 245.964844 260.347656 247.355469 L 246.96875 260.78125 C 245.582031 262.171875 243.339844 262.238281 241.886719 260.914062 C 238.53125 257.851562 233.035156 252.777344 232.269531 251.765625 C 231.175781 250.269531 194.75 248.070312 191.144531 245.691406 C 191.050781 245.628906 190.894531 245.472656 190.664062 245.207031 C 190.523438 245.039062 190.332031 244.820312 190.132812 244.554688 C 177.527344 229.066406 59.722656 61.570312 57.800781 58.84375 C 60.515625 60.710938 224.679688 175.421875 243.375 190.105469 C 244.03125 190.632812 244.53125 191.039062 244.8125 191.289062 C 244.953125 191.425781 245.046875 191.519531 245.078125 191.582031 Z M 245.078125 191.582031 " fill-opacity="1" fill-rule="nonzero"/></g><path fill="#6a5495" d="M 244.804688 191.292969 C 241.238281 191.191406 237.683594 191.007812 234.113281 190.84375 C 228.582031 190.527344 223.03125 190.191406 217.527344 189.78125 C 211.980469 189.414062 206.476562 188.878906 200.957031 188.449219 L 190.328125 187.410156 C 192.902344 190.039062 195.496094 192.621094 198.054688 195.234375 C 212.949219 210.359375 227.640625 225.6875 242.128906 241.191406 C 226.441406 226.890625 210.957031 212.390625 195.660156 197.671875 C 192.851562 194.996094 190.054688 192.273438 187.261719 189.582031 C 188.054688 198.433594 188.800781 207.300781 189.347656 216.183594 C 189.984375 225.84375 190.5 235.507812 190.65625 245.21875 C 190.515625 245.046875 190.328125 244.828125 190.125 244.5625 C 188.488281 235.246094 187.179688 225.878906 185.996094 216.515625 C 184.625 205.996094 183.515625 195.460938 182.453125 184.910156 C 171.621094 174.425781 160.800781 163.890625 150.046875 153.292969 C 134.980469 138.339844 119.960938 123.371094 105.101562 108.214844 C 90.222656 93.105469 75.53125 77.773438 61.042969 62.242188 C 76.746094 76.558594 92.230469 91.058594 107.527344 105.746094 C 122.871094 120.417969 138.015625 135.261719 153.140625 150.15625 C 163.976562 160.890625 174.761719 171.707031 185.503906 182.535156 L 201.375 184.257812 C 206.875 184.949219 212.378906 185.546875 217.867188 186.320312 C 223.355469 187.027344 228.855469 187.8125 234.34375 188.644531 C 237.351562 189.125 240.363281 189.601562 243.371094 190.113281 C 244.027344 190.640625 244.527344 191.046875 244.804688 191.292969 Z M 244.804688 191.292969 " fill-opacity="1" fill-rule="nonzero"/></svg>