<svg xmlns="http://www.w3.org/2000/svg" xmlns:xlink="http://www.w3.org/1999/xlink" width="1024" zoomAndPan="magnify" viewBox="0 0 768 767.999994" height="1024" preserveAspectRatio="xMidYMid meet" version="1.0"><defs><clipPath id="194af53cca"><path d="M 346 102.09375 L 422 102.09375 L 422 168 L 346 168 Z M 346 102.09375 " clip-rule="nonzero"/></clipPath><clipPath id="76dc93ef8b"><path d="M 102.09375 346 L 168 346 L 168 422 L 102.09375 422 Z M 102.09375 346 " clip-rule="nonzero"/></clipPath></defs><path fill="#ffbf00" d="M 575.953125 384.015625 C 575.953125 387.15625 575.875 390.296875 575.722656 393.433594 C 575.570312 396.570312 575.335938 399.703125 575.03125 402.828125 C 574.722656 405.953125 574.335938 409.070312 573.875 412.179688 C 573.414062 415.285156 572.878906 418.378906 572.265625 421.460938 C 571.652344 424.539062 570.964844 427.605469 570.203125 430.652344 C 569.4375 433.699219 568.601562 436.726562 567.6875 439.730469 C 566.777344 442.738281 565.792969 445.71875 564.734375 448.675781 C 563.675781 451.632812 562.546875 454.5625 561.34375 457.464844 C 560.140625 460.367188 558.867188 463.238281 557.527344 466.078125 C 556.183594 468.917969 554.769531 471.722656 553.289062 474.492188 C 551.808594 477.265625 550.261719 479.996094 548.648438 482.691406 C 547.03125 485.386719 545.351562 488.039062 543.605469 490.648438 C 541.863281 493.261719 540.054688 495.828125 538.183594 498.351562 C 536.3125 500.875 534.378906 503.351562 532.386719 505.777344 C 530.394531 508.207031 528.34375 510.585938 526.234375 512.914062 C 524.125 515.238281 521.957031 517.515625 519.738281 519.734375 C 517.515625 521.957031 515.242188 524.121094 512.914062 526.230469 C 510.585938 528.339844 508.207031 530.390625 505.78125 532.386719 C 503.351562 534.378906 500.875 536.308594 498.351562 538.179688 C 495.832031 540.050781 493.261719 541.859375 490.652344 543.605469 C 488.039062 545.351562 485.386719 547.03125 482.691406 548.644531 C 479.996094 550.261719 477.265625 551.808594 474.496094 553.289062 C 471.722656 554.769531 468.917969 556.179688 466.078125 557.523438 C 463.242188 558.867188 460.371094 560.140625 457.46875 561.34375 C 454.566406 562.542969 451.636719 563.675781 448.679688 564.734375 C 445.71875 565.792969 442.738281 566.777344 439.734375 567.6875 C 436.726562 568.601562 433.699219 569.4375 430.652344 570.199219 C 427.605469 570.964844 424.542969 571.652344 421.460938 572.265625 C 418.378906 572.878906 415.285156 573.414062 412.179688 573.875 C 409.070312 574.335938 405.957031 574.71875 402.828125 575.027344 C 399.703125 575.335938 396.570312 575.566406 393.433594 575.722656 C 390.296875 575.875 387.15625 575.953125 384.015625 575.953125 C 380.875 575.953125 377.734375 575.875 374.597656 575.722656 C 371.460938 575.566406 368.328125 575.335938 365.203125 575.027344 C 362.078125 574.71875 358.960938 574.335938 355.851562 573.875 C 352.746094 573.414062 349.652344 572.878906 346.570312 572.265625 C 343.488281 571.652344 340.425781 570.964844 337.378906 570.199219 C 334.332031 569.4375 331.304688 568.601562 328.300781 567.6875 C 325.292969 566.777344 322.3125 565.792969 319.355469 564.734375 C 316.394531 563.675781 313.464844 562.542969 310.5625 561.34375 C 307.660156 560.140625 304.792969 558.867188 301.953125 557.523438 C 299.113281 556.179688 296.308594 554.769531 293.535156 553.289062 C 290.765625 551.808594 288.035156 550.261719 285.339844 548.644531 C 282.644531 547.03125 279.992188 545.351562 277.378906 543.605469 C 274.769531 541.859375 272.203125 540.050781 269.679688 538.179688 C 267.15625 536.308594 264.679688 534.378906 262.25 532.386719 C 259.824219 530.390625 257.445312 528.339844 255.117188 526.230469 C 252.789062 524.121094 250.515625 521.957031 248.296875 519.734375 C 246.074219 517.515625 243.910156 515.238281 241.800781 512.914062 C 239.691406 510.585938 237.636719 508.207031 235.644531 505.777344 C 233.652344 503.351562 231.722656 500.875 229.847656 498.351562 C 227.976562 495.828125 226.171875 493.261719 224.425781 490.648438 C 222.679688 488.039062 221 485.386719 219.386719 482.691406 C 217.769531 479.996094 216.222656 477.265625 214.742188 474.492188 C 213.261719 471.722656 211.847656 468.917969 210.503906 466.078125 C 209.164062 463.238281 207.890625 460.367188 206.6875 457.464844 C 205.484375 454.5625 204.355469 451.632812 203.296875 448.675781 C 202.238281 445.71875 201.253906 442.738281 200.34375 439.730469 C 199.429688 436.726562 198.59375 433.699219 197.828125 430.652344 C 197.066406 427.605469 196.378906 424.539062 195.765625 421.460938 C 195.152344 418.378906 194.617188 415.285156 194.15625 412.179688 C 193.695312 409.070312 193.308594 405.953125 193 402.828125 C 192.695312 399.703125 192.464844 396.570312 192.308594 393.433594 C 192.15625 390.296875 192.078125 387.15625 192.078125 384.015625 C 192.078125 380.875 192.15625 377.734375 192.308594 374.597656 C 192.464844 371.460938 192.695312 368.328125 193 365.203125 C 193.308594 362.074219 193.695312 358.957031 194.15625 355.851562 C 194.617188 352.746094 195.152344 349.648438 195.765625 346.570312 C 196.378906 343.488281 197.066406 340.425781 197.828125 337.378906 C 198.59375 334.332031 199.429688 331.304688 200.34375 328.296875 C 201.253906 325.292969 202.238281 322.308594 203.296875 319.351562 C 204.355469 316.394531 205.484375 313.464844 206.6875 310.5625 C 207.890625 307.660156 209.164062 304.789062 210.503906 301.949219 C 211.847656 299.109375 213.261719 296.304688 214.742188 293.535156 C 216.222656 290.765625 217.769531 288.03125 219.386719 285.339844 C 221 282.644531 222.679688 279.992188 224.425781 277.378906 C 226.171875 274.769531 227.976562 272.199219 229.847656 269.675781 C 231.722656 267.152344 233.652344 264.679688 235.644531 262.25 C 237.636719 259.820312 239.691406 257.445312 241.800781 255.117188 C 243.910156 252.789062 246.074219 250.515625 248.296875 248.292969 C 250.515625 246.074219 252.789062 243.90625 255.117188 241.796875 C 257.445312 239.6875 259.824219 237.636719 262.25 235.644531 C 264.679688 233.652344 267.15625 231.71875 269.679688 229.847656 C 272.203125 227.976562 274.769531 226.167969 277.378906 224.425781 C 279.992188 222.679688 282.644531 221 285.339844 219.382812 C 288.035156 217.769531 290.765625 216.222656 293.535156 214.742188 C 296.308594 213.257812 299.113281 211.847656 301.953125 210.503906 C 304.792969 209.160156 307.660156 207.890625 310.5625 206.6875 C 313.464844 205.484375 316.394531 204.355469 319.355469 203.296875 C 322.3125 202.238281 325.292969 201.253906 328.300781 200.339844 C 331.304688 199.429688 334.332031 198.59375 337.378906 197.828125 C 340.425781 197.066406 343.488281 196.378906 346.570312 195.765625 C 349.652344 195.152344 352.746094 194.613281 355.851562 194.152344 C 358.960938 193.691406 362.078125 193.308594 365.203125 193 C 368.328125 192.691406 371.460938 192.460938 374.597656 192.308594 C 377.734375 192.152344 380.875 192.078125 384.015625 192.078125 C 387.15625 192.078125 390.296875 192.152344 393.433594 192.308594 C 396.570312 192.460938 399.703125 192.691406 402.828125 193 C 405.957031 193.308594 409.070312 193.691406 412.179688 194.152344 C 415.285156 194.613281 418.378906 195.152344 421.460938 195.765625 C 424.542969 196.378906 427.605469 197.066406 430.652344 197.828125 C 433.699219 198.59375 436.726562 199.429688 439.734375 200.339844 C 442.738281 201.253906 445.71875 202.238281 448.679688 203.296875 C 451.636719 204.355469 454.566406 205.484375 457.46875 206.6875 C 460.371094 207.890625 463.242188 209.160156 466.078125 210.503906 C 468.917969 211.847656 471.722656 213.257812 474.496094 214.742188 C 477.265625 216.222656 479.996094 217.769531 482.691406 219.382812 C 485.386719 221 488.039062 222.679688 490.652344 224.425781 C 493.261719 226.167969 495.832031 227.976562 498.351562 229.847656 C 500.875 231.71875 503.351562 233.652344 505.78125 235.644531 C 508.207031 237.636719 510.585938 239.6875 512.914062 241.796875 C 515.242188 243.90625 517.515625 246.074219 519.738281 248.292969 C 521.957031 250.515625 524.121094 252.789062 526.234375 255.117188 C 528.34375 257.445312 530.394531 259.820312 532.386719 262.25 C 534.378906 264.679688 536.3125 267.152344 538.183594 269.675781 C 540.054688 272.199219 541.863281 274.769531 543.605469 277.378906 C 545.351562 279.992188 547.03125 282.644531 548.648438 285.339844 C 550.261719 288.03125 551.808594 290.765625 553.289062 293.535156 C 554.769531 296.304688 556.183594 299.109375 557.527344 301.949219 C 558.867188 304.789062 560.140625 307.660156 561.34375 310.5625 C 562.546875 313.464844 563.675781 316.394531 564.734375 319.351562 C 565.792969 322.308594 566.777344 325.292969 567.6875 328.296875 C 568.601562 331.304688 569.4375 334.332031 570.203125 337.378906 C 570.964844 340.425781 571.652344 343.488281 572.265625 346.570312 C 572.878906 349.648438 573.414062 352.746094 573.875 355.851562 C 574.335938 358.957031 574.722656 362.074219 575.03125 365.203125 C 575.335938 368.328125 575.570312 371.460938 575.722656 374.597656 C 575.875 377.734375 575.953125 380.875 575.953125 384.015625 Z M 575.953125 384.015625 " fill-opacity="1" fill-rule="nonzero"/><g clip-path="url(#194af53cca)"><path fill="#ffbf00" d="M 346.121094 167.738281 L 384.015625 102.09375 L 421.90625 167.738281 Z M 346.121094 167.738281 " fill-opacity="1" fill-rule="nonzero"/></g><path fill="#ffbf00" d="M 243.0625 215.664062 L 243.050781 139.867188 L 308.691406 177.769531 Z M 243.0625 215.664062 " fill-opacity="1" fill-rule="nonzero"/><path fill="#ffbf00" d="M 177.769531 308.695312 L 139.863281 243.058594 L 215.660156 243.066406 Z M 177.769531 308.695312 " fill-opacity="1" fill-rule="nonzero"/><g clip-path="url(#76dc93ef8b)"><path fill="#ffbf00" d="M 167.738281 421.90625 L 102.09375 384.023438 L 167.738281 346.128906 Z M 167.738281 421.90625 " fill-opacity="1" fill-rule="nonzero"/></g><path fill="#ffbf00" d="M 215.660156 524.96875 L 139.863281 524.988281 L 177.769531 459.34375 Z M 215.660156 524.96875 " fill-opacity="1" fill-rule="nonzero"/><path fill="#ffbf00" d="M 308.691406 590.261719 L 243.058594 628.175781 L 243.0625 552.375 Z M 308.691406 590.261719 " fill-opacity="1" fill-rule="nonzero"/><path fill="#ffbf00" d="M 421.90625 600.292969 L 384.023438 665.945312 L 346.125 600.292969 Z M 421.90625 600.292969 " fill-opacity="1" fill-rule="nonzero"/><path fill="#ffbf00" d="M 524.964844 552.375 L 524.984375 628.171875 L 459.339844 590.261719 Z M 524.964844 552.375 " fill-opacity="1" fill-rule="nonzero"/><path fill="#ffbf00" d="M 590.261719 459.34375 L 628.179688 524.976562 L 552.371094 524.96875 Z M 590.261719 459.34375 " fill-opacity="1" fill-rule="nonzero"/><path fill="#ffbf00" d="M 600.289062 346.128906 L 665.945312 384.011719 L 600.289062 421.90625 Z M 600.289062 346.128906 " fill-opacity="1" fill-rule="nonzero"/><path fill="#ffbf00" d="M 552.371094 243.066406 L 628.167969 243.050781 L 590.261719 308.695312 Z M 552.371094 243.066406 " fill-opacity="1" fill-rule="nonzero"/><path fill="#ffbf00" d="M 459.339844 177.773438 L 524.972656 139.859375 L 524.964844 215.664062 Z M 459.339844 177.773438 " fill-opacity="1" fill-rule="nonzero"/></svg>