<svg xmlns="http://www.w3.org/2000/svg" xmlns:xlink="http://www.w3.org/1999/xlink" width="1024" zoomAndPan="magnify" viewBox="0 0 768 767.999994" height="1024" preserveAspectRatio="xMidYMid meet" version="1.0"><defs><clipPath id="7bd5234e9d"><path d="M 108.292969 108.292969 L 659.542969 108.292969 L 659.542969 659.542969 L 108.292969 659.542969 Z M 108.292969 108.292969 " clip-rule="nonzero"/></clipPath></defs><g clip-path="url(#7bd5234e9d)"><path fill="#836006" d="M 386.054688 108.421875 C 392.683594 108.484375 400.261719 108.738281 403.8125 109.023438 C 407.203125 109.308594 412.5625 109.816406 415.699219 110.164062 C 418.839844 110.546875 423.753906 111.179688 426.636719 111.625 C 429.523438 112.066406 434.375 112.921875 437.417969 113.527344 C 440.460938 114.128906 445.121094 115.140625 447.722656 115.746094 C 450.351562 116.378906 454.824219 117.519531 457.707031 118.3125 C 460.59375 119.074219 465.792969 120.660156 469.28125 121.800781 C 472.769531 122.941406 477.839844 124.683594 480.535156 125.699219 C 483.230469 126.714844 486.71875 128.078125 488.304688 128.710938 C 489.886719 129.347656 492.644531 130.519531 494.484375 131.3125 C 496.324219 132.105469 500.824219 134.195312 504.472656 135.972656 C 508.117188 137.746094 513.570312 140.539062 516.519531 142.1875 C 519.46875 143.804688 523.90625 146.339844 526.347656 147.828125 C 528.789062 149.320312 532.785156 151.824219 535.226562 153.410156 C 537.667969 155.027344 541.726562 157.816406 544.261719 159.625 C 546.796875 161.429688 551.203125 164.761719 554.089844 167.042969 C 556.972656 169.292969 561.886719 173.382812 565.027344 176.078125 C 568.167969 178.804688 574.378906 184.636719 578.820312 189.109375 C 583.289062 193.546875 589.121094 199.761719 591.847656 202.898438 C 594.542969 206.039062 598.632812 210.953125 600.886719 213.839844 C 603.167969 216.722656 606.433594 221.066406 608.175781 223.507812 C 609.921875 225.949219 612.519531 229.660156 613.914062 231.75 C 615.308594 233.84375 617.878906 237.902344 619.621094 240.785156 C 621.367188 243.671875 624.0625 248.300781 625.582031 251.089844 C 627.136719 253.878906 629.925781 259.300781 631.796875 263.136719 C 633.667969 266.976562 636.078125 272.175781 637.15625 274.710938 C 638.234375 277.246094 640.101562 281.8125 641.277344 284.855469 C 642.449219 287.898438 644.226562 292.8125 645.238281 295.792969 C 646.222656 298.773438 647.933594 304.324219 649.042969 308.160156 C 650.121094 311.996094 651.613281 317.636719 652.308594 320.683594 C 653.007812 323.726562 654.023438 328.449219 654.558594 331.144531 C 655.066406 333.839844 655.859375 338.40625 656.304688 341.289062 C 656.75 344.175781 657.414062 348.929688 657.761719 351.910156 C 658.078125 354.890625 658.617188 360.21875 658.871094 363.800781 C 659.15625 367.382812 659.476562 374.578125 659.570312 379.808594 C 659.695312 385.613281 659.601562 391.984375 659.378906 396.136719 C 659.15625 399.878906 658.777344 405.300781 658.523438 408.1875 C 658.269531 411.070312 657.792969 415.761719 657.414062 418.648438 C 657.066406 421.535156 656.304688 426.734375 655.703125 430.21875 C 655.132812 433.707031 654.117188 439.003906 653.484375 441.949219 C 652.847656 444.898438 651.707031 449.84375 650.914062 452.890625 C 650.121094 455.933594 648.917969 460.371094 648.1875 462.71875 C 647.492188 465.0625 646.222656 469.121094 645.335938 471.753906 C 644.480469 474.351562 642.894531 478.792969 641.847656 481.582031 C 640.800781 484.371094 638.867188 489.160156 637.566406 492.203125 C 636.265625 495.246094 633.667969 500.890625 631.796875 504.726562 C 629.925781 508.5625 627.136719 513.984375 625.582031 516.773438 C 624.0625 519.5625 621.714844 523.621094 620.414062 525.808594 C 619.113281 527.996094 616.546875 532.054688 614.738281 534.84375 C 612.902344 537.636719 610.175781 541.628906 608.683594 543.722656 C 607.195312 545.816406 603.960938 550.09375 601.519531 553.234375 C 599.078125 556.371094 594.796875 561.570312 592.007812 564.804688 C 589.21875 568.039062 583.289062 574.316406 578.820312 578.753906 C 574.378906 583.226562 568.101562 589.15625 564.867188 591.945312 C 561.636719 594.734375 556.4375 599.015625 553.296875 601.457031 C 550.15625 603.898438 545.878906 607.128906 543.785156 608.621094 C 541.691406 610.109375 537.699219 612.835938 534.910156 614.675781 C 532.117188 616.484375 528.058594 619.050781 525.871094 620.351562 C 523.683594 621.652344 519.625 623.996094 516.835938 625.519531 C 514.046875 627.074219 508.625 629.863281 504.789062 631.734375 C 500.953125 633.605469 495.308594 636.203125 492.265625 637.503906 C 489.222656 638.804688 484.433594 640.738281 481.644531 641.785156 C 478.855469 642.828125 474.417969 644.414062 471.816406 645.269531 C 469.183594 646.160156 465.128906 647.425781 462.78125 648.125 C 460.433594 648.855469 455.996094 650.058594 452.953125 650.851562 C 449.910156 651.644531 444.964844 652.785156 442.015625 653.417969 C 439.066406 654.054688 434.183594 654.972656 431.234375 655.480469 C 428.285156 655.988281 423.6875 656.683594 421.089844 657.066406 C 418.457031 657.414062 414.273438 657.890625 411.738281 658.144531 C 409.199219 658.429688 403.558594 658.871094 399.214844 659.15625 C 393.191406 659.539062 388.71875 659.632812 380.667969 659.507812 C 374.832031 659.410156 367.191406 659.09375 363.703125 658.808594 C 360.21875 658.554688 354.953125 658.046875 351.972656 657.699219 C 348.992188 657.351562 344.238281 656.683594 341.351562 656.242188 C 338.46875 655.796875 333.902344 655.003906 331.207031 654.496094 C 328.511719 653.957031 323.789062 652.945312 320.746094 652.246094 C 317.703125 651.546875 312.058594 650.058594 308.222656 648.980469 C 304.386719 647.871094 298.835938 646.160156 295.855469 645.175781 C 292.878906 644.160156 287.964844 642.386719 284.917969 641.214844 C 281.875 640.039062 277.308594 638.167969 274.773438 637.089844 C 272.238281 636.011719 267.039062 633.605469 263.203125 631.734375 C 259.367188 629.863281 253.945312 627.074219 251.152344 625.519531 C 248.363281 623.996094 243.734375 621.300781 240.851562 619.558594 C 237.964844 617.816406 233.90625 615.246094 231.816406 613.851562 C 229.722656 612.457031 226.011719 609.855469 223.570312 608.113281 C 221.128906 606.371094 216.785156 603.105469 213.902344 600.820312 C 211.015625 598.570312 206.101562 594.480469 202.964844 591.785156 C 199.824219 589.058594 193.609375 583.226562 189.171875 578.753906 C 184.703125 574.316406 178.867188 568.101562 176.140625 564.964844 C 173.445312 561.824219 169.355469 556.910156 167.105469 554.027344 C 164.824219 551.140625 161.496094 546.734375 159.6875 544.199219 C 157.878906 541.660156 155.089844 537.601562 153.472656 535.160156 C 151.886719 532.71875 149.382812 528.726562 147.894531 526.285156 C 146.402344 523.84375 143.867188 519.40625 142.25 516.457031 C 140.601562 513.507812 137.8125 508.054688 136.035156 504.410156 C 134.261719 500.761719 132.167969 496.261719 131.375 494.421875 C 130.582031 492.582031 129.410156 489.824219 128.773438 488.238281 C 128.140625 486.652344 126.777344 483.167969 125.761719 480.472656 C 124.75 477.777344 123.003906 472.703125 121.863281 469.214844 C 120.722656 465.730469 119.136719 460.53125 118.375 457.644531 C 117.582031 454.757812 116.441406 450.257812 115.808594 447.65625 C 115.207031 445.027344 114.191406 440.398438 113.589844 437.355469 C 112.988281 434.308594 112.128906 429.460938 111.6875 426.574219 C 111.242188 423.6875 110.609375 418.773438 110.226562 415.636719 C 109.878906 412.496094 109.371094 407.140625 109.085938 403.746094 C 108.832031 400.355469 108.515625 393.125 108.421875 387.738281 C 108.292969 380.445312 108.390625 375.71875 108.769531 369.507812 C 109.054688 364.878906 109.5 359.042969 109.785156 356.507812 C 110.039062 353.972656 110.578125 349.277344 111.019531 346.046875 C 111.433594 342.8125 112.320312 337.390625 112.921875 333.996094 C 113.558594 330.605469 114.730469 325.023438 115.492188 321.632812 C 116.285156 318.242188 117.363281 313.867188 117.902344 311.964844 C 118.40625 310.0625 119.390625 306.605469 120.089844 304.355469 C 120.753906 302.101562 122.085938 297.949219 123.035156 295.160156 C 123.957031 292.371094 125.382812 288.375 126.175781 286.28125 C 126.96875 284.191406 128.523438 280.257812 129.664062 277.5625 C 130.804688 274.867188 132.675781 270.589844 133.816406 268.050781 C 134.988281 265.515625 137.273438 260.886719 138.890625 257.75 C 140.507812 254.609375 143.199219 249.695312 144.847656 246.8125 C 146.5 243.925781 149.097656 239.582031 150.652344 237.140625 C 152.171875 234.699219 154.644531 230.925781 156.136719 228.738281 C 157.625 226.550781 160.066406 223.128906 161.558594 221.128906 C 163.015625 219.132812 165.804688 215.488281 167.738281 213.046875 C 169.640625 210.605469 173.511719 205.976562 176.300781 202.742188 C 179.089844 199.507812 184.890625 193.390625 189.171875 189.109375 C 193.453125 184.828125 199.570312 179.027344 202.804688 176.238281 C 206.039062 173.445312 210.667969 169.578125 213.109375 167.675781 C 215.550781 165.742188 219.195312 162.953125 221.195312 161.496094 C 223.191406 160.003906 226.613281 157.5625 228.800781 156.074219 C 230.988281 154.582031 234.761719 152.109375 237.203125 150.585938 C 239.644531 149.035156 243.988281 146.433594 246.875 144.785156 C 249.757812 143.136719 254.671875 140.441406 257.8125 138.824219 C 260.949219 137.207031 265.578125 134.925781 268.117188 133.753906 C 270.652344 132.613281 274.933594 130.742188 277.628906 129.597656 C 280.320312 128.457031 284.253906 126.90625 286.347656 126.113281 C 288.4375 125.320312 292.65625 123.828125 295.699219 122.78125 C 298.742188 121.769531 303.65625 120.214844 306.636719 119.359375 C 309.617188 118.503906 314.023438 117.296875 316.464844 116.695312 C 318.90625 116.09375 322.550781 115.238281 324.550781 114.761719 C 326.546875 114.316406 330.890625 113.460938 334.21875 112.828125 C 337.546875 112.226562 342.8125 111.402344 345.949219 110.957031 C 349.089844 110.546875 354.003906 109.972656 356.886719 109.6875 C 359.773438 109.402344 364.910156 108.992188 368.300781 108.738281 C 372.359375 108.453125 378.445312 108.359375 386.054688 108.421875 Z M 369.15625 140.570312 C 368.746094 140.601562 368.617188 140.886719 368.617188 141.933594 C 368.617188 142.695312 368.398438 144.214844 368.113281 145.355469 C 367.859375 146.5 367.097656 148.398438 366.464844 149.636719 C 365.796875 150.875 364.464844 152.648438 363.386719 153.757812 C 362.277344 154.835938 360.503906 156.167969 359.265625 156.832031 C 358.03125 157.46875 356.128906 158.230469 354.984375 158.480469 C 353.84375 158.769531 351.941406 158.988281 350.707031 158.988281 C 349.46875 158.988281 347.566406 158.769531 346.425781 158.480469 C 345.285156 158.230469 343.445312 157.53125 342.304688 156.929688 C 341.164062 156.328125 339.386719 154.996094 338.339844 153.980469 C 337.296875 152.933594 335.898438 151.191406 335.234375 150.082031 C 334.570312 148.972656 333.871094 147.449219 333.648438 146.71875 C 333.332031 145.640625 333.140625 145.386719 332.632812 145.515625 C 332.285156 145.578125 328.988281 146.371094 325.34375 147.257812 C 321.695312 148.179688 316.402344 149.574219 313.613281 150.429688 C 310.820312 151.285156 308.160156 152.109375 307.652344 152.300781 C 306.828125 152.617188 306.828125 152.710938 307.113281 153.820312 C 307.269531 154.488281 307.429688 156.230469 307.429688 157.722656 C 307.429688 159.210938 307.207031 161.207031 306.953125 162.160156 C 306.699219 163.109375 306.035156 164.824219 305.496094 165.964844 C 304.828125 167.296875 303.6875 168.816406 302.230469 170.277344 C 300.960938 171.542969 299.21875 172.90625 298.234375 173.414062 C 297.285156 173.890625 295.921875 174.492188 295.222656 174.746094 C 294.527344 175 292.972656 175.316406 291.734375 175.507812 C 290.257812 175.699219 288.746094 175.6875 287.203125 175.476562 C 285.964844 175.316406 283.875 174.746094 282.605469 174.207031 C 281.367188 173.699219 279.464844 172.558594 278.421875 171.734375 C 277.375 170.878906 275.882812 169.324219 275.089844 168.246094 L 273.664062 166.3125 C 269.003906 168.816406 265.484375 170.75 262.886719 172.242188 C 260.253906 173.730469 256.132812 176.238281 253.691406 177.757812 C 251.25 179.3125 249.125 180.707031 249 180.800781 C 248.839844 180.929688 249.09375 181.785156 249.539062 182.671875 C 249.980469 183.59375 250.582031 185.175781 250.835938 186.160156 C 251.089844 187.175781 251.3125 189.140625 251.3125 190.535156 C 251.3125 191.929688 251.089844 193.929688 250.804688 194.972656 C 250.519531 196.019531 249.824219 197.796875 249.25 198.9375 C 248.648438 200.078125 247.476562 201.726562 246.652344 202.613281 C 245.828125 203.503906 244.210938 204.835938 243.070312 205.5625 C 241.929688 206.292969 240.152344 207.179688 239.105469 207.527344 C 238.058594 207.878906 236.0625 208.257812 234.667969 208.351562 C 232.890625 208.480469 231.433594 208.386719 229.753906 208.035156 C 228.453125 207.75 226.519531 207.085938 225.472656 206.578125 C 224.425781 206.070312 222.90625 205.054688 222.050781 204.359375 L 220.558594 203.058594 C 216.753906 206.449219 213.363281 209.78125 210.574219 212.632812 C 207.78125 215.488281 204.769531 218.53125 203.914062 219.449219 L 202.328125 221.097656 C 204.296875 223.253906 205.308594 224.710938 205.878906 225.757812 C 206.417969 226.773438 207.117188 228.484375 207.371094 229.53125 C 207.65625 230.578125 207.878906 232.640625 207.878906 234.128906 C 207.878906 235.617188 207.65625 237.617188 207.402344 238.566406 C 207.148438 239.519531 206.515625 241.167969 206.007812 242.214844 C 205.5 243.261719 204.328125 244.972656 203.375 245.988281 C 202.457031 247.03125 200.839844 248.425781 199.792969 249.09375 C 198.746094 249.757812 197.128906 250.613281 196.242188 250.933594 C 195.324219 251.28125 193.515625 251.726562 192.277344 251.882812 C 190.628906 252.136719 189.265625 252.105469 187.585938 251.851562 C 186.285156 251.660156 184.226562 251.089844 182.988281 250.582031 C 181.753906 250.078125 180.675781 249.664062 180.546875 249.664062 C 180.390625 249.664062 179.121094 251.566406 177.664062 253.847656 C 176.207031 256.164062 173.796875 260.191406 172.304688 262.820312 C 170.816406 265.421875 168.785156 269.097656 167.804688 270.96875 C 166.820312 272.871094 166.058594 274.425781 166.089844 274.488281 C 166.15625 274.550781 166.882812 275.089844 167.773438 275.726562 C 168.628906 276.328125 169.992188 277.5625 170.785156 278.421875 C 171.578125 279.277344 172.71875 280.957031 173.382812 282.191406 C 174.050781 283.429688 174.746094 285.425781 175.03125 286.820312 C 175.316406 288.183594 175.539062 289.832031 175.539062 290.46875 C 175.539062 291.132812 175.316406 292.65625 175.0625 293.890625 C 174.808594 295.128906 174.082031 297.1875 173.445312 298.488281 C 172.589844 300.167969 171.609375 301.53125 170.023438 303.117188 C 168.53125 304.609375 167.074219 305.6875 165.710938 306.351562 C 164.570312 306.890625 162.730469 307.589844 161.589844 307.875 C 160.066406 308.253906 158.769531 308.347656 156.515625 308.222656 C 154.867188 308.125 153.21875 308 152.871094 307.9375 C 152.332031 307.839844 152.078125 308.414062 150.875 312.28125 C 150.113281 314.722656 148.652344 320.015625 147.640625 324.011719 C 146.625 328.003906 145.707031 331.875 145.609375 332.570312 L 145.386719 333.839844 C 148.242188 334.820312 149.859375 335.613281 150.808594 336.25 C 151.761719 336.851562 153.378906 338.277344 154.425781 339.417969 C 155.4375 340.527344 156.707031 342.273438 157.183594 343.253906 C 157.691406 344.269531 158.324219 345.917969 158.578125 346.902344 C 158.832031 347.914062 159.054688 349.945312 159.054688 351.433594 C 159.054688 352.925781 158.832031 354.953125 158.578125 355.9375 C 158.324219 356.953125 157.65625 358.632812 157.152344 359.679688 C 156.644531 360.722656 155.25 362.59375 154.042969 363.832031 C 152.425781 365.542969 151.316406 366.367188 149.382812 367.320312 C 147.988281 368.015625 145.832031 368.777344 144.628906 369.03125 C 143.421875 369.285156 142.058594 369.507812 141.617188 369.507812 C 140.917969 369.507812 140.792969 369.664062 140.570312 370.996094 C 140.441406 371.851562 140.347656 377.71875 140.316406 384.089844 C 140.316406 390.464844 140.410156 396.234375 140.507812 396.929688 L 140.726562 398.199219 C 144.722656 398.769531 146.816406 399.308594 147.957031 399.753906 C 149.097656 400.226562 150.9375 401.273438 152.078125 402.128906 C 153.21875 402.988281 154.773438 404.507812 155.535156 405.523438 C 156.292969 406.570312 157.246094 408.121094 157.625 408.976562 C 158.007812 409.867188 158.515625 411.355469 158.769531 412.308594 C 158.988281 413.257812 159.179688 415.257812 159.179688 416.746094 C 159.179688 418.363281 158.925781 420.203125 158.609375 421.34375 C 158.292969 422.390625 157.59375 424.101562 157.054688 425.148438 C 156.484375 426.164062 155.121094 427.96875 153.980469 429.109375 C 152.839844 430.253906 151.03125 431.617188 150.015625 432.1875 C 148.972656 432.726562 147.480469 433.359375 146.75 433.613281 C 145.386719 434.023438 145.355469 434.058594 145.578125 435.132812 C 145.671875 435.738281 146.339844 438.589844 147.035156 441.476562 C 147.703125 444.359375 149.003906 449.210938 149.890625 452.253906 C 150.746094 455.296875 151.570312 457.992188 151.699219 458.214844 C 151.886719 458.5625 152.238281 458.597656 153.566406 458.308594 C 154.488281 458.121094 156.136719 457.960938 157.214844 457.960938 C 158.324219 457.960938 160.097656 458.183594 161.175781 458.4375 C 162.285156 458.691406 164 459.324219 164.980469 459.832031 C 165.996094 460.339844 167.582031 461.324219 168.46875 462.050781 C 169.386719 462.75 170.878906 464.398438 171.734375 465.664062 C 172.621094 466.902344 173.605469 468.679688 173.921875 469.535156 C 174.269531 470.421875 174.683594 472.195312 174.875 473.496094 C 175.09375 475.144531 175.09375 476.605469 174.875 478.253906 C 174.683594 479.550781 174.269531 481.359375 173.921875 482.214844 C 173.605469 483.101562 172.78125 484.65625 172.113281 485.703125 C 171.449219 486.75 170.246094 488.175781 169.484375 488.90625 C 168.722656 489.601562 167.488281 490.585938 166.726562 491.125 C 165.964844 491.632812 165.363281 492.105469 165.394531 492.203125 C 165.394531 492.296875 166.410156 494.296875 167.675781 496.640625 C 168.914062 498.988281 171.070312 502.917969 172.464844 505.359375 C 173.859375 507.800781 176.046875 511.480469 177.316406 513.539062 L 179.660156 517.25 C 182.609375 515.757812 184.351562 515.125 185.429688 514.871094 C 186.539062 514.617188 188.347656 514.394531 189.488281 514.394531 C 190.628906 514.394531 192.46875 514.617188 193.609375 514.902344 C 194.753906 515.15625 196.65625 515.917969 197.859375 516.550781 C 199.0625 517.183594 200.808594 518.453125 201.695312 519.308594 C 202.613281 520.199219 203.851562 521.71875 204.484375 522.734375 C 205.152344 523.714844 206.007812 525.617188 206.449219 526.917969 C 207.085938 528.789062 207.242188 529.929688 207.242188 532.308594 C 207.242188 534.621094 207.054688 535.890625 206.449219 537.792969 C 206.039062 539.125 205.246094 540.902344 204.707031 541.757812 C 204.199219 542.582031 203.25 543.816406 202.648438 544.515625 L 201.535156 545.78125 C 206.386719 551.078125 210.128906 554.914062 212.980469 557.703125 C 215.835938 560.523438 218.71875 563.285156 219.355469 563.824219 L 220.558594 564.804688 C 224.109375 562.109375 226.074219 560.9375 227.21875 560.492188 C 228.359375 560.050781 230.484375 559.511719 231.972656 559.320312 C 234.191406 559.066406 235.113281 559.097656 237.203125 559.511719 C 238.597656 559.796875 240.820312 560.558594 242.117188 561.222656 C 243.765625 562.046875 245.128906 563.03125 246.621094 564.550781 C 248.109375 566.042969 249.125 567.4375 249.886719 568.992188 C 250.488281 570.257812 251.21875 572.320312 251.472656 573.523438 C 251.726562 574.730469 251.945312 576.378906 251.945312 577.171875 C 251.945312 577.960938 251.726562 579.613281 251.472656 580.816406 C 251.21875 582.019531 250.582031 583.921875 250.042969 585 C 249.539062 586.109375 249.125 587.0625 249.15625 587.09375 C 249.21875 587.15625 250.328125 587.949219 251.628906 588.804688 C 252.929688 589.695312 256.132812 591.691406 258.761719 593.246094 C 261.363281 594.796875 265.800781 597.335938 268.589844 598.824219 C 271.382812 600.347656 273.757812 601.582031 273.886719 601.582031 C 274.042969 601.582031 274.617188 600.820312 275.1875 599.902344 C 275.789062 599.015625 277.089844 597.492188 278.132812 596.542969 C 279.148438 595.589844 280.988281 594.355469 282.222656 593.75 C 283.460938 593.179688 285.425781 592.484375 286.664062 592.230469 C 287.898438 591.976562 289.515625 591.753906 290.308594 591.753906 C 291.101562 591.753906 292.71875 591.976562 293.957031 592.230469 C 295.191406 592.515625 297.09375 593.179688 298.234375 593.75 C 299.566406 594.417969 301.121094 595.589844 302.707031 597.144531 C 304.542969 598.949219 305.398438 600.09375 306.257812 601.898438 C 306.859375 603.199219 307.523438 605.039062 307.714844 605.957031 C 307.90625 606.84375 308.0625 608.652344 308.0625 609.890625 C 308.0625 611.15625 307.875 612.902344 307.621094 613.789062 L 307.175781 615.375 C 314.371094 617.6875 318.050781 618.765625 319.953125 619.273438 C 321.855469 619.8125 325.3125 620.667969 327.5625 621.207031 C 329.8125 621.714844 332.253906 622.285156 332.953125 622.445312 L 334.21875 622.730469 C 335.105469 619.972656 335.933594 618.257812 336.597656 617.117188 C 337.261719 615.976562 338.5 614.390625 339.355469 613.566406 C 340.179688 612.742188 341.734375 611.570312 342.78125 610.933594 C 343.824219 610.300781 345.601562 609.539062 346.742188 609.191406 C 347.882812 608.875 349.597656 608.527344 350.546875 608.398438 C 351.5625 608.304688 353.402344 608.429688 354.984375 608.683594 C 356.667969 609 358.535156 609.605469 359.898438 610.269531 C 361.136719 610.871094 362.816406 612.011719 363.703125 612.773438 C 364.5625 613.535156 365.957031 615.152344 366.78125 616.355469 C 367.574219 617.5625 368.554688 619.464844 368.9375 620.605469 C 369.316406 621.746094 369.726562 623.710938 369.824219 624.949219 C 370.046875 627.199219 370.078125 627.261719 370.996094 627.453125 C 371.503906 627.546875 377.210938 627.644531 383.679688 627.644531 C 390.144531 627.644531 396.234375 627.546875 397.246094 627.453125 L 399.054688 627.261719 C 399.054688 624.695312 399.277344 623.078125 399.53125 622.03125 C 399.785156 620.984375 400.511719 619.113281 401.085938 617.910156 C 401.6875 616.707031 402.859375 614.960938 403.714844 614.074219 C 404.539062 613.1875 406.15625 611.855469 407.296875 611.125 C 408.441406 610.394531 410.214844 609.507812 411.261719 609.160156 C 412.371094 608.78125 414.367188 608.429688 416.015625 608.335938 C 418.015625 608.207031 419.503906 608.335938 420.996094 608.683594 C 422.199219 608.96875 423.976562 609.605469 424.957031 610.109375 C 425.972656 610.617188 427.460938 611.570312 428.285156 612.234375 C 429.078125 612.933594 430.316406 614.167969 431.011719 615.058594 C 431.710938 615.914062 432.726562 617.5625 433.265625 618.703125 C 433.804688 619.84375 434.246094 620.984375 434.246094 621.238281 C 434.246094 621.492188 434.375 621.90625 434.5 622.128906 C 434.660156 622.445312 435.800781 622.253906 439.636719 621.367188 C 442.332031 620.765625 446.546875 619.6875 448.988281 619.019531 C 451.429688 618.355469 455.078125 617.277344 457.074219 616.640625 C 459.070312 616.007812 460.785156 615.4375 460.878906 615.34375 C 460.972656 615.246094 460.847656 614.390625 460.625 613.375 C 460.402344 612.394531 460.246094 610.460938 460.246094 609.097656 C 460.246094 607.382812 460.464844 605.925781 461.035156 604.183594 C 461.449219 602.851562 462.335938 600.886719 463.035156 599.839844 C 463.699219 598.792969 465.03125 597.207031 465.984375 596.351562 C 466.933594 595.464844 468.582031 594.324219 469.628906 593.75 C 470.644531 593.210938 472.417969 592.515625 473.558594 592.199219 C 474.703125 591.914062 476.761719 591.660156 478.15625 591.660156 C 479.550781 591.660156 481.613281 591.914062 482.753906 592.230469 C 483.894531 592.515625 485.449219 593.085938 486.242188 593.5 C 487.035156 593.878906 488.523438 594.894531 489.570312 595.78125 C 490.617188 596.636719 492.105469 598.285156 492.898438 599.425781 L 494.328125 601.550781 C 497.023438 600.15625 500.097656 598.476562 502.886719 596.921875 C 505.675781 595.367188 510.433594 592.546875 513.476562 590.613281 C 516.519531 588.710938 519.023438 587.0625 519.085938 586.902344 C 519.152344 586.777344 518.800781 585.824219 518.261719 584.78125 C 517.722656 583.734375 517.089844 581.925781 516.804688 580.722656 C 516.457031 579.261719 516.328125 577.742188 516.457031 575.742188 C 516.550781 573.96875 516.867188 572.160156 517.28125 570.988281 C 517.660156 569.941406 518.421875 568.324219 518.992188 567.40625 C 519.53125 566.453125 520.640625 565.058594 521.433594 564.234375 C 522.226562 563.441406 523.714844 562.238281 524.761719 561.570312 C 525.808594 560.875 527.585938 560.050781 528.726562 559.703125 C 529.867188 559.351562 531.863281 558.972656 533.164062 558.875 C 534.78125 558.75 536.304688 558.84375 537.921875 559.195312 C 539.21875 559.480469 541.21875 560.175781 542.359375 560.746094 C 543.5 561.316406 545.148438 562.460938 546.066406 563.285156 L 547.75 564.804688 C 554.246094 558.527344 557.765625 555.007812 559.796875 552.917969 C 561.824219 550.824219 564.011719 548.542969 564.617188 547.84375 L 565.757812 546.574219 C 563.472656 544.101562 562.363281 542.515625 561.792969 541.472656 C 561.253906 540.457031 560.558594 538.679688 560.304688 537.539062 C 560.019531 536.398438 559.796875 534.402344 559.796875 533.101562 C 559.796875 531.800781 560.019531 529.867188 560.273438 528.820312 C 560.558594 527.773438 561.222656 526 561.792969 524.859375 C 562.425781 523.527344 563.601562 522.003906 565.027344 520.578125 C 566.230469 519.339844 568.101562 517.914062 569.148438 517.34375 C 570.195312 516.773438 571.972656 516.109375 573.113281 515.789062 C 574.253906 515.503906 576.25 515.25 577.550781 515.25 C 578.851562 515.25 580.785156 515.472656 581.832031 515.695312 C 582.878906 515.949219 584.621094 516.550781 585.730469 517.089844 L 587.757812 518.042969 C 589.503906 515.347656 591.121094 512.777344 592.453125 510.589844 C 593.785156 508.402344 596.097656 504.410156 597.585938 501.714844 C 599.078125 499.019531 600.726562 495.945312 601.234375 494.898438 L 602.183594 492.996094 C 599.425781 491.1875 598.03125 490.046875 597.300781 489.285156 C 596.574219 488.523438 595.464844 487.066406 594.828125 486.019531 C 594.195312 484.972656 593.433594 483.261719 593.117188 482.214844 C 592.769531 481.167969 592.421875 479.300781 592.292969 478.09375 C 592.132812 476.539062 592.230469 475.144531 592.578125 473.496094 C 592.863281 472.195312 593.59375 470.042969 594.226562 468.742188 C 595.082031 467.03125 596.035156 465.761719 597.652344 464.144531 C 599.078125 462.71875 600.632812 461.542969 601.964844 460.910156 C 603.105469 460.339844 604.941406 459.675781 606.085938 459.421875 C 607.226562 459.136719 609.066406 458.914062 610.207031 458.914062 C 611.347656 458.914062 613.058594 459.101562 614.042969 459.324219 L 615.847656 459.707031 C 617.847656 453.300781 618.828125 449.878906 619.367188 447.976562 C 619.875 446.074219 620.796875 442.332031 621.398438 439.730469 C 622.03125 437.101562 622.570312 434.660156 622.632812 434.246094 C 622.730469 433.613281 622.476562 433.421875 620.511719 432.726562 C 619.304688 432.3125 617.59375 431.488281 616.738281 430.917969 C 615.882812 430.378906 614.390625 429.046875 613.410156 428 C 612.425781 426.957031 611.1875 425.242188 610.617188 424.195312 C 610.078125 423.152344 609.414062 421.4375 609.128906 420.390625 C 608.84375 419.347656 608.621094 417.285156 608.621094 415.796875 C 608.621094 414.304688 608.84375 412.308594 609.097656 411.355469 C 609.351562 410.40625 610.015625 408.695312 610.554688 407.550781 C 611.21875 406.21875 612.363281 404.699219 613.820312 403.242188 C 615.183594 401.878906 616.832031 400.609375 617.972656 400.039062 C 619.019531 399.5 620.605469 398.863281 621.460938 398.578125 C 622.347656 398.324219 623.996094 397.976562 625.203125 397.851562 C 626.945312 397.628906 627.390625 397.4375 627.515625 396.929688 C 627.644531 396.582031 627.707031 390.9375 627.707031 384.40625 C 627.707031 377.875 627.613281 371.695312 627.515625 370.679688 L 627.328125 368.871094 C 625.488281 368.871094 623.933594 368.652344 622.730469 368.398438 C 621.523438 368.113281 619.8125 367.574219 618.925781 367.160156 C 618.070312 366.75 616.484375 365.765625 615.4375 364.972656 C 614.390625 364.179688 612.996094 362.847656 612.363281 361.992188 C 611.726562 361.167969 610.777344 359.613281 610.269531 358.570312 C 609.761719 357.523438 609.191406 355.9375 609 355.082031 C 608.8125 354.195312 608.558594 352.863281 608.460938 352.070312 C 608.335938 351.277344 608.429688 349.660156 608.621094 348.421875 C 608.8125 347.1875 609.253906 345.410156 609.605469 344.460938 C 609.953125 343.507812 610.714844 341.957031 611.316406 341.035156 C 611.917969 340.148438 612.996094 338.816406 613.695312 338.121094 C 614.390625 337.421875 615.851562 336.28125 616.960938 335.582031 C 618.039062 334.855469 619.71875 334.0625 620.667969 333.777344 C 621.621094 333.457031 622.445312 333.238281 622.507812 333.238281 C 622.539062 333.207031 622.0625 330.984375 621.429688 328.292969 C 620.796875 325.597656 619.75 321.378906 619.082031 318.9375 C 618.417969 316.496094 617.433594 313.230469 616.960938 311.644531 C 616.070312 308.855469 616.007812 308.792969 615.089844 308.855469 C 614.582031 308.886719 612.964844 309.015625 611.472656 309.140625 C 609.476562 309.269531 608.207031 309.207031 606.558594 308.792969 C 605.355469 308.507812 603.421875 307.777344 602.28125 307.175781 C 601.140625 306.574219 599.585938 305.558594 598.792969 304.894531 C 598 304.226562 596.699219 302.675781 595.875 301.46875 C 595.019531 300.265625 594.035156 298.425781 593.65625 297.378906 C 593.210938 296.078125 592.925781 294.460938 592.832031 292.308594 C 592.769531 290.4375 592.863281 288.40625 593.085938 287.390625 C 593.277344 286.441406 593.972656 284.570312 594.609375 283.269531 C 595.433594 281.527344 596.351562 280.289062 597.96875 278.671875 C 599.203125 277.4375 600.695312 276.234375 601.265625 275.980469 C 601.835938 275.726562 602.3125 275.34375 602.28125 275.1875 C 602.28125 275.027344 601.234375 272.933594 599.996094 270.589844 C 598.761719 268.242188 596.667969 264.4375 595.367188 262.1875 C 594.070312 259.9375 591.847656 256.257812 590.421875 254.070312 L 587.855469 250.042969 C 586.363281 250.964844 585.097656 251.535156 584.050781 251.882812 C 582.941406 252.296875 580.976562 252.644531 579.292969 252.738281 C 577.234375 252.867188 575.839844 252.769531 574.222656 252.359375 C 573.015625 252.074219 571.019531 251.3125 569.816406 250.679688 C 568.609375 250.042969 566.867188 248.777344 565.980469 247.921875 C 565.058594 247.03125 563.824219 245.542969 563.21875 244.589844 C 562.617188 243.640625 561.792969 241.992188 561.382812 240.945312 C 560.875 239.582031 560.621094 238.125 560.492188 235.714844 C 560.367188 232.894531 560.429688 232.035156 561.03125 230.007812 C 561.445312 228.707031 562.175781 226.902344 562.648438 226.042969 C 563.15625 225.15625 564.109375 223.824219 564.804688 223.03125 L 566.105469 221.605469 C 558.625 213.742188 554.34375 209.429688 551.710938 206.957031 L 546.957031 202.457031 C 544.261719 204.675781 542.613281 205.753906 541.566406 206.261719 C 540.519531 206.769531 538.648438 207.402344 537.445312 207.65625 C 536.238281 207.910156 534.589844 208.132812 533.796875 208.132812 C 533.007812 208.132812 531.359375 207.910156 530.152344 207.65625 C 528.949219 207.402344 526.855469 206.671875 525.554688 206.007812 C 523.90625 205.183594 522.542969 204.199219 521.117188 202.742188 C 519.976562 201.601562 518.613281 199.792969 518.042969 198.777344 C 517.503906 197.734375 516.835938 196.082031 516.550781 195.132812 C 516.265625 194.183594 515.949219 192.40625 515.855469 191.167969 C 515.726562 189.679688 515.824219 188.191406 516.171875 186.574219 C 516.457031 185.273438 517.121094 183.371094 517.628906 182.355469 L 518.582031 180.546875 C 513.0625 176.933594 509.226562 174.589844 506.53125 173.035156 C 503.839844 171.480469 499.8125 169.261719 497.5625 168.089844 C 495.339844 166.914062 493.472656 165.996094 493.4375 166.027344 C 493.375 166.089844 492.898438 166.757812 492.359375 167.550781 C 491.820312 168.34375 490.554688 169.769531 489.539062 170.71875 C 488.492188 171.671875 486.71875 172.941406 485.609375 173.480469 C 484.464844 174.050781 482.53125 174.714844 481.328125 175 C 480.125 175.253906 478.410156 175.476562 477.523438 175.476562 C 476.667969 175.476562 474.921875 175.253906 473.71875 175 C 472.515625 174.714844 470.582031 174.050781 469.46875 173.480469 C 468.359375 172.941406 466.648438 171.734375 465.667969 170.847656 C 464.683594 169.960938 463.320312 168.40625 462.589844 167.359375 C 461.894531 166.34375 460.972656 164.507812 460.5625 163.269531 C 459.894531 161.367188 459.769531 160.542969 459.832031 157.40625 C 459.863281 155.40625 459.925781 153.410156 459.992188 152.996094 C 460.085938 152.269531 459.863281 152.140625 456.757812 151.160156 C 454.917969 150.554688 451.367188 149.511719 448.832031 148.84375 C 446.292969 148.148438 441.792969 147.003906 438.84375 146.308594 C 435.894531 145.640625 433.359375 145.167969 433.265625 145.292969 C 433.136719 145.421875 432.820312 146.214844 432.566406 147.101562 C 432.28125 147.957031 431.488281 149.542969 430.824219 150.589844 C 430.15625 151.632812 428.761719 153.25 427.714844 154.203125 C 426.703125 155.121094 425.054688 156.296875 424.101562 156.769531 C 423.152344 157.246094 421.5 157.910156 420.457031 158.230469 C 419.25 158.578125 417.539062 158.800781 415.699219 158.800781 C 413.894531 158.800781 412.148438 158.578125 410.945312 158.230469 C 409.898438 157.910156 408.1875 157.214844 407.140625 156.675781 C 406.09375 156.105469 404.285156 154.742188 403.144531 153.601562 C 401.65625 152.109375 400.703125 150.808594 399.753906 148.84375 C 398.707031 146.785156 398.292969 145.484375 398.007812 143.359375 C 397.628906 140.632812 397.628906 140.601562 396.675781 140.441406 C 396.136719 140.347656 393.03125 140.253906 389.703125 140.222656 C 386.375 140.15625 380.539062 140.222656 376.703125 140.316406 C 372.867188 140.441406 369.476562 140.539062 369.191406 140.570312 Z M 383.964844 150.113281 C 384.21875 150.113281 384.4375 150.207031 384.4375 150.335938 C 384.4375 150.492188 386.246094 182.101562 392.429688 290.722656 L 390.019531 311.328125 C 388.6875 322.648438 387.515625 332.445312 387.261719 334.15625 L 389.417969 334.378906 C 390.589844 334.503906 392.207031 334.695312 394.425781 335.011719 L 400.007812 292.304688 L 422.039062 225.09375 C 434.152344 188.125 444.136719 157.816406 444.234375 157.722656 C 444.296875 157.625 444.425781 157.625 444.488281 157.722656 C 444.550781 157.816406 438.179688 189.109375 415.921875 296.746094 L 400.039062 336.691406 L 401.8125 337.359375 C 402.828125 337.738281 404.316406 338.339844 405.207031 338.722656 C 406.0625 339.101562 406.824219 339.355469 406.824219 339.324219 C 406.855469 339.261719 410.660156 330.160156 423.625 298.964844 L 461.925781 240.46875 C 483.007812 208.289062 500.414062 181.753906 500.667969 181.5 C 500.921875 181.246094 501.113281 181.152344 501.113281 181.339844 C 501.144531 181.5 486.875 209.96875 437.796875 307.523438 L 430.253906 317.671875 C 426.097656 323.25 420.234375 331.082031 411.769531 342.398438 L 414.019531 344.144531 C 415.222656 345.09375 416.523438 346.109375 416.90625 346.394531 C 417.570312 346.902344 417.824219 346.585938 443.566406 313.042969 L 496.515625 265.800781 C 525.617188 239.835938 549.523438 218.65625 549.617188 218.753906 C 549.714844 218.816406 549.429688 219.324219 548.984375 219.863281 C 548.542969 220.371094 527.425781 244.050781 455.933594 324.074219 L 421.5 351.277344 L 422.261719 352.070312 C 422.707031 352.511719 423.65625 353.75 425.8125 356.761719 L 460.371094 330.160156 L 523.210938 298.140625 C 557.796875 280.542969 586.140625 266.246094 586.238281 266.371094 C 586.300781 266.53125 559.953125 284.09375 468.964844 344.300781 L 449.117188 352.925781 C 438.210938 357.679688 429.175781 361.613281 429.015625 361.644531 C 428.855469 361.707031 429.238281 363.007812 429.902344 364.59375 C 430.539062 366.175781 431.171875 367.699219 431.296875 367.984375 C 431.488281 368.429688 434.4375 367.289062 471.785156 351.71875 L 539.15625 337.453125 C 576.21875 329.589844 607.417969 322.964844 608.492188 322.710938 C 609.730469 322.457031 610.492188 322.394531 610.492188 322.585938 C 610.492188 322.742188 580.054688 333.015625 475.273438 367.859375 L 432.882812 374.105469 L 433.105469 375.054688 C 433.199219 375.5625 433.359375 376.988281 433.453125 378.226562 C 433.550781 379.429688 433.769531 380.667969 433.898438 380.921875 C 434.152344 381.332031 437.003906 381.015625 477.175781 375.65625 L 547.398438 379.523438 C 586.015625 381.617188 617.847656 383.457031 618.101562 383.613281 C 618.417969 383.742188 618.449219 383.933594 618.257812 384.121094 C 618.101562 384.25 586.332031 386.183594 477.492188 392.398438 L 456.882812 389.988281 C 445.535156 388.65625 435.707031 387.484375 433.738281 387.199219 L 433.453125 389.859375 C 433.296875 391.289062 433.167969 392.90625 433.105469 394.363281 L 476.222656 400.039062 L 543.277344 422.039062 C 580.148438 434.121094 610.394531 444.105469 610.492188 444.171875 C 610.585938 444.265625 610.585938 444.390625 610.492188 444.457031 C 610.394531 444.519531 579.230469 438.179688 472.101562 416.082031 L 451.714844 408.027344 C 440.523438 403.589844 431.296875 399.941406 431.203125 399.941406 C 431.109375 399.941406 430.949219 400.324219 430.855469 400.796875 C 430.757812 401.304688 430.1875 402.765625 429.585938 404.0625 C 428.984375 405.363281 428.601562 406.503906 428.699219 406.601562 C 428.792969 406.695312 437.957031 410.53125 469.25 423.59375 L 527.742188 461.894531 C 559.921875 482.945312 586.460938 500.382812 586.714844 500.636719 C 587.125 501.015625 587.125 501.078125 586.554688 500.953125 C 586.207031 500.859375 557.734375 486.621094 460.6875 437.765625 L 425.496094 411.578125 L 424.863281 412.496094 C 424.511719 413.003906 423.5625 414.273438 422.707031 415.320312 C 421.882812 416.367188 421.214844 417.285156 421.214844 417.378906 C 421.214844 417.476562 428.953125 423.46875 455.519531 443.851562 L 502.570312 496.546875 C 528.441406 525.554688 549.617188 549.460938 549.617188 549.652344 C 549.617188 549.90625 549.332031 549.808594 548.921875 549.398438 C 548.507812 549.046875 524.859375 527.902344 496.355469 502.476562 C 460.71875 470.675781 443.917969 455.457031 442.585938 453.839844 C 441.539062 452.539062 435.640625 445.027344 429.460938 437.195312 C 423.308594 429.332031 417.984375 422.578125 416.9375 421.4375 L 415.191406 422.800781 C 414.210938 423.5625 412.972656 424.546875 411.386719 425.78125 L 438.179688 460.5 L 470.292969 523.683594 C 487.953125 558.402344 502.347656 586.96875 502.316406 587.09375 C 502.253906 587.21875 485.796875 562.460938 465.699219 532.085938 C 445.628906 501.683594 427.96875 474.988281 426.480469 472.703125 C 423.976562 468.898438 423.117188 467.09375 415.476562 449.558594 C 410.945312 439.097656 407.011719 430.0625 406.316406 428.476562 L 404.953125 429.140625 C 404.222656 429.523438 402.765625 430.15625 401.71875 430.570312 C 400.671875 430.949219 399.847656 431.394531 399.878906 431.550781 C 399.910156 431.679688 403.652344 440.777344 416.523438 471.753906 L 431.078125 540.550781 C 439.097656 578.375 445.722656 609.605469 445.789062 609.921875 C 445.882812 610.207031 445.789062 610.460938 445.628906 610.460938 C 445.4375 610.460938 435.261719 580.246094 400.609375 476.191406 L 397.4375 454.949219 C 395.695312 443.28125 394.269531 433.519531 394.269531 433.296875 C 394.269531 433.011719 393.824219 432.980469 392.585938 433.136719 C 391.699219 433.230469 390.082031 433.421875 389.035156 433.519531 C 387.703125 433.644531 387.101562 433.835938 387.070312 434.183594 C 387.007812 434.4375 388.242188 444.234375 392.554688 477.144531 L 388.65625 547.683594 C 386.375 589.089844 384.628906 618.355469 384.472656 618.542969 C 384.238281 618.753906 384.078125 618.703125 383.996094 618.386719 C 383.898438 618.132812 382.03125 586.238281 375.847656 477.144531 L 378.414062 455.648438 C 379.808594 443.851562 380.886719 434.089844 380.824219 433.929688 C 380.761719 433.804688 379.652344 433.613281 378.382812 433.484375 C 377.082031 433.359375 375.5625 433.167969 374.992188 433.074219 C 374.199219 432.945312 373.945312 433.042969 373.851562 433.453125 C 373.753906 433.769531 372.453125 443.503906 368.175781 476.191406 L 346.171875 543.246094 C 334.0625 580.117188 324.105469 610.363281 324.042969 610.460938 C 323.949219 610.554688 323.820312 610.554688 323.757812 610.460938 C 323.695312 610.363281 330.035156 579.199219 352.164062 472.070312 L 360.089844 452.097656 C 364.464844 441.09375 368.046875 431.933594 368.078125 431.710938 C 368.078125 431.457031 367.289062 430.980469 366.210938 430.570312 C 365.164062 430.15625 363.703125 429.523438 361.613281 428.476562 L 361.296875 429.175781 C 361.136719 429.585938 357.300781 438.75 344.617188 469.214844 L 306.320312 527.710938 C 285.269531 559.890625 267.832031 586.429688 267.546875 586.679688 C 267.164062 587.09375 267.164062 586.964844 267.609375 585.890625 C 267.894531 585.191406 282.160156 556.6875 330.542969 460.5 L 339.957031 447.878906 C 345.125 440.96875 350.960938 433.105469 356.539062 425.625 L 354.128906 423.785156 C 352.796875 422.800781 351.464844 421.820312 351.179688 421.597656 C 350.738281 421.28125 348.835938 423.625 324.359375 455.488281 L 271.792969 502.378906 C 242.910156 528.1875 219.007812 549.367188 218.6875 549.492188 C 218.371094 549.617188 218.5625 549.207031 219.257812 548.382812 C 219.863281 547.621094 241.039062 523.90625 312.28125 444.171875 L 329.367188 430.695312 C 338.753906 423.277344 346.425781 417.125 346.394531 416.96875 C 346.394531 416.839844 345.792969 415.984375 345.03125 415.066406 C 344.300781 414.179688 343.382812 412.972656 342.335938 411.515625 L 339.039062 414.050781 C 337.230469 415.445312 329.433594 421.4375 307.714844 438.144531 L 244.71875 470.199219 C 210.035156 487.828125 181.53125 502.1875 181.371094 502.125 C 181.183594 502.03125 182.195312 501.238281 183.59375 500.320312 C 184.988281 499.429688 211.585938 481.867188 299.34375 423.878906 L 339.261719 406.503906 L 337.992188 403.238281 C 337.296875 401.433594 336.628906 399.972656 336.46875 399.941406 C 336.34375 399.941406 327.308594 403.652344 296.460938 416.492188 L 228.453125 430.886719 C 191.042969 438.78125 159.910156 445.40625 159.242188 445.597656 C 158.386719 445.820312 158.101562 445.820312 158.132812 445.566406 C 158.195312 445.34375 188.316406 435.132812 292.019531 400.578125 L 313.421875 397.375 C 325.183594 395.632812 334.855469 394.171875 334.917969 394.140625 C 334.980469 394.109375 334.855469 393.03125 334.664062 391.761719 C 334.503906 390.527344 334.347656 388.972656 334.347656 388.371094 C 334.347656 387.769531 334.15625 387.199219 333.933594 387.101562 C 333.742188 387.007812 323.980469 388.210938 291.070312 392.523438 L 220.527344 388.625 C 179.058594 386.339844 149.859375 384.597656 149.667969 384.4375 C 149.457031 384.207031 149.511719 384.046875 149.828125 383.964844 C 150.082031 383.867188 181.976562 381.996094 291.070312 375.816406 L 312.46875 378.351562 C 328.511719 380.253906 333.933594 380.792969 334.09375 380.507812 C 334.1875 380.285156 334.378906 379.050781 334.503906 377.75 C 334.632812 376.449219 334.757812 375.023438 334.820312 373.785156 L 292.019531 368.144531 L 224.964844 346.140625 C 188.09375 334.0625 157.847656 324.074219 157.753906 324.011719 C 157.65625 323.914062 157.65625 323.789062 157.753906 323.726562 C 157.847656 323.660156 189.140625 330.066406 296.777344 352.289062 L 316.433594 360.121094 C 327.246094 364.402344 336.28125 367.921875 336.46875 367.921875 C 336.691406 367.921875 336.976562 367.539062 337.074219 367.035156 C 337.167969 366.558594 337.738281 365.097656 338.339844 363.800781 C 338.945312 362.5 339.386719 361.390625 339.324219 361.390625 C 339.292969 361.359375 330.414062 357.679688 319.605469 353.179688 C 308.792969 348.707031 299.660156 344.871094 299.3125 344.683594 C 298.964844 344.492188 272.429688 327.179688 240.34375 306.191406 C 208.257812 285.171875 181.785156 267.800781 181.53125 267.546875 C 181.121094 267.164062 181.121094 267.101562 181.691406 267.226562 C 182.039062 267.292969 210.507812 281.558594 307.554688 330.382812 L 321.347656 340.6875 C 328.925781 346.363281 336.757812 352.195312 342.367188 356.347656 L 342.875 355.554688 C 343.160156 355.144531 344.113281 353.84375 345.03125 352.703125 C 345.917969 351.5625 346.617188 350.578125 346.585938 350.484375 C 346.519531 350.390625 338.878906 344.460938 312.753906 324.328125 L 265.675781 271.539062 C 239.773438 242.5 218.59375 218.59375 218.59375 218.433594 C 218.59375 218.246094 219.164062 218.625 219.894531 219.226562 C 220.589844 219.832031 244.304688 241.007812 324.074219 312.28125 L 337.515625 329.335938 C 349.40625 344.332031 351.054688 346.332031 351.5 345.980469 C 351.816406 345.761719 353.050781 344.808594 354.289062 343.890625 C 355.84375 342.746094 356.476562 342.113281 356.285156 341.828125 C 356.160156 341.574219 350.199219 333.808594 330.066406 307.652344 L 298.265625 245.128906 C 280.765625 210.730469 266.402344 182.324219 266.308594 181.976562 C 266.183594 181.4375 266.246094 181.40625 266.59375 181.816406 C 266.847656 182.070312 284.410156 208.605469 305.652344 240.785156 C 330.128906 277.816406 344.714844 300.199219 345.441406 301.816406 C 346.078125 303.210938 350.007812 312.214844 361.769531 339.292969 L 363.988281 338.246094 C 365.195312 337.675781 366.621094 337.105469 367.128906 336.945312 C 367.636719 336.820312 368.078125 336.597656 368.144531 336.4375 C 368.207031 336.3125 364.5625 327.308594 351.785156 296.585938 L 337.074219 227.058594 C 328.957031 188.855469 322.394531 157.5 322.488281 157.402344 C 322.550781 157.308594 322.679688 157.308594 322.710938 157.402344 C 322.773438 157.5 332.917969 187.808594 367.699219 291.988281 L 370.871094 313.390625 C 372.613281 325.152344 374.070312 334.820312 374.105469 334.855469 C 374.105469 334.886719 375.402344 334.789062 376.988281 334.601562 C 378.542969 334.410156 380.160156 334.1875 380.539062 334.125 C 380.984375 334.0625 381.269531 333.777344 381.269531 333.425781 C 381.238281 333.140625 380 323.410156 375.6875 290.722656 L 379.589844 220.65625 C 381.710938 182.101562 383.457031 150.492188 383.457031 150.335938 C 383.488281 150.207031 383.710938 150.113281 383.964844 150.113281 Z M 383.964844 150.113281 " fill-opacity="1" fill-rule="evenodd"/></g></svg>